G04 #@! TF.GenerationSoftware,KiCad,Pcbnew,8.0.4*
G04 #@! TF.CreationDate,2024-08-16T09:30:41-05:00*
G04 #@! TF.ProjectId,MotorBoardv3_2,4d6f746f-7242-46f6-9172-6476335f322e,V2.0.2b*
G04 #@! TF.SameCoordinates,Original*
G04 #@! TF.FileFunction,Copper,L1,Top*
G04 #@! TF.FilePolarity,Positive*
%FSLAX46Y46*%
G04 Gerber Fmt 4.6, Leading zero omitted, Abs format (unit mm)*
G04 Created by KiCad (PCBNEW 8.0.4) date 2024-08-16 09:30:41*
%MOMM*%
%LPD*%
G01*
G04 APERTURE LIST*
G04 Aperture macros list*
%AMRoundRect*
0 Rectangle with rounded corners*
0 $1 Rounding radius*
0 $2 $3 $4 $5 $6 $7 $8 $9 X,Y pos of 4 corners*
0 Add a 4 corners polygon primitive as box body*
4,1,4,$2,$3,$4,$5,$6,$7,$8,$9,$2,$3,0*
0 Add four circle primitives for the rounded corners*
1,1,$1+$1,$2,$3*
1,1,$1+$1,$4,$5*
1,1,$1+$1,$6,$7*
1,1,$1+$1,$8,$9*
0 Add four rect primitives between the rounded corners*
20,1,$1+$1,$2,$3,$4,$5,0*
20,1,$1+$1,$4,$5,$6,$7,0*
20,1,$1+$1,$6,$7,$8,$9,0*
20,1,$1+$1,$8,$9,$2,$3,0*%
%AMHorizOval*
0 Thick line with rounded ends*
0 $1 width*
0 $2 $3 position (X,Y) of the first rounded end (center of the circle)*
0 $4 $5 position (X,Y) of the second rounded end (center of the circle)*
0 Add line between two ends*
20,1,$1,$2,$3,$4,$5,0*
0 Add two circle primitives to create the rounded ends*
1,1,$1,$2,$3*
1,1,$1,$4,$5*%
%AMRotRect*
0 Rectangle, with rotation*
0 The origin of the aperture is its center*
0 $1 length*
0 $2 width*
0 $3 Rotation angle, in degrees counterclockwise*
0 Add horizontal line*
21,1,$1,$2,0,0,$3*%
G04 Aperture macros list end*
G04 #@! TA.AperFunction,ComponentPad*
%ADD10R,1.700000X1.700000*%
G04 #@! TD*
G04 #@! TA.AperFunction,ComponentPad*
%ADD11O,1.700000X1.700000*%
G04 #@! TD*
G04 #@! TA.AperFunction,SMDPad,CuDef*
%ADD12R,0.800000X0.800000*%
G04 #@! TD*
G04 #@! TA.AperFunction,ComponentPad*
%ADD13C,1.700000*%
G04 #@! TD*
G04 #@! TA.AperFunction,ComponentPad*
%ADD14HorizOval,2.032000X0.088213X-0.500282X-0.088213X0.500282X0*%
G04 #@! TD*
G04 #@! TA.AperFunction,ComponentPad*
%ADD15HorizOval,1.778000X0.110267X-0.625353X-0.110267X0.625353X0*%
G04 #@! TD*
G04 #@! TA.AperFunction,ComponentPad*
%ADD16HorizOval,1.778000X0.253613X-1.438312X-0.253613X1.438312X0*%
G04 #@! TD*
G04 #@! TA.AperFunction,SMDPad,CuDef*
%ADD17R,2.300000X1.800000*%
G04 #@! TD*
G04 #@! TA.AperFunction,ComponentPad*
%ADD18RotRect,1.350000X1.350000X135.000000*%
G04 #@! TD*
G04 #@! TA.AperFunction,ComponentPad*
%ADD19C,1.350000*%
G04 #@! TD*
G04 #@! TA.AperFunction,SMDPad,CuDef*
%ADD20R,1.800000X2.300000*%
G04 #@! TD*
G04 #@! TA.AperFunction,ComponentPad*
%ADD21R,2.775000X2.775000*%
G04 #@! TD*
G04 #@! TA.AperFunction,ComponentPad*
%ADD22C,2.775000*%
G04 #@! TD*
G04 #@! TA.AperFunction,SMDPad,CuDef*
%ADD23RoundRect,0.200000X-0.275000X0.200000X-0.275000X-0.200000X0.275000X-0.200000X0.275000X0.200000X0*%
G04 #@! TD*
G04 #@! TA.AperFunction,SMDPad,CuDef*
%ADD24RoundRect,0.225000X-0.225000X-0.250000X0.225000X-0.250000X0.225000X0.250000X-0.225000X0.250000X0*%
G04 #@! TD*
G04 #@! TA.AperFunction,ComponentPad*
%ADD25RotRect,1.350000X1.350000X225.000000*%
G04 #@! TD*
G04 #@! TA.AperFunction,ComponentPad*
%ADD26HorizOval,2.032000X0.359210X-0.359210X-0.359210X0.359210X0*%
G04 #@! TD*
G04 #@! TA.AperFunction,ComponentPad*
%ADD27HorizOval,1.778000X0.449013X-0.449013X-0.449013X0.449013X0*%
G04 #@! TD*
G04 #@! TA.AperFunction,ComponentPad*
%ADD28HorizOval,1.778000X1.032729X-1.032729X-1.032729X1.032729X0*%
G04 #@! TD*
G04 #@! TA.AperFunction,SMDPad,CuDef*
%ADD29R,3.150000X1.000000*%
G04 #@! TD*
G04 #@! TA.AperFunction,SMDPad,CuDef*
%ADD30R,0.450000X1.475000*%
G04 #@! TD*
G04 #@! TA.AperFunction,SMDPad,CuDef*
%ADD31R,2.310000X2.460000*%
G04 #@! TD*
G04 #@! TA.AperFunction,ComponentPad*
%ADD32R,1.000000X1.000000*%
G04 #@! TD*
G04 #@! TA.AperFunction,ComponentPad*
%ADD33O,1.000000X1.000000*%
G04 #@! TD*
G04 #@! TA.AperFunction,ComponentPad*
%ADD34C,3.048000*%
G04 #@! TD*
G04 #@! TA.AperFunction,ComponentPad*
%ADD35O,3.048000X7.366000*%
G04 #@! TD*
G04 #@! TA.AperFunction,SMDPad,CuDef*
%ADD36RoundRect,0.200000X0.275000X-0.200000X0.275000X0.200000X-0.275000X0.200000X-0.275000X-0.200000X0*%
G04 #@! TD*
G04 #@! TA.AperFunction,ComponentPad*
%ADD37R,1.350000X1.350000*%
G04 #@! TD*
G04 #@! TA.AperFunction,SMDPad,CuDef*
%ADD38RoundRect,0.250000X0.625000X-0.312500X0.625000X0.312500X-0.625000X0.312500X-0.625000X-0.312500X0*%
G04 #@! TD*
G04 #@! TA.AperFunction,ComponentPad*
%ADD39R,1.778000X1.778000*%
G04 #@! TD*
G04 #@! TA.AperFunction,ComponentPad*
%ADD40C,1.778000*%
G04 #@! TD*
G04 #@! TA.AperFunction,SMDPad,CuDef*
%ADD41R,0.950000X1.750000*%
G04 #@! TD*
G04 #@! TA.AperFunction,SMDPad,CuDef*
%ADD42R,3.200000X1.750000*%
G04 #@! TD*
G04 #@! TA.AperFunction,ComponentPad*
%ADD43HorizOval,2.032000X-0.359210X-0.359210X0.359210X0.359210X0*%
G04 #@! TD*
G04 #@! TA.AperFunction,ComponentPad*
%ADD44HorizOval,1.778000X-0.449013X-0.449013X0.449013X0.449013X0*%
G04 #@! TD*
G04 #@! TA.AperFunction,ComponentPad*
%ADD45HorizOval,1.778000X-1.032729X-1.032729X1.032729X1.032729X0*%
G04 #@! TD*
G04 #@! TA.AperFunction,ComponentPad*
%ADD46HorizOval,2.032000X-0.088213X-0.500282X0.088213X0.500282X0*%
G04 #@! TD*
G04 #@! TA.AperFunction,ComponentPad*
%ADD47HorizOval,1.778000X-0.110267X-0.625353X0.110267X0.625353X0*%
G04 #@! TD*
G04 #@! TA.AperFunction,ComponentPad*
%ADD48HorizOval,1.778000X-0.253613X-1.438312X0.253613X1.438312X0*%
G04 #@! TD*
G04 #@! TA.AperFunction,ViaPad*
%ADD49C,0.800000*%
G04 #@! TD*
G04 #@! TA.AperFunction,ViaPad*
%ADD50C,1.270000*%
G04 #@! TD*
G04 #@! TA.AperFunction,Conductor*
%ADD51C,0.750000*%
G04 #@! TD*
G04 #@! TA.AperFunction,Conductor*
%ADD52C,0.250000*%
G04 #@! TD*
G04 #@! TA.AperFunction,Conductor*
%ADD53C,0.400000*%
G04 #@! TD*
G04 #@! TA.AperFunction,Conductor*
%ADD54C,0.200000*%
G04 #@! TD*
G04 #@! TA.AperFunction,Conductor*
%ADD55C,0.150000*%
G04 #@! TD*
G04 #@! TA.AperFunction,Conductor*
%ADD56C,0.127000*%
G04 #@! TD*
G04 #@! TA.AperFunction,Conductor*
%ADD57C,0.450000*%
G04 #@! TD*
G04 APERTURE END LIST*
D10*
X128905000Y-79375000D03*
D11*
X126365000Y-79375000D03*
D10*
X93980000Y-79375000D03*
D11*
X91440000Y-79375000D03*
D12*
X50165000Y-120142000D03*
X50165000Y-121792000D03*
D13*
X72517000Y-116586000D03*
D10*
X69088000Y-147066000D03*
D11*
X69088000Y-149606000D03*
D14*
X90131412Y-27752934D03*
D15*
X80125765Y-29517199D03*
D16*
X85128588Y-28635066D03*
X93794899Y-27106962D03*
X77939492Y-29902698D03*
D13*
X78740000Y-129794000D03*
D17*
X73025000Y-129180000D03*
X73025000Y-132080000D03*
D18*
X146050000Y-63500000D03*
D19*
X144635786Y-62085786D03*
X143221573Y-60671573D03*
D20*
X135710000Y-69850000D03*
X138610000Y-69850000D03*
D13*
X68961000Y-142499000D03*
D11*
X68961000Y-139959000D03*
D13*
X106680000Y-100330000D03*
D20*
X79830000Y-69850000D03*
X82730000Y-69850000D03*
D13*
X143002000Y-78359000D03*
D21*
X50863500Y-149606000D03*
D22*
X55563500Y-149606000D03*
X60263500Y-149606000D03*
D23*
X139700000Y-100140000D03*
X139700000Y-101790000D03*
D10*
X116205000Y-140081000D03*
D11*
X116205000Y-142621000D03*
X116205000Y-145161000D03*
D13*
X52705000Y-66040000D03*
X140208000Y-78486000D03*
D17*
X70104000Y-81714000D03*
X70104000Y-78814000D03*
D24*
X110845000Y-111125000D03*
X112395000Y-111125000D03*
D25*
X73768949Y-60914872D03*
D19*
X72354735Y-62329086D03*
X70940522Y-63743299D03*
D13*
X52705000Y-74295000D03*
D26*
X59200051Y-42399949D03*
D27*
X52015846Y-49584154D03*
D28*
X55607949Y-45992051D03*
X61830488Y-39769512D03*
X50446069Y-51153931D03*
D29*
X90170000Y-120650000D03*
X85120000Y-120650000D03*
X90170000Y-118110000D03*
X85120000Y-118110000D03*
X90170000Y-115570000D03*
X85120000Y-115570000D03*
X90170000Y-113030000D03*
X85120000Y-113030000D03*
X90170000Y-110490000D03*
X85120000Y-110490000D03*
X90170000Y-107950000D03*
X85120000Y-107950000D03*
X90170000Y-105410000D03*
X85120000Y-105410000D03*
X90170000Y-102870000D03*
X85120000Y-102870000D03*
X90170000Y-100330000D03*
X85120000Y-100330000D03*
X90170000Y-97790000D03*
X85120000Y-97790000D03*
D30*
X114035000Y-101557000D03*
X113385000Y-101557000D03*
X112735000Y-101557000D03*
X112085000Y-101557000D03*
X111435000Y-101557000D03*
X110785000Y-101557000D03*
X110135000Y-101557000D03*
X109485000Y-101557000D03*
X109485000Y-107433000D03*
X110135000Y-107433000D03*
X110785000Y-107433000D03*
X111435000Y-107433000D03*
X112085000Y-107433000D03*
X112735000Y-107433000D03*
X113385000Y-107433000D03*
X114035000Y-107433000D03*
D31*
X111760000Y-104495000D03*
D17*
X59690000Y-129360000D03*
X59690000Y-132260000D03*
D29*
X133350000Y-120650000D03*
X128300000Y-120650000D03*
X133350000Y-118110000D03*
X128300000Y-118110000D03*
X133350000Y-115570000D03*
X128300000Y-115570000D03*
X133350000Y-113030000D03*
X128300000Y-113030000D03*
X133350000Y-110490000D03*
X128300000Y-110490000D03*
X133350000Y-107950000D03*
X128300000Y-107950000D03*
X133350000Y-105410000D03*
X128300000Y-105410000D03*
X133350000Y-102870000D03*
X128300000Y-102870000D03*
X133350000Y-100330000D03*
X128300000Y-100330000D03*
X133350000Y-97790000D03*
X128300000Y-97790000D03*
D13*
X139065000Y-105048000D03*
D23*
X50165000Y-124016000D03*
X50165000Y-125666000D03*
D20*
X110310000Y-114300000D03*
X113210000Y-114300000D03*
D32*
X165608000Y-67818000D03*
D33*
X165608000Y-69068000D03*
X165608000Y-70318000D03*
X165608000Y-71568000D03*
X165608000Y-72818000D03*
X165608000Y-74068000D03*
D10*
X148463000Y-115570000D03*
D11*
X145923000Y-115570000D03*
D10*
X115951000Y-130048000D03*
D11*
X115951000Y-132588000D03*
X115951000Y-135128000D03*
D13*
X68580000Y-122555000D03*
D11*
X71120000Y-122555000D03*
D10*
X136525000Y-147955000D03*
D11*
X136525000Y-150495000D03*
D34*
X63500000Y-142250000D03*
X123500000Y-142250000D03*
X148500000Y-86050000D03*
X68500000Y-86050000D03*
D35*
X55500000Y-137450000D03*
X55500000Y-122450000D03*
X80500000Y-105850000D03*
X80500000Y-90850000D03*
D10*
X71297800Y-94950000D03*
D11*
X71297800Y-97490000D03*
X71297800Y-100030000D03*
X71297800Y-102570000D03*
X71297800Y-105110000D03*
X71297800Y-107650000D03*
D10*
X143687800Y-107650000D03*
D11*
X143687800Y-105110000D03*
X143687800Y-102570000D03*
X143687800Y-100030000D03*
X143687800Y-97490000D03*
D13*
X143687800Y-94950000D03*
D23*
X166370000Y-149733000D03*
X166370000Y-151383000D03*
D36*
X140843000Y-122300000D03*
X140843000Y-120650000D03*
D37*
X110490000Y-57785000D03*
D19*
X108490000Y-57785000D03*
X106490000Y-57785000D03*
D38*
X114808000Y-96143000D03*
X114808000Y-93218000D03*
D39*
X151765000Y-120650000D03*
D40*
X154305000Y-120650000D03*
X156845000Y-120650000D03*
X159385000Y-120650000D03*
D39*
X151765000Y-118110000D03*
D40*
X154305000Y-118110000D03*
X156845000Y-118110000D03*
X159385000Y-118110000D03*
D10*
X153670000Y-152400000D03*
D11*
X156210000Y-152400000D03*
X158750000Y-152400000D03*
X161290000Y-152400000D03*
X161290000Y-149860000D03*
X158750000Y-149860000D03*
X156210000Y-149860000D03*
X153670000Y-149860000D03*
D13*
X76073000Y-116586000D03*
D10*
X164211000Y-81407000D03*
D11*
X166751000Y-81407000D03*
D41*
X74140000Y-83135000D03*
X76440000Y-83135000D03*
X78740000Y-83135000D03*
D42*
X76440000Y-76835000D03*
D23*
X74930000Y-100140000D03*
X74930000Y-101790000D03*
D38*
X108458000Y-96143000D03*
X108458000Y-93218000D03*
D20*
X106680000Y-66675000D03*
X109580000Y-66675000D03*
D17*
X82804000Y-81460000D03*
X82804000Y-78560000D03*
D13*
X76073000Y-97536000D03*
X53340000Y-129940000D03*
D41*
X68580000Y-127660000D03*
X66280000Y-127660000D03*
X63980000Y-127660000D03*
D42*
X66280000Y-133960000D03*
D13*
X50673000Y-139827000D03*
D11*
X50673000Y-137287000D03*
D13*
X75184000Y-122555000D03*
X52070000Y-80010000D03*
D11*
X54610000Y-80010000D03*
D43*
X158223949Y-42399949D03*
D44*
X165408154Y-49584154D03*
D45*
X161816051Y-45992051D03*
X155593512Y-39769512D03*
X166977931Y-51153931D03*
D46*
X128333988Y-27752934D03*
D47*
X138339635Y-29517199D03*
D48*
X133336812Y-28635066D03*
X124670501Y-27106962D03*
X140525908Y-29902698D03*
D49*
X50165000Y-118745000D03*
X114808000Y-91440000D03*
X84582000Y-69850000D03*
X76440000Y-75198000D03*
X140716000Y-69850000D03*
X113792000Y-111252000D03*
X125476000Y-118110000D03*
D50*
X111760000Y-104495000D03*
D49*
X111506000Y-66548000D03*
X66294000Y-136144000D03*
X85120000Y-122398000D03*
X108458000Y-91440000D03*
X116078000Y-103600000D03*
X62230000Y-127000000D03*
X52070000Y-127000000D03*
X116078000Y-124714000D03*
X165735000Y-146685000D03*
X139700000Y-131445000D03*
X121285000Y-104140000D03*
X95504000Y-114300000D03*
X96012000Y-45974000D03*
X135255000Y-128270000D03*
X135255000Y-123825000D03*
X149352000Y-99314000D03*
X149352000Y-106426000D03*
X148844000Y-97790000D03*
X146812000Y-105918000D03*
X122428000Y-73660000D03*
X122428000Y-106680000D03*
X120904000Y-52324000D03*
X121158000Y-101600000D03*
X135890000Y-100330000D03*
X137922000Y-128778000D03*
X137922000Y-120650000D03*
X136652000Y-97790000D03*
X148590000Y-130175000D03*
X96520000Y-123825000D03*
X96520000Y-86995000D03*
X81915000Y-115570000D03*
X81915000Y-144780000D03*
X118364000Y-88392000D03*
X118364000Y-103886000D03*
X119380000Y-110490000D03*
X119380000Y-128905000D03*
X119888000Y-84074000D03*
X119888000Y-105410000D03*
X104140000Y-44196000D03*
X98552000Y-115570000D03*
X101854000Y-45974000D03*
X97790000Y-113030000D03*
X93345000Y-130175000D03*
X93345000Y-102870000D03*
X94615000Y-140335000D03*
X94615000Y-100330000D03*
X68072000Y-89154000D03*
X110310000Y-117602000D03*
X72898000Y-125730000D03*
X110236000Y-127762000D03*
X102362000Y-96266000D03*
X102362000Y-109220000D03*
X99568000Y-99822000D03*
X99568000Y-107442000D03*
X150368000Y-100076000D03*
X149352000Y-108966000D03*
X130048000Y-132588000D03*
X137160000Y-132715000D03*
X164465000Y-147955000D03*
X140970000Y-81915000D03*
X123825000Y-81915000D03*
X123190000Y-120650000D03*
X137795000Y-95885000D03*
D51*
X128300000Y-118110000D02*
X125476000Y-118110000D01*
X59690000Y-132260000D02*
X64580000Y-132260000D01*
D52*
X128333988Y-27752934D02*
X127447934Y-27752934D01*
D51*
X138610000Y-69850000D02*
X140716000Y-69850000D01*
D53*
X111353000Y-104902000D02*
X111760000Y-104495000D01*
X112085000Y-104820000D02*
X111760000Y-104495000D01*
D51*
X66280000Y-127660000D02*
X66280000Y-133960000D01*
X70104000Y-78814000D02*
X74461000Y-78814000D01*
X113665000Y-111125000D02*
X113792000Y-111252000D01*
X76440000Y-76835000D02*
X76440000Y-75198000D01*
X78165000Y-78560000D02*
X76440000Y-76835000D01*
X85120000Y-120650000D02*
X85120000Y-122398000D01*
X64580000Y-132260000D02*
X66280000Y-133960000D01*
D53*
X112735000Y-105470000D02*
X112735000Y-107433000D01*
D51*
X113210000Y-114300000D02*
X113210000Y-111834000D01*
X66280000Y-133960000D02*
X66280000Y-136130000D01*
D53*
X111760000Y-104495000D02*
X112735000Y-105470000D01*
X111252000Y-104902000D02*
X111353000Y-104902000D01*
D51*
X76454000Y-75184000D02*
X76440000Y-75198000D01*
D53*
X110785000Y-107433000D02*
X110785000Y-105470000D01*
X114808000Y-93218000D02*
X114808000Y-91440000D01*
D51*
X82730000Y-69850000D02*
X84582000Y-69850000D01*
X66280000Y-136130000D02*
X66294000Y-136144000D01*
D53*
X112085000Y-107433000D02*
X112085000Y-104820000D01*
D51*
X109580000Y-66675000D02*
X111379000Y-66675000D01*
D54*
X50165000Y-120142000D02*
X50165000Y-118745000D01*
D53*
X111252000Y-105003000D02*
X111252000Y-104902000D01*
D51*
X76440000Y-83135000D02*
X76440000Y-76835000D01*
D53*
X108458000Y-93218000D02*
X108458000Y-91440000D01*
D51*
X74461000Y-78814000D02*
X76440000Y-76835000D01*
X82804000Y-78560000D02*
X78165000Y-78560000D01*
X68160000Y-132080000D02*
X66280000Y-133960000D01*
X113210000Y-111834000D02*
X113792000Y-111252000D01*
X85090000Y-122428000D02*
X85120000Y-122398000D01*
X111379000Y-66675000D02*
X111506000Y-66548000D01*
X73025000Y-132080000D02*
X68160000Y-132080000D01*
D53*
X110785000Y-105470000D02*
X111252000Y-105003000D01*
D51*
X112395000Y-111125000D02*
X113665000Y-111125000D01*
X154305000Y-120650000D02*
X154305000Y-123825000D01*
X151130000Y-102870000D02*
X151130000Y-112903000D01*
X148255000Y-100030000D02*
X148272500Y-100012500D01*
D54*
X52070000Y-127000000D02*
X51499000Y-127000000D01*
D51*
X151130000Y-112903000D02*
X148463000Y-115570000D01*
X151130000Y-146050000D02*
X153670000Y-148590000D01*
D55*
X143687800Y-100030000D02*
X139810000Y-100030000D01*
D51*
X116332000Y-125730000D02*
X132715000Y-125730000D01*
X67183000Y-122555000D02*
X68580000Y-122555000D01*
D53*
X116078000Y-124714000D02*
X116078000Y-125476000D01*
D51*
X71120000Y-122555000D02*
X68580000Y-122555000D01*
D52*
X157335000Y-151275000D02*
X156210000Y-152400000D01*
D51*
X75311000Y-122555000D02*
X78486000Y-125730000D01*
X78486000Y-125730000D02*
X116332000Y-125730000D01*
X71120000Y-122555000D02*
X75311000Y-122555000D01*
X62280000Y-129360000D02*
X63980000Y-127660000D01*
X132080000Y-126365000D02*
X132715000Y-125730000D01*
D55*
X139810000Y-100030000D02*
X139700000Y-100140000D01*
D51*
X132080000Y-143510000D02*
X132080000Y-126365000D01*
D53*
X116078000Y-103600000D02*
X114035000Y-101557000D01*
D51*
X140843000Y-122300000D02*
X140843000Y-125603000D01*
X148463000Y-115570000D02*
X149225000Y-115570000D01*
X140843000Y-125603000D02*
X140970000Y-125730000D01*
X136525000Y-147955000D02*
X132080000Y-143510000D01*
D53*
X116078000Y-125476000D02*
X116332000Y-125730000D01*
D51*
X63980000Y-127660000D02*
X63980000Y-125758000D01*
D52*
X166262000Y-151275000D02*
X157335000Y-151275000D01*
D55*
X74150000Y-102570000D02*
X74930000Y-101790000D01*
D51*
X132715000Y-125730000D02*
X140970000Y-125730000D01*
X152400000Y-125730000D02*
X154305000Y-123825000D01*
D54*
X62865000Y-127000000D02*
X62230000Y-127000000D01*
X51499000Y-127000000D02*
X50165000Y-125666000D01*
D51*
X59690000Y-129360000D02*
X62280000Y-129360000D01*
D54*
X63525000Y-127660000D02*
X62865000Y-127000000D01*
D51*
X140970000Y-125730000D02*
X152400000Y-125730000D01*
X148272500Y-100012500D02*
X151130000Y-102870000D01*
X138430000Y-146050000D02*
X151130000Y-146050000D01*
X149225000Y-115570000D02*
X151765000Y-118110000D01*
X153670000Y-148590000D02*
X153670000Y-149860000D01*
X136525000Y-147955000D02*
X138430000Y-146050000D01*
X63980000Y-125758000D02*
X67183000Y-122555000D01*
X151765000Y-118110000D02*
X154305000Y-120650000D01*
X59690000Y-129360000D02*
X59690000Y-129032000D01*
D55*
X71297800Y-102570000D02*
X74150000Y-102570000D01*
D52*
X166370000Y-151383000D02*
X166262000Y-151275000D01*
D51*
X143500000Y-100030000D02*
X148255000Y-100030000D01*
X63980000Y-127660000D02*
X63525000Y-127660000D01*
X153670000Y-149860000D02*
X156210000Y-152400000D01*
D54*
X132080000Y-104140000D02*
X121285000Y-104140000D01*
X139700000Y-131445000D02*
X161290000Y-131445000D01*
X161290000Y-131445000D02*
X165735000Y-135890000D01*
X133350000Y-105410000D02*
X132080000Y-104140000D01*
X165735000Y-135890000D02*
X165735000Y-146685000D01*
X96012000Y-39370000D02*
X88900000Y-32258000D01*
X88900000Y-32258000D02*
X88751522Y-32258000D01*
X88751522Y-32258000D02*
X85128588Y-28635066D01*
X85598000Y-114300000D02*
X85120000Y-113822000D01*
X95504000Y-114300000D02*
X85598000Y-114300000D01*
X96012000Y-45974000D02*
X96012000Y-39370000D01*
X85120000Y-113822000D02*
X85120000Y-113030000D01*
D56*
X86360000Y-86995000D02*
X83820000Y-89535000D01*
X93980000Y-79375000D02*
X93980000Y-85090000D01*
X92075000Y-86995000D02*
X86360000Y-86995000D01*
D55*
X85120000Y-107950000D02*
X83312000Y-107950000D01*
D56*
X93980000Y-85090000D02*
X92075000Y-86995000D01*
X82550000Y-102616000D02*
X82804000Y-102870000D01*
D55*
X83312000Y-107950000D02*
X82804000Y-107442000D01*
D52*
X86360000Y-107950000D02*
X85090000Y-107950000D01*
D55*
X82804000Y-107442000D02*
X82804000Y-102870000D01*
D56*
X82550000Y-95885000D02*
X82550000Y-102616000D01*
X83820000Y-94615000D02*
X82550000Y-95885000D01*
X83820000Y-89535000D02*
X83820000Y-94615000D01*
D52*
X86360000Y-102870000D02*
X85090000Y-102870000D01*
D54*
X133350000Y-118110000D02*
X132080000Y-118110000D01*
X156210000Y-146685000D02*
X156210000Y-149860000D01*
X135255000Y-123825000D02*
X132080000Y-123825000D01*
X132080000Y-123825000D02*
X130810000Y-122555000D01*
X132080000Y-118110000D02*
X130810000Y-119380000D01*
X153035000Y-143510000D02*
X156210000Y-146685000D01*
X130810000Y-122555000D02*
X130810000Y-119380000D01*
X135255000Y-128270000D02*
X135255000Y-140970000D01*
X137795000Y-143510000D02*
X153035000Y-143510000D01*
X135255000Y-140970000D02*
X137795000Y-143510000D01*
X160782000Y-82042000D02*
X161290000Y-81534000D01*
X151130000Y-97536000D02*
X151130000Y-83058000D01*
X142748000Y-113030000D02*
X149352000Y-106426000D01*
X152146000Y-82042000D02*
X160782000Y-82042000D01*
X133350000Y-113030000D02*
X142748000Y-113030000D01*
X151130000Y-83058000D02*
X152146000Y-82042000D01*
X149352000Y-99314000D02*
X151130000Y-97536000D01*
X161290000Y-81534000D02*
X161290000Y-71120000D01*
X163342000Y-69068000D02*
X165608000Y-69068000D01*
X161290000Y-71120000D02*
X163342000Y-69068000D01*
X144526000Y-110490000D02*
X146812000Y-108204000D01*
X133350000Y-110490000D02*
X144526000Y-110490000D01*
X149860000Y-90932000D02*
X145034000Y-86106000D01*
X145034000Y-64516000D02*
X146050000Y-63500000D01*
X149860000Y-96774000D02*
X149860000Y-90932000D01*
X146812000Y-108204000D02*
X146812000Y-105918000D01*
X148844000Y-97790000D02*
X149860000Y-96774000D01*
X145034000Y-86106000D02*
X145034000Y-64516000D01*
X119888000Y-58166000D02*
X110871000Y-58166000D01*
X122428000Y-60706000D02*
X119888000Y-58166000D01*
X133350000Y-107950000D02*
X132080000Y-106680000D01*
X110871000Y-58166000D02*
X110490000Y-57785000D01*
X132080000Y-106680000D02*
X122428000Y-106680000D01*
X122428000Y-73660000D02*
X122428000Y-60706000D01*
X133350000Y-102870000D02*
X132080000Y-101600000D01*
X120904000Y-52324000D02*
X120904000Y-48514000D01*
X120904000Y-48514000D02*
X119634000Y-47244000D01*
X74149949Y-45992051D02*
X55607949Y-45992051D01*
X74168000Y-45974000D02*
X74149949Y-45992051D01*
X119634000Y-47244000D02*
X75438000Y-47244000D01*
X75438000Y-47244000D02*
X74168000Y-45974000D01*
X132080000Y-101600000D02*
X121158000Y-101600000D01*
X137922000Y-128778000D02*
X154432000Y-128778000D01*
X156845000Y-126365000D02*
X156845000Y-120650000D01*
X133350000Y-100330000D02*
X135890000Y-100330000D01*
X154432000Y-128778000D02*
X156845000Y-126365000D01*
X156845000Y-120650000D02*
X156845000Y-118110000D01*
X140843000Y-120650000D02*
X137922000Y-120650000D01*
D52*
X148590000Y-130175000D02*
X157480000Y-130175000D01*
X159385000Y-128270000D02*
X159385000Y-120650000D01*
X159385000Y-120650000D02*
X159385000Y-118110000D01*
X157480000Y-130175000D02*
X159385000Y-128270000D01*
D54*
X133350000Y-97790000D02*
X136652000Y-97790000D01*
D52*
X126370000Y-79375000D02*
X123825000Y-79375000D01*
D54*
X85120000Y-118110000D02*
X83058000Y-118110000D01*
D52*
X121920000Y-85725000D02*
X120650000Y-86995000D01*
D54*
X82296000Y-122428000D02*
X83693000Y-123825000D01*
X83693000Y-123825000D02*
X96520000Y-123825000D01*
X82296000Y-118872000D02*
X82296000Y-122428000D01*
D52*
X121920000Y-81280000D02*
X121920000Y-85725000D01*
X123825000Y-79375000D02*
X121920000Y-81280000D01*
D54*
X83058000Y-118110000D02*
X82296000Y-118872000D01*
X120650000Y-86995000D02*
X96520000Y-86995000D01*
X81915000Y-144780000D02*
X82296000Y-145161000D01*
X82296000Y-145161000D02*
X116205000Y-145161000D01*
X85120000Y-115570000D02*
X81915000Y-115570000D01*
X100330000Y-104648000D02*
X97282000Y-101600000D01*
X109220000Y-104648000D02*
X100330000Y-104648000D01*
X110135000Y-107433000D02*
X110135000Y-105563000D01*
X110135000Y-105563000D02*
X109220000Y-104648000D01*
X86390000Y-101600000D02*
X85120000Y-100330000D01*
X97282000Y-101600000D02*
X86390000Y-101600000D01*
X116840000Y-105410000D02*
X118364000Y-103886000D01*
X85090000Y-89662000D02*
X85120000Y-89692000D01*
X118364000Y-88392000D02*
X86360000Y-88392000D01*
X86360000Y-88392000D02*
X85090000Y-89662000D01*
X113385000Y-107433000D02*
X113385000Y-106325000D01*
X113385000Y-106325000D02*
X114300000Y-105410000D01*
X114300000Y-105410000D02*
X116840000Y-105410000D01*
X85120000Y-89692000D02*
X85120000Y-97790000D01*
X114173000Y-135128000D02*
X115951000Y-135128000D01*
X113030000Y-133985000D02*
X114173000Y-135128000D01*
X113030000Y-132080000D02*
X113030000Y-133985000D01*
X128300000Y-110490000D02*
X119380000Y-110490000D01*
X118110000Y-131445000D02*
X113665000Y-131445000D01*
X113665000Y-131445000D02*
X113030000Y-132080000D01*
X119380000Y-128905000D02*
X119380000Y-130175000D01*
X119380000Y-130175000D02*
X118110000Y-131445000D01*
X117348000Y-81534000D02*
X117348000Y-73152000D01*
X117348000Y-73152000D02*
X116078000Y-71882000D01*
X88900000Y-62992000D02*
X86822872Y-60914872D01*
X116078000Y-71882000D02*
X92202000Y-71882000D01*
X119888000Y-84074000D02*
X117348000Y-81534000D01*
X86822872Y-60914872D02*
X73768949Y-60914872D01*
X128300000Y-105410000D02*
X119888000Y-105410000D01*
X92202000Y-71882000D02*
X88900000Y-68580000D01*
X88900000Y-68580000D02*
X88900000Y-62992000D01*
X109485000Y-107433000D02*
X109485000Y-108447000D01*
X109485000Y-108447000D02*
X108712000Y-109220000D01*
X105410000Y-119634000D02*
X104394000Y-120650000D01*
X106172000Y-109220000D02*
X105410000Y-109982000D01*
X105410000Y-109982000D02*
X105410000Y-119634000D01*
X104394000Y-120650000D02*
X90170000Y-120650000D01*
X108712000Y-109220000D02*
X106172000Y-109220000D01*
X114808000Y-121920000D02*
X114300000Y-122428000D01*
X114300000Y-122428000D02*
X88392000Y-122428000D01*
X114035000Y-107433000D02*
X114035000Y-109209000D01*
X88392000Y-122428000D02*
X87630000Y-121666000D01*
X88392000Y-118110000D02*
X90170000Y-118110000D01*
X114035000Y-109209000D02*
X114808000Y-109982000D01*
X114808000Y-109982000D02*
X114808000Y-121920000D01*
X87630000Y-121666000D02*
X87630000Y-118872000D01*
X87630000Y-118872000D02*
X88392000Y-118110000D01*
X107950000Y-35052000D02*
X130302000Y-35052000D01*
X90170000Y-115570000D02*
X98552000Y-115570000D01*
X133336812Y-32017188D02*
X133336812Y-28635066D01*
X104140000Y-44196000D02*
X104140000Y-38862000D01*
X104140000Y-38862000D02*
X107950000Y-35052000D01*
X130302000Y-35052000D02*
X133336812Y-32017188D01*
X101872051Y-45992051D02*
X161816051Y-45992051D01*
X90170000Y-113030000D02*
X97790000Y-113030000D01*
X101854000Y-45974000D02*
X101872051Y-45992051D01*
X90170000Y-102870000D02*
X93345000Y-102870000D01*
X93345000Y-130175000D02*
X93472000Y-130048000D01*
X93472000Y-130048000D02*
X115951000Y-130048000D01*
X94869000Y-140081000D02*
X116205000Y-140081000D01*
X94615000Y-140335000D02*
X94869000Y-140081000D01*
X90170000Y-100330000D02*
X94615000Y-100330000D01*
D51*
X79830000Y-72972000D02*
X79830000Y-69850000D01*
X86360000Y-74168000D02*
X81026000Y-74168000D01*
X106680000Y-66675000D02*
X106680000Y-57975000D01*
X135710000Y-69850000D02*
X135710000Y-68183146D01*
X82804000Y-81460000D02*
X80415000Y-81460000D01*
X106490000Y-56578000D02*
X108966000Y-54102000D01*
X166878000Y-67818000D02*
X165608000Y-67818000D01*
X52705000Y-74295000D02*
X52705000Y-79375000D01*
X105537000Y-57785000D02*
X106490000Y-57785000D01*
X105156000Y-57404000D02*
X105537000Y-57785000D01*
X70940522Y-63743299D02*
X69850000Y-62652777D01*
X73914000Y-57404000D02*
X105156000Y-57404000D01*
X86180000Y-81460000D02*
X87376000Y-80264000D01*
X69850000Y-62652777D02*
X69850000Y-61468000D01*
X167640000Y-75565000D02*
X167640000Y-68580000D01*
X69850000Y-61468000D02*
X73914000Y-57404000D01*
X52705000Y-79375000D02*
X52070000Y-80010000D01*
X87376000Y-80264000D02*
X87376000Y-75184000D01*
X166751000Y-76454000D02*
X167640000Y-75565000D01*
X80415000Y-81460000D02*
X78740000Y-83135000D01*
X87376000Y-75184000D02*
X86360000Y-74168000D01*
X106490000Y-57785000D02*
X106490000Y-56578000D01*
X108966000Y-54102000D02*
X136652000Y-54102000D01*
X167640000Y-68580000D02*
X166878000Y-67818000D01*
X70940522Y-63743299D02*
X63256701Y-63743299D01*
X166751000Y-81407000D02*
X166751000Y-76454000D01*
X136652000Y-54102000D02*
X143221573Y-60671573D01*
X54610000Y-80010000D02*
X52070000Y-80010000D01*
X82804000Y-81460000D02*
X86180000Y-81460000D01*
X81026000Y-74168000D02*
X79830000Y-72972000D01*
X63256701Y-63743299D02*
X52705000Y-74295000D01*
X135710000Y-68183146D02*
X143221573Y-60671573D01*
X79830000Y-69850000D02*
X77047223Y-69850000D01*
X106680000Y-57975000D02*
X106490000Y-57785000D01*
X77047223Y-69850000D02*
X70940522Y-63743299D01*
D53*
X118364000Y-98298000D02*
X122682000Y-93980000D01*
X122682000Y-93980000D02*
X139700000Y-93980000D01*
X143687800Y-94950000D02*
X140670000Y-94950000D01*
X113385000Y-99975000D02*
X115062000Y-98298000D01*
X140670000Y-94950000D02*
X139700000Y-93980000D01*
X115062000Y-98298000D02*
X118364000Y-98298000D01*
X113385000Y-101557000D02*
X113385000Y-99975000D01*
D51*
X69805000Y-90850000D02*
X80500000Y-90850000D01*
X55500000Y-129920000D02*
X67310000Y-118110000D01*
X55480000Y-129940000D02*
X55500000Y-129920000D01*
X55500000Y-137450000D02*
X55500000Y-129920000D01*
X67310000Y-93345000D02*
X69805000Y-90850000D01*
X53340000Y-129940000D02*
X55480000Y-129940000D01*
X67310000Y-118110000D02*
X67310000Y-93345000D01*
X110845000Y-113765000D02*
X110310000Y-114300000D01*
X70100000Y-129180000D02*
X68580000Y-127660000D01*
X76200000Y-136652000D02*
X74676000Y-138176000D01*
X75078000Y-129180000D02*
X76200000Y-130302000D01*
X75438000Y-127762000D02*
X110236000Y-127762000D01*
X73025000Y-129180000D02*
X75078000Y-129180000D01*
X74676000Y-138176000D02*
X70744000Y-138176000D01*
X74020000Y-129180000D02*
X75438000Y-127762000D01*
X68961000Y-139959000D02*
X68961000Y-142499000D01*
X72136000Y-89154000D02*
X74140000Y-87150000D01*
D57*
X111435000Y-107433000D02*
X111435000Y-109291000D01*
D51*
X68961000Y-146939000D02*
X69088000Y-147066000D01*
X73025000Y-129180000D02*
X73025000Y-125857000D01*
X73025000Y-129180000D02*
X74020000Y-129180000D01*
X110310000Y-117602000D02*
X110310000Y-114300000D01*
X73025000Y-129180000D02*
X70100000Y-129180000D01*
X72719000Y-81714000D02*
X74140000Y-83135000D01*
X73025000Y-125857000D02*
X72898000Y-125730000D01*
X111435000Y-109291000D02*
X110845000Y-109881000D01*
X110845000Y-109881000D02*
X110845000Y-111125000D01*
X70104000Y-81714000D02*
X72719000Y-81714000D01*
X68961000Y-142499000D02*
X68961000Y-146939000D01*
X70744000Y-138176000D02*
X68961000Y-139959000D01*
X110845000Y-111125000D02*
X110845000Y-113765000D01*
X76200000Y-130302000D02*
X76200000Y-136652000D01*
X68072000Y-89154000D02*
X72136000Y-89154000D01*
X74140000Y-87150000D02*
X74140000Y-83135000D01*
D53*
X143256000Y-89916000D02*
X146558000Y-93218000D01*
X144826000Y-97490000D02*
X143687800Y-97490000D01*
X146558000Y-95758000D02*
X144826000Y-97490000D01*
D54*
X143510000Y-78486000D02*
X143510000Y-89662000D01*
D53*
X143606800Y-97409000D02*
X143687800Y-97490000D01*
X113792000Y-89916000D02*
X143256000Y-89916000D01*
D52*
X143500000Y-97490000D02*
X144445000Y-97490000D01*
D54*
X143510000Y-89662000D02*
X143256000Y-89916000D01*
D53*
X112085000Y-91623000D02*
X113792000Y-89916000D01*
X146558000Y-93218000D02*
X146558000Y-95758000D01*
X112085000Y-101557000D02*
X112085000Y-91623000D01*
X73152000Y-109474000D02*
X73533000Y-109855000D01*
X111435000Y-101557000D02*
X111435000Y-91623000D01*
X109728000Y-89916000D02*
X103632000Y-89916000D01*
X99822000Y-111760000D02*
X77470000Y-111760000D01*
D54*
X77470000Y-115316000D02*
X77470000Y-111760000D01*
D53*
X73121800Y-109474000D02*
X73152000Y-109474000D01*
X111435000Y-91623000D02*
X109728000Y-89916000D01*
X77470000Y-111760000D02*
X75565000Y-109855000D01*
X73533000Y-109855000D02*
X75565000Y-109855000D01*
X102362000Y-91186000D02*
X102362000Y-96266000D01*
D54*
X76200000Y-116586000D02*
X77470000Y-115316000D01*
D53*
X103632000Y-89916000D02*
X102362000Y-91186000D01*
X71297800Y-107650000D02*
X73121800Y-109474000D01*
X102362000Y-109220000D02*
X99822000Y-111760000D01*
X71297800Y-105110000D02*
X74630000Y-105110000D01*
X81788000Y-110490000D02*
X78486000Y-110490000D01*
X83058000Y-109220000D02*
X81788000Y-110490000D01*
X78486000Y-110490000D02*
X77724000Y-109728000D01*
X74630000Y-105110000D02*
X75565000Y-106045000D01*
X108966000Y-98044000D02*
X101346000Y-98044000D01*
X110135000Y-101557000D02*
X110135000Y-99213000D01*
X77724000Y-108204000D02*
X75565000Y-106045000D01*
X77724000Y-109728000D02*
X77724000Y-108204000D01*
X101346000Y-98044000D02*
X99568000Y-99822000D01*
D54*
X69215000Y-113411000D02*
X69215000Y-107192800D01*
D53*
X110135000Y-99213000D02*
X108966000Y-98044000D01*
D54*
X72390000Y-116586000D02*
X69215000Y-113411000D01*
X69215000Y-107192800D02*
X71297800Y-105110000D01*
D53*
X99568000Y-107442000D02*
X97790000Y-109220000D01*
X97790000Y-109220000D02*
X83058000Y-109220000D01*
D51*
X135255000Y-120650000D02*
X138430000Y-117475000D01*
X133350000Y-120650000D02*
X135255000Y-120650000D01*
X144018000Y-117475000D02*
X145923000Y-115570000D01*
X138430000Y-117475000D02*
X144018000Y-117475000D01*
D54*
X163108000Y-70318000D02*
X165608000Y-70318000D01*
X161036000Y-82804000D02*
X162052000Y-81788000D01*
X133350000Y-115570000D02*
X142748000Y-115570000D01*
X152654000Y-82804000D02*
X161036000Y-82804000D01*
X151638000Y-98806000D02*
X151638000Y-83820000D01*
X162052000Y-71374000D02*
X163108000Y-70318000D01*
X150368000Y-100076000D02*
X151638000Y-98806000D01*
X142748000Y-115570000D02*
X149352000Y-108966000D01*
X151638000Y-83820000D02*
X152654000Y-82804000D01*
X162052000Y-81788000D02*
X162052000Y-71374000D01*
X50165000Y-121792000D02*
X50165000Y-124016000D01*
D53*
X112735000Y-101557000D02*
X112735000Y-96565000D01*
X112735000Y-96565000D02*
X113157000Y-96143000D01*
X113157000Y-96143000D02*
X114808000Y-96143000D01*
X110785000Y-101557000D02*
X110785000Y-97200000D01*
X109728000Y-96143000D02*
X108458000Y-96143000D01*
X110785000Y-97200000D02*
X109728000Y-96143000D01*
X107907000Y-101557000D02*
X106680000Y-100330000D01*
X109485000Y-101557000D02*
X107907000Y-101557000D01*
D54*
X149225000Y-151130000D02*
X150495000Y-152400000D01*
X139700000Y-151765000D02*
X139700000Y-148590000D01*
X149225000Y-148590000D02*
X149225000Y-151130000D01*
X139065000Y-152400000D02*
X139700000Y-151765000D01*
X139700000Y-148590000D02*
X140970000Y-147320000D01*
X150495000Y-152400000D02*
X153670000Y-152400000D01*
X140970000Y-147320000D02*
X147955000Y-147320000D01*
X125730000Y-152400000D02*
X139065000Y-152400000D01*
X125730000Y-152146000D02*
X125730000Y-152400000D01*
X116205000Y-142621000D02*
X125730000Y-152146000D01*
X147955000Y-147320000D02*
X149225000Y-148590000D01*
X130175000Y-132715000D02*
X130048000Y-132588000D01*
X115951000Y-132588000D02*
X130048000Y-132588000D01*
X139065000Y-142240000D02*
X159385000Y-142240000D01*
X137160000Y-132715000D02*
X137160000Y-140335000D01*
X159385000Y-142240000D02*
X161290000Y-144145000D01*
X161290000Y-144145000D02*
X161290000Y-149860000D01*
X137160000Y-140335000D02*
X139065000Y-142240000D01*
X166370000Y-149733000D02*
X165227000Y-149733000D01*
X164465000Y-148971000D02*
X164465000Y-147955000D01*
X165227000Y-149733000D02*
X164465000Y-148971000D01*
D51*
X123825000Y-81915000D02*
X140970000Y-81915000D01*
X128300000Y-120650000D02*
X123190000Y-120650000D01*
D54*
X71297800Y-97490000D02*
X76073000Y-97490000D01*
X139065000Y-105110000D02*
X143687800Y-105110000D01*
D51*
X69088000Y-149606000D02*
X60263500Y-149606000D01*
D55*
X139700000Y-101790000D02*
X138620000Y-101790000D01*
X140480000Y-102570000D02*
X139700000Y-101790000D01*
X138620000Y-101790000D02*
X137795000Y-100965000D01*
X143687800Y-102570000D02*
X140480000Y-102570000D01*
X137795000Y-100965000D02*
X137795000Y-95885000D01*
X80645000Y-99695000D02*
X81915000Y-98425000D01*
X81915000Y-95250000D02*
X83185000Y-93980000D01*
X74820000Y-100030000D02*
X74930000Y-100140000D01*
X76200000Y-99695000D02*
X80645000Y-99695000D01*
X90170000Y-85725000D02*
X91440000Y-84455000D01*
X75755000Y-100140000D02*
X76200000Y-99695000D01*
X86360000Y-85725000D02*
X90170000Y-85725000D01*
X81915000Y-98425000D02*
X81915000Y-95250000D01*
X83185000Y-93980000D02*
X83185000Y-88900000D01*
X91440000Y-84455000D02*
X91440000Y-79375000D01*
X83185000Y-88900000D02*
X86360000Y-85725000D01*
X74930000Y-100140000D02*
X75755000Y-100140000D01*
X71297800Y-100030000D02*
X74820000Y-100030000D01*
M02*
