G04 #@! TF.GenerationSoftware,KiCad,Pcbnew,8.0.4*
G04 #@! TF.CreationDate,2024-08-16T09:30:41-05:00*
G04 #@! TF.ProjectId,MotorBoardv3_2,4d6f746f-7242-46f6-9172-6476335f322e,V2.0.2b*
G04 #@! TF.SameCoordinates,Original*
G04 #@! TF.FileFunction,Soldermask,Bot*
G04 #@! TF.FilePolarity,Negative*
%FSLAX46Y46*%
G04 Gerber Fmt 4.6, Leading zero omitted, Abs format (unit mm)*
G04 Created by KiCad (PCBNEW 8.0.4) date 2024-08-16 09:30:41*
%MOMM*%
%LPD*%
G01*
G04 APERTURE LIST*
G04 Aperture macros list*
%AMHorizOval*
0 Thick line with rounded ends*
0 $1 width*
0 $2 $3 position (X,Y) of the first rounded end (center of the circle)*
0 $4 $5 position (X,Y) of the second rounded end (center of the circle)*
0 Add line between two ends*
20,1,$1,$2,$3,$4,$5,0*
0 Add two circle primitives to create the rounded ends*
1,1,$1,$2,$3*
1,1,$1,$4,$5*%
%AMRotRect*
0 Rectangle, with rotation*
0 The origin of the aperture is its center*
0 $1 length*
0 $2 width*
0 $3 Rotation angle, in degrees counterclockwise*
0 Add horizontal line*
21,1,$1,$2,0,0,$3*%
G04 Aperture macros list end*
%ADD10C,3.175000*%
%ADD11R,1.700000X1.700000*%
%ADD12O,1.700000X1.700000*%
%ADD13C,1.700000*%
%ADD14HorizOval,2.032000X0.088213X-0.500282X-0.088213X0.500282X0*%
%ADD15HorizOval,1.778000X0.110267X-0.625353X-0.110267X0.625353X0*%
%ADD16HorizOval,1.778000X0.253613X-1.438312X-0.253613X1.438312X0*%
%ADD17RotRect,1.350000X1.350000X135.000000*%
%ADD18C,1.350000*%
%ADD19R,2.775000X2.775000*%
%ADD20C,2.775000*%
%ADD21RotRect,1.350000X1.350000X225.000000*%
%ADD22HorizOval,2.032000X0.359210X-0.359210X-0.359210X0.359210X0*%
%ADD23HorizOval,1.778000X0.449013X-0.449013X-0.449013X0.449013X0*%
%ADD24HorizOval,1.778000X1.032729X-1.032729X-1.032729X1.032729X0*%
%ADD25R,1.000000X1.000000*%
%ADD26O,1.000000X1.000000*%
%ADD27C,3.048000*%
%ADD28O,3.048000X7.366000*%
%ADD29R,1.350000X1.350000*%
%ADD30R,1.778000X1.778000*%
%ADD31C,1.778000*%
%ADD32HorizOval,2.032000X-0.359210X-0.359210X0.359210X0.359210X0*%
%ADD33HorizOval,1.778000X-0.449013X-0.449013X0.449013X0.449013X0*%
%ADD34HorizOval,1.778000X-1.032729X-1.032729X1.032729X1.032729X0*%
%ADD35HorizOval,2.032000X-0.088213X-0.500282X0.088213X0.500282X0*%
%ADD36HorizOval,1.778000X-0.110267X-0.625353X0.110267X0.625353X0*%
%ADD37HorizOval,1.778000X-0.253613X-1.438312X0.253613X1.438312X0*%
G04 APERTURE END LIST*
D10*
X149860000Y-43180000D03*
X139700000Y-43180000D03*
X68580000Y-43180000D03*
X78740000Y-43180000D03*
D11*
X128905000Y-79375000D03*
D12*
X126365000Y-79375000D03*
D11*
X93980000Y-79375000D03*
D12*
X91440000Y-79375000D03*
D10*
X160020000Y-58420000D03*
D13*
X72517000Y-116586000D03*
D11*
X69088000Y-147066000D03*
D12*
X69088000Y-149606000D03*
D14*
X90131412Y-27752934D03*
D15*
X80125765Y-29517199D03*
D16*
X85128588Y-28635066D03*
X93794899Y-27106962D03*
X77939492Y-29902698D03*
D10*
X114300000Y-50800000D03*
D13*
X78740000Y-129794000D03*
D10*
X68580000Y-58420000D03*
X73660000Y-50800000D03*
D17*
X146050000Y-63500000D03*
D18*
X144635786Y-62085786D03*
X143221573Y-60671573D03*
D13*
X68961000Y-142499000D03*
D12*
X68961000Y-139959000D03*
D13*
X106680000Y-100330000D03*
D10*
X88900000Y-43180000D03*
D13*
X143002000Y-78359000D03*
D19*
X50863500Y-149606000D03*
D20*
X55563500Y-149606000D03*
X60263500Y-149606000D03*
D11*
X116205000Y-140081000D03*
D12*
X116205000Y-142621000D03*
X116205000Y-145161000D03*
D13*
X52705000Y-66040000D03*
X140208000Y-78486000D03*
D10*
X144780000Y-50800000D03*
X134620000Y-50800000D03*
X83820000Y-50800000D03*
X104140000Y-50800000D03*
X119380000Y-43180000D03*
D21*
X73768949Y-60914872D03*
D18*
X72354735Y-62329086D03*
X70940522Y-63743299D03*
D13*
X52705000Y-74295000D03*
D22*
X59200051Y-42399949D03*
D23*
X52015846Y-49584154D03*
D24*
X55607949Y-45992051D03*
X61830488Y-39769512D03*
X50446069Y-51153931D03*
D10*
X124460000Y-50800000D03*
X63500000Y-50800000D03*
D13*
X139065000Y-105048000D03*
D25*
X165608000Y-67818000D03*
D26*
X165608000Y-69068000D03*
X165608000Y-70318000D03*
X165608000Y-71568000D03*
X165608000Y-72818000D03*
X165608000Y-74068000D03*
D11*
X148463000Y-115570000D03*
D12*
X145923000Y-115570000D03*
D11*
X115951000Y-130048000D03*
D12*
X115951000Y-132588000D03*
X115951000Y-135128000D03*
D13*
X68580000Y-122555000D03*
D12*
X71120000Y-122555000D03*
D10*
X99060000Y-43180000D03*
X58420000Y-58420000D03*
D11*
X136525000Y-147955000D03*
D12*
X136525000Y-150495000D03*
D27*
X63500000Y-142250000D03*
X123500000Y-142250000D03*
X148500000Y-86050000D03*
X68500000Y-86050000D03*
D28*
X55500000Y-137450000D03*
X55500000Y-122450000D03*
X80500000Y-105850000D03*
X80500000Y-90850000D03*
D11*
X71297800Y-94950000D03*
D12*
X71297800Y-97490000D03*
X71297800Y-100030000D03*
X71297800Y-102570000D03*
X71297800Y-105110000D03*
X71297800Y-107650000D03*
D11*
X143687800Y-107650000D03*
D12*
X143687800Y-105110000D03*
X143687800Y-102570000D03*
X143687800Y-100030000D03*
X143687800Y-97490000D03*
D13*
X143687800Y-94950000D03*
D10*
X149860000Y-58420000D03*
X129540000Y-43180000D03*
D29*
X110490000Y-57785000D03*
D18*
X108490000Y-57785000D03*
X106490000Y-57785000D03*
D10*
X74930000Y-151130000D03*
D30*
X151765000Y-120650000D03*
D31*
X154305000Y-120650000D03*
X156845000Y-120650000D03*
X159385000Y-120650000D03*
D30*
X151765000Y-118110000D03*
D31*
X154305000Y-118110000D03*
X156845000Y-118110000D03*
X159385000Y-118110000D03*
D11*
X153670000Y-152400000D03*
D12*
X156210000Y-152400000D03*
X158750000Y-152400000D03*
X161290000Y-152400000D03*
X161290000Y-149860000D03*
X158750000Y-149860000D03*
X156210000Y-149860000D03*
X153670000Y-149860000D03*
D13*
X76073000Y-116586000D03*
D11*
X164211000Y-81407000D03*
D12*
X166751000Y-81407000D03*
D10*
X143510000Y-151130000D03*
X93980000Y-50800000D03*
D13*
X76073000Y-97536000D03*
X53340000Y-129940000D03*
D10*
X109220000Y-43180000D03*
D13*
X50673000Y-139827000D03*
D12*
X50673000Y-137287000D03*
D10*
X154940000Y-50800000D03*
D13*
X75184000Y-122555000D03*
X52070000Y-80010000D03*
D12*
X54610000Y-80010000D03*
D32*
X158223949Y-42399949D03*
D33*
X165408154Y-49584154D03*
D34*
X161816051Y-45992051D03*
X155593512Y-39769512D03*
X166977931Y-51153931D03*
D35*
X128333988Y-27752934D03*
D36*
X138339635Y-29517199D03*
D37*
X133336812Y-28635066D03*
X124670501Y-27106962D03*
X140525908Y-29902698D03*
M02*
