G04 #@! TF.GenerationSoftware,KiCad,Pcbnew,8.0.4*
G04 #@! TF.CreationDate,2024-08-16T09:30:41-05:00*
G04 #@! TF.ProjectId,MotorBoardv3_2,4d6f746f-7242-46f6-9172-6476335f322e,V2.0.2b*
G04 #@! TF.SameCoordinates,Original*
G04 #@! TF.FileFunction,Legend,Bot*
G04 #@! TF.FilePolarity,Positive*
%FSLAX46Y46*%
G04 Gerber Fmt 4.6, Leading zero omitted, Abs format (unit mm)*
G04 Created by KiCad (PCBNEW 8.0.4) date 2024-08-16 09:30:41*
%MOMM*%
%LPD*%
G01*
G04 APERTURE LIST*
G04 Aperture macros list*
%AMHorizOval*
0 Thick line with rounded ends*
0 $1 width*
0 $2 $3 position (X,Y) of the first rounded end (center of the circle)*
0 $4 $5 position (X,Y) of the second rounded end (center of the circle)*
0 Add line between two ends*
20,1,$1,$2,$3,$4,$5,0*
0 Add two circle primitives to create the rounded ends*
1,1,$1,$2,$3*
1,1,$1,$4,$5*%
%AMRotRect*
0 Rectangle, with rotation*
0 The origin of the aperture is its center*
0 $1 length*
0 $2 width*
0 $3 Rotation angle, in degrees counterclockwise*
0 Add horizontal line*
21,1,$1,$2,0,0,$3*%
G04 Aperture macros list end*
%ADD10C,0.150000*%
%ADD11C,0.300000*%
%ADD12C,0.120000*%
%ADD13C,3.175000*%
%ADD14R,1.700000X1.700000*%
%ADD15O,1.700000X1.700000*%
%ADD16C,1.700000*%
%ADD17HorizOval,2.032000X0.088213X-0.500282X-0.088213X0.500282X0*%
%ADD18HorizOval,1.778000X0.110267X-0.625353X-0.110267X0.625353X0*%
%ADD19HorizOval,1.778000X0.253613X-1.438312X-0.253613X1.438312X0*%
%ADD20RotRect,1.350000X1.350000X135.000000*%
%ADD21C,1.350000*%
%ADD22R,2.775000X2.775000*%
%ADD23C,2.775000*%
%ADD24RotRect,1.350000X1.350000X225.000000*%
%ADD25HorizOval,2.032000X0.359210X-0.359210X-0.359210X0.359210X0*%
%ADD26HorizOval,1.778000X0.449013X-0.449013X-0.449013X0.449013X0*%
%ADD27HorizOval,1.778000X1.032729X-1.032729X-1.032729X1.032729X0*%
%ADD28R,1.000000X1.000000*%
%ADD29O,1.000000X1.000000*%
%ADD30C,3.048000*%
%ADD31O,3.048000X7.366000*%
%ADD32R,1.350000X1.350000*%
%ADD33R,1.778000X1.778000*%
%ADD34C,1.778000*%
%ADD35HorizOval,2.032000X-0.359210X-0.359210X0.359210X0.359210X0*%
%ADD36HorizOval,1.778000X-0.449013X-0.449013X0.449013X0.449013X0*%
%ADD37HorizOval,1.778000X-1.032729X-1.032729X1.032729X1.032729X0*%
%ADD38HorizOval,2.032000X-0.088213X-0.500282X0.088213X0.500282X0*%
%ADD39HorizOval,1.778000X-0.110267X-0.625353X0.110267X0.625353X0*%
%ADD40HorizOval,1.778000X-0.253613X-1.438312X0.253613X1.438312X0*%
G04 APERTURE END LIST*
D10*
X58049438Y-121666095D02*
X58001819Y-121570857D01*
X58001819Y-121570857D02*
X58001819Y-121428000D01*
X58001819Y-121428000D02*
X58049438Y-121285143D01*
X58049438Y-121285143D02*
X58144676Y-121189905D01*
X58144676Y-121189905D02*
X58239914Y-121142286D01*
X58239914Y-121142286D02*
X58430390Y-121094667D01*
X58430390Y-121094667D02*
X58573247Y-121094667D01*
X58573247Y-121094667D02*
X58763723Y-121142286D01*
X58763723Y-121142286D02*
X58858961Y-121189905D01*
X58858961Y-121189905D02*
X58954200Y-121285143D01*
X58954200Y-121285143D02*
X59001819Y-121428000D01*
X59001819Y-121428000D02*
X59001819Y-121523238D01*
X59001819Y-121523238D02*
X58954200Y-121666095D01*
X58954200Y-121666095D02*
X58906580Y-121713714D01*
X58906580Y-121713714D02*
X58573247Y-121713714D01*
X58573247Y-121713714D02*
X58573247Y-121523238D01*
X59001819Y-122142286D02*
X58001819Y-122142286D01*
X58001819Y-122142286D02*
X59001819Y-122713714D01*
X59001819Y-122713714D02*
X58001819Y-122713714D01*
X59001819Y-123189905D02*
X58001819Y-123189905D01*
X58001819Y-123189905D02*
X58001819Y-123428000D01*
X58001819Y-123428000D02*
X58049438Y-123570857D01*
X58049438Y-123570857D02*
X58144676Y-123666095D01*
X58144676Y-123666095D02*
X58239914Y-123713714D01*
X58239914Y-123713714D02*
X58430390Y-123761333D01*
X58430390Y-123761333D02*
X58573247Y-123761333D01*
X58573247Y-123761333D02*
X58763723Y-123713714D01*
X58763723Y-123713714D02*
X58858961Y-123666095D01*
X58858961Y-123666095D02*
X58954200Y-123570857D01*
X58954200Y-123570857D02*
X59001819Y-123428000D01*
X59001819Y-123428000D02*
X59001819Y-123189905D01*
X66512887Y-43923009D02*
X66370030Y-43970628D01*
X66370030Y-43970628D02*
X66322411Y-44018247D01*
X66322411Y-44018247D02*
X66274792Y-44113485D01*
X66274792Y-44113485D02*
X66274792Y-44256342D01*
X66274792Y-44256342D02*
X66322411Y-44351580D01*
X66322411Y-44351580D02*
X66370030Y-44399200D01*
X66370030Y-44399200D02*
X66465268Y-44446819D01*
X66465268Y-44446819D02*
X66846220Y-44446819D01*
X66846220Y-44446819D02*
X66846220Y-43446819D01*
X66846220Y-43446819D02*
X66512887Y-43446819D01*
X66512887Y-43446819D02*
X66417649Y-43494438D01*
X66417649Y-43494438D02*
X66370030Y-43542057D01*
X66370030Y-43542057D02*
X66322411Y-43637295D01*
X66322411Y-43637295D02*
X66322411Y-43732533D01*
X66322411Y-43732533D02*
X66370030Y-43827771D01*
X66370030Y-43827771D02*
X66417649Y-43875390D01*
X66417649Y-43875390D02*
X66512887Y-43923009D01*
X66512887Y-43923009D02*
X66846220Y-43923009D01*
X65417649Y-43780152D02*
X65417649Y-44446819D01*
X65846220Y-43780152D02*
X65846220Y-44303961D01*
X65846220Y-44303961D02*
X65798601Y-44399200D01*
X65798601Y-44399200D02*
X65703363Y-44446819D01*
X65703363Y-44446819D02*
X65560506Y-44446819D01*
X65560506Y-44446819D02*
X65465268Y-44399200D01*
X65465268Y-44399200D02*
X65417649Y-44351580D01*
X64941458Y-44446819D02*
X64941458Y-43780152D01*
X64941458Y-43875390D02*
X64893839Y-43827771D01*
X64893839Y-43827771D02*
X64798601Y-43780152D01*
X64798601Y-43780152D02*
X64655744Y-43780152D01*
X64655744Y-43780152D02*
X64560506Y-43827771D01*
X64560506Y-43827771D02*
X64512887Y-43923009D01*
X64512887Y-43923009D02*
X64512887Y-44446819D01*
X64512887Y-43923009D02*
X64465268Y-43827771D01*
X64465268Y-43827771D02*
X64370030Y-43780152D01*
X64370030Y-43780152D02*
X64227173Y-43780152D01*
X64227173Y-43780152D02*
X64131934Y-43827771D01*
X64131934Y-43827771D02*
X64084315Y-43923009D01*
X64084315Y-43923009D02*
X64084315Y-44446819D01*
X63608125Y-43780152D02*
X63608125Y-44780152D01*
X63608125Y-43827771D02*
X63512887Y-43780152D01*
X63512887Y-43780152D02*
X63322411Y-43780152D01*
X63322411Y-43780152D02*
X63227173Y-43827771D01*
X63227173Y-43827771D02*
X63179554Y-43875390D01*
X63179554Y-43875390D02*
X63131935Y-43970628D01*
X63131935Y-43970628D02*
X63131935Y-44256342D01*
X63131935Y-44256342D02*
X63179554Y-44351580D01*
X63179554Y-44351580D02*
X63227173Y-44399200D01*
X63227173Y-44399200D02*
X63322411Y-44446819D01*
X63322411Y-44446819D02*
X63512887Y-44446819D01*
X63512887Y-44446819D02*
X63608125Y-44399200D01*
X62512887Y-43446819D02*
X62417649Y-43446819D01*
X62417649Y-43446819D02*
X62322411Y-43494438D01*
X62322411Y-43494438D02*
X62274792Y-43542057D01*
X62274792Y-43542057D02*
X62227173Y-43637295D01*
X62227173Y-43637295D02*
X62179554Y-43827771D01*
X62179554Y-43827771D02*
X62179554Y-44065866D01*
X62179554Y-44065866D02*
X62227173Y-44256342D01*
X62227173Y-44256342D02*
X62274792Y-44351580D01*
X62274792Y-44351580D02*
X62322411Y-44399200D01*
X62322411Y-44399200D02*
X62417649Y-44446819D01*
X62417649Y-44446819D02*
X62512887Y-44446819D01*
X62512887Y-44446819D02*
X62608125Y-44399200D01*
X62608125Y-44399200D02*
X62655744Y-44351580D01*
X62655744Y-44351580D02*
X62703363Y-44256342D01*
X62703363Y-44256342D02*
X62750982Y-44065866D01*
X62750982Y-44065866D02*
X62750982Y-43827771D01*
X62750982Y-43827771D02*
X62703363Y-43637295D01*
X62703363Y-43637295D02*
X62655744Y-43542057D01*
X62655744Y-43542057D02*
X62608125Y-43494438D01*
X62608125Y-43494438D02*
X62512887Y-43446819D01*
D11*
X117515774Y-148795828D02*
X117015774Y-150295828D01*
X117015774Y-150295828D02*
X116515774Y-148795828D01*
X115372918Y-150295828D02*
X115372918Y-149510114D01*
X115372918Y-149510114D02*
X115444346Y-149367257D01*
X115444346Y-149367257D02*
X115587203Y-149295828D01*
X115587203Y-149295828D02*
X115872918Y-149295828D01*
X115872918Y-149295828D02*
X116015775Y-149367257D01*
X115372918Y-150224400D02*
X115515775Y-150295828D01*
X115515775Y-150295828D02*
X115872918Y-150295828D01*
X115872918Y-150295828D02*
X116015775Y-150224400D01*
X116015775Y-150224400D02*
X116087203Y-150081542D01*
X116087203Y-150081542D02*
X116087203Y-149938685D01*
X116087203Y-149938685D02*
X116015775Y-149795828D01*
X116015775Y-149795828D02*
X115872918Y-149724400D01*
X115872918Y-149724400D02*
X115515775Y-149724400D01*
X115515775Y-149724400D02*
X115372918Y-149652971D01*
X114444346Y-150295828D02*
X114587203Y-150224400D01*
X114587203Y-150224400D02*
X114658632Y-150081542D01*
X114658632Y-150081542D02*
X114658632Y-148795828D01*
X114015775Y-149295828D02*
X113658632Y-150295828D01*
X113658632Y-150295828D02*
X113301489Y-149295828D01*
X112087204Y-150295828D02*
X112087204Y-149510114D01*
X112087204Y-149510114D02*
X112158632Y-149367257D01*
X112158632Y-149367257D02*
X112301489Y-149295828D01*
X112301489Y-149295828D02*
X112587204Y-149295828D01*
X112587204Y-149295828D02*
X112730061Y-149367257D01*
X112087204Y-150224400D02*
X112230061Y-150295828D01*
X112230061Y-150295828D02*
X112587204Y-150295828D01*
X112587204Y-150295828D02*
X112730061Y-150224400D01*
X112730061Y-150224400D02*
X112801489Y-150081542D01*
X112801489Y-150081542D02*
X112801489Y-149938685D01*
X112801489Y-149938685D02*
X112730061Y-149795828D01*
X112730061Y-149795828D02*
X112587204Y-149724400D01*
X112587204Y-149724400D02*
X112230061Y-149724400D01*
X112230061Y-149724400D02*
X112087204Y-149652971D01*
X111372918Y-149295828D02*
X111372918Y-150295828D01*
X111372918Y-149438685D02*
X111301489Y-149367257D01*
X111301489Y-149367257D02*
X111158632Y-149295828D01*
X111158632Y-149295828D02*
X110944346Y-149295828D01*
X110944346Y-149295828D02*
X110801489Y-149367257D01*
X110801489Y-149367257D02*
X110730061Y-149510114D01*
X110730061Y-149510114D02*
X110730061Y-150295828D01*
X109801489Y-150295828D02*
X109944346Y-150224400D01*
X109944346Y-150224400D02*
X110015775Y-150152971D01*
X110015775Y-150152971D02*
X110087203Y-150010114D01*
X110087203Y-150010114D02*
X110087203Y-149581542D01*
X110087203Y-149581542D02*
X110015775Y-149438685D01*
X110015775Y-149438685D02*
X109944346Y-149367257D01*
X109944346Y-149367257D02*
X109801489Y-149295828D01*
X109801489Y-149295828D02*
X109587203Y-149295828D01*
X109587203Y-149295828D02*
X109444346Y-149367257D01*
X109444346Y-149367257D02*
X109372918Y-149438685D01*
X109372918Y-149438685D02*
X109301489Y-149581542D01*
X109301489Y-149581542D02*
X109301489Y-150010114D01*
X109301489Y-150010114D02*
X109372918Y-150152971D01*
X109372918Y-150152971D02*
X109444346Y-150224400D01*
X109444346Y-150224400D02*
X109587203Y-150295828D01*
X109587203Y-150295828D02*
X109801489Y-150295828D01*
X107587203Y-148724400D02*
X108872917Y-150652971D01*
X107301488Y-148795828D02*
X106801488Y-150295828D01*
X106801488Y-150295828D02*
X106301488Y-148795828D01*
X105158632Y-150295828D02*
X105158632Y-149510114D01*
X105158632Y-149510114D02*
X105230060Y-149367257D01*
X105230060Y-149367257D02*
X105372917Y-149295828D01*
X105372917Y-149295828D02*
X105658632Y-149295828D01*
X105658632Y-149295828D02*
X105801489Y-149367257D01*
X105158632Y-150224400D02*
X105301489Y-150295828D01*
X105301489Y-150295828D02*
X105658632Y-150295828D01*
X105658632Y-150295828D02*
X105801489Y-150224400D01*
X105801489Y-150224400D02*
X105872917Y-150081542D01*
X105872917Y-150081542D02*
X105872917Y-149938685D01*
X105872917Y-149938685D02*
X105801489Y-149795828D01*
X105801489Y-149795828D02*
X105658632Y-149724400D01*
X105658632Y-149724400D02*
X105301489Y-149724400D01*
X105301489Y-149724400D02*
X105158632Y-149652971D01*
X104230060Y-150295828D02*
X104372917Y-150224400D01*
X104372917Y-150224400D02*
X104444346Y-150081542D01*
X104444346Y-150081542D02*
X104444346Y-148795828D01*
X103801489Y-149295828D02*
X103444346Y-150295828D01*
X103444346Y-150295828D02*
X103087203Y-149295828D01*
X101872918Y-150295828D02*
X101872918Y-149510114D01*
X101872918Y-149510114D02*
X101944346Y-149367257D01*
X101944346Y-149367257D02*
X102087203Y-149295828D01*
X102087203Y-149295828D02*
X102372918Y-149295828D01*
X102372918Y-149295828D02*
X102515775Y-149367257D01*
X101872918Y-150224400D02*
X102015775Y-150295828D01*
X102015775Y-150295828D02*
X102372918Y-150295828D01*
X102372918Y-150295828D02*
X102515775Y-150224400D01*
X102515775Y-150224400D02*
X102587203Y-150081542D01*
X102587203Y-150081542D02*
X102587203Y-149938685D01*
X102587203Y-149938685D02*
X102515775Y-149795828D01*
X102515775Y-149795828D02*
X102372918Y-149724400D01*
X102372918Y-149724400D02*
X102015775Y-149724400D01*
X102015775Y-149724400D02*
X101872918Y-149652971D01*
X101158632Y-149295828D02*
X101158632Y-150295828D01*
X101158632Y-149438685D02*
X101087203Y-149367257D01*
X101087203Y-149367257D02*
X100944346Y-149295828D01*
X100944346Y-149295828D02*
X100730060Y-149295828D01*
X100730060Y-149295828D02*
X100587203Y-149367257D01*
X100587203Y-149367257D02*
X100515775Y-149510114D01*
X100515775Y-149510114D02*
X100515775Y-150295828D01*
X99587203Y-150295828D02*
X99730060Y-150224400D01*
X99730060Y-150224400D02*
X99801489Y-150152971D01*
X99801489Y-150152971D02*
X99872917Y-150010114D01*
X99872917Y-150010114D02*
X99872917Y-149581542D01*
X99872917Y-149581542D02*
X99801489Y-149438685D01*
X99801489Y-149438685D02*
X99730060Y-149367257D01*
X99730060Y-149367257D02*
X99587203Y-149295828D01*
X99587203Y-149295828D02*
X99372917Y-149295828D01*
X99372917Y-149295828D02*
X99230060Y-149367257D01*
X99230060Y-149367257D02*
X99158632Y-149438685D01*
X99158632Y-149438685D02*
X99087203Y-149581542D01*
X99087203Y-149581542D02*
X99087203Y-150010114D01*
X99087203Y-150010114D02*
X99158632Y-150152971D01*
X99158632Y-150152971D02*
X99230060Y-150224400D01*
X99230060Y-150224400D02*
X99372917Y-150295828D01*
X99372917Y-150295828D02*
X99587203Y-150295828D01*
D10*
X92928887Y-31604009D02*
X92786030Y-31651628D01*
X92786030Y-31651628D02*
X92738411Y-31699247D01*
X92738411Y-31699247D02*
X92690792Y-31794485D01*
X92690792Y-31794485D02*
X92690792Y-31937342D01*
X92690792Y-31937342D02*
X92738411Y-32032580D01*
X92738411Y-32032580D02*
X92786030Y-32080200D01*
X92786030Y-32080200D02*
X92881268Y-32127819D01*
X92881268Y-32127819D02*
X93262220Y-32127819D01*
X93262220Y-32127819D02*
X93262220Y-31127819D01*
X93262220Y-31127819D02*
X92928887Y-31127819D01*
X92928887Y-31127819D02*
X92833649Y-31175438D01*
X92833649Y-31175438D02*
X92786030Y-31223057D01*
X92786030Y-31223057D02*
X92738411Y-31318295D01*
X92738411Y-31318295D02*
X92738411Y-31413533D01*
X92738411Y-31413533D02*
X92786030Y-31508771D01*
X92786030Y-31508771D02*
X92833649Y-31556390D01*
X92833649Y-31556390D02*
X92928887Y-31604009D01*
X92928887Y-31604009D02*
X93262220Y-31604009D01*
X91833649Y-31461152D02*
X91833649Y-32127819D01*
X92262220Y-31461152D02*
X92262220Y-31984961D01*
X92262220Y-31984961D02*
X92214601Y-32080200D01*
X92214601Y-32080200D02*
X92119363Y-32127819D01*
X92119363Y-32127819D02*
X91976506Y-32127819D01*
X91976506Y-32127819D02*
X91881268Y-32080200D01*
X91881268Y-32080200D02*
X91833649Y-32032580D01*
X91357458Y-32127819D02*
X91357458Y-31461152D01*
X91357458Y-31556390D02*
X91309839Y-31508771D01*
X91309839Y-31508771D02*
X91214601Y-31461152D01*
X91214601Y-31461152D02*
X91071744Y-31461152D01*
X91071744Y-31461152D02*
X90976506Y-31508771D01*
X90976506Y-31508771D02*
X90928887Y-31604009D01*
X90928887Y-31604009D02*
X90928887Y-32127819D01*
X90928887Y-31604009D02*
X90881268Y-31508771D01*
X90881268Y-31508771D02*
X90786030Y-31461152D01*
X90786030Y-31461152D02*
X90643173Y-31461152D01*
X90643173Y-31461152D02*
X90547934Y-31508771D01*
X90547934Y-31508771D02*
X90500315Y-31604009D01*
X90500315Y-31604009D02*
X90500315Y-32127819D01*
X90024125Y-31461152D02*
X90024125Y-32461152D01*
X90024125Y-31508771D02*
X89928887Y-31461152D01*
X89928887Y-31461152D02*
X89738411Y-31461152D01*
X89738411Y-31461152D02*
X89643173Y-31508771D01*
X89643173Y-31508771D02*
X89595554Y-31556390D01*
X89595554Y-31556390D02*
X89547935Y-31651628D01*
X89547935Y-31651628D02*
X89547935Y-31937342D01*
X89547935Y-31937342D02*
X89595554Y-32032580D01*
X89595554Y-32032580D02*
X89643173Y-32080200D01*
X89643173Y-32080200D02*
X89738411Y-32127819D01*
X89738411Y-32127819D02*
X89928887Y-32127819D01*
X89928887Y-32127819D02*
X90024125Y-32080200D01*
X88595554Y-32127819D02*
X89166982Y-32127819D01*
X88881268Y-32127819D02*
X88881268Y-31127819D01*
X88881268Y-31127819D02*
X88976506Y-31270676D01*
X88976506Y-31270676D02*
X89071744Y-31365914D01*
X89071744Y-31365914D02*
X89166982Y-31413533D01*
X83624009Y-88701857D02*
X83671628Y-88844714D01*
X83671628Y-88844714D02*
X83719247Y-88892333D01*
X83719247Y-88892333D02*
X83814485Y-88939952D01*
X83814485Y-88939952D02*
X83957342Y-88939952D01*
X83957342Y-88939952D02*
X84052580Y-88892333D01*
X84052580Y-88892333D02*
X84100200Y-88844714D01*
X84100200Y-88844714D02*
X84147819Y-88749476D01*
X84147819Y-88749476D02*
X84147819Y-88368524D01*
X84147819Y-88368524D02*
X83147819Y-88368524D01*
X83147819Y-88368524D02*
X83147819Y-88701857D01*
X83147819Y-88701857D02*
X83195438Y-88797095D01*
X83195438Y-88797095D02*
X83243057Y-88844714D01*
X83243057Y-88844714D02*
X83338295Y-88892333D01*
X83338295Y-88892333D02*
X83433533Y-88892333D01*
X83433533Y-88892333D02*
X83528771Y-88844714D01*
X83528771Y-88844714D02*
X83576390Y-88797095D01*
X83576390Y-88797095D02*
X83624009Y-88701857D01*
X83624009Y-88701857D02*
X83624009Y-88368524D01*
X83862104Y-89320905D02*
X83862104Y-89797095D01*
X84147819Y-89225667D02*
X83147819Y-89559000D01*
X83147819Y-89559000D02*
X84147819Y-89892333D01*
X83147819Y-90082810D02*
X83147819Y-90654238D01*
X84147819Y-90368524D02*
X83147819Y-90368524D01*
X83481152Y-91416143D02*
X84147819Y-91416143D01*
X83100200Y-91178048D02*
X83814485Y-90939953D01*
X83814485Y-90939953D02*
X83814485Y-91559000D01*
X84052580Y-91939953D02*
X84100200Y-91987572D01*
X84100200Y-91987572D02*
X84147819Y-91939953D01*
X84147819Y-91939953D02*
X84100200Y-91892334D01*
X84100200Y-91892334D02*
X84052580Y-91939953D01*
X84052580Y-91939953D02*
X84147819Y-91939953D01*
X83576390Y-92559000D02*
X83528771Y-92463762D01*
X83528771Y-92463762D02*
X83481152Y-92416143D01*
X83481152Y-92416143D02*
X83385914Y-92368524D01*
X83385914Y-92368524D02*
X83338295Y-92368524D01*
X83338295Y-92368524D02*
X83243057Y-92416143D01*
X83243057Y-92416143D02*
X83195438Y-92463762D01*
X83195438Y-92463762D02*
X83147819Y-92559000D01*
X83147819Y-92559000D02*
X83147819Y-92749476D01*
X83147819Y-92749476D02*
X83195438Y-92844714D01*
X83195438Y-92844714D02*
X83243057Y-92892333D01*
X83243057Y-92892333D02*
X83338295Y-92939952D01*
X83338295Y-92939952D02*
X83385914Y-92939952D01*
X83385914Y-92939952D02*
X83481152Y-92892333D01*
X83481152Y-92892333D02*
X83528771Y-92844714D01*
X83528771Y-92844714D02*
X83576390Y-92749476D01*
X83576390Y-92749476D02*
X83576390Y-92559000D01*
X83576390Y-92559000D02*
X83624009Y-92463762D01*
X83624009Y-92463762D02*
X83671628Y-92416143D01*
X83671628Y-92416143D02*
X83766866Y-92368524D01*
X83766866Y-92368524D02*
X83957342Y-92368524D01*
X83957342Y-92368524D02*
X84052580Y-92416143D01*
X84052580Y-92416143D02*
X84100200Y-92463762D01*
X84100200Y-92463762D02*
X84147819Y-92559000D01*
X84147819Y-92559000D02*
X84147819Y-92749476D01*
X84147819Y-92749476D02*
X84100200Y-92844714D01*
X84100200Y-92844714D02*
X84052580Y-92892333D01*
X84052580Y-92892333D02*
X83957342Y-92939952D01*
X83957342Y-92939952D02*
X83766866Y-92939952D01*
X83766866Y-92939952D02*
X83671628Y-92892333D01*
X83671628Y-92892333D02*
X83624009Y-92844714D01*
X83624009Y-92844714D02*
X83576390Y-92749476D01*
X83147819Y-93225667D02*
X84147819Y-93559000D01*
X84147819Y-93559000D02*
X83147819Y-93892333D01*
X58224009Y-135564857D02*
X58271628Y-135707714D01*
X58271628Y-135707714D02*
X58319247Y-135755333D01*
X58319247Y-135755333D02*
X58414485Y-135802952D01*
X58414485Y-135802952D02*
X58557342Y-135802952D01*
X58557342Y-135802952D02*
X58652580Y-135755333D01*
X58652580Y-135755333D02*
X58700200Y-135707714D01*
X58700200Y-135707714D02*
X58747819Y-135612476D01*
X58747819Y-135612476D02*
X58747819Y-135231524D01*
X58747819Y-135231524D02*
X57747819Y-135231524D01*
X57747819Y-135231524D02*
X57747819Y-135564857D01*
X57747819Y-135564857D02*
X57795438Y-135660095D01*
X57795438Y-135660095D02*
X57843057Y-135707714D01*
X57843057Y-135707714D02*
X57938295Y-135755333D01*
X57938295Y-135755333D02*
X58033533Y-135755333D01*
X58033533Y-135755333D02*
X58128771Y-135707714D01*
X58128771Y-135707714D02*
X58176390Y-135660095D01*
X58176390Y-135660095D02*
X58224009Y-135564857D01*
X58224009Y-135564857D02*
X58224009Y-135231524D01*
X58462104Y-136183905D02*
X58462104Y-136660095D01*
X58747819Y-136088667D02*
X57747819Y-136422000D01*
X57747819Y-136422000D02*
X58747819Y-136755333D01*
X57747819Y-136945810D02*
X57747819Y-137517238D01*
X58747819Y-137231524D02*
X57747819Y-137231524D01*
X58081152Y-138279143D02*
X58747819Y-138279143D01*
X57700200Y-138041048D02*
X58414485Y-137802953D01*
X58414485Y-137802953D02*
X58414485Y-138422000D01*
X58652580Y-138802953D02*
X58700200Y-138850572D01*
X58700200Y-138850572D02*
X58747819Y-138802953D01*
X58747819Y-138802953D02*
X58700200Y-138755334D01*
X58700200Y-138755334D02*
X58652580Y-138802953D01*
X58652580Y-138802953D02*
X58747819Y-138802953D01*
X58176390Y-139422000D02*
X58128771Y-139326762D01*
X58128771Y-139326762D02*
X58081152Y-139279143D01*
X58081152Y-139279143D02*
X57985914Y-139231524D01*
X57985914Y-139231524D02*
X57938295Y-139231524D01*
X57938295Y-139231524D02*
X57843057Y-139279143D01*
X57843057Y-139279143D02*
X57795438Y-139326762D01*
X57795438Y-139326762D02*
X57747819Y-139422000D01*
X57747819Y-139422000D02*
X57747819Y-139612476D01*
X57747819Y-139612476D02*
X57795438Y-139707714D01*
X57795438Y-139707714D02*
X57843057Y-139755333D01*
X57843057Y-139755333D02*
X57938295Y-139802952D01*
X57938295Y-139802952D02*
X57985914Y-139802952D01*
X57985914Y-139802952D02*
X58081152Y-139755333D01*
X58081152Y-139755333D02*
X58128771Y-139707714D01*
X58128771Y-139707714D02*
X58176390Y-139612476D01*
X58176390Y-139612476D02*
X58176390Y-139422000D01*
X58176390Y-139422000D02*
X58224009Y-139326762D01*
X58224009Y-139326762D02*
X58271628Y-139279143D01*
X58271628Y-139279143D02*
X58366866Y-139231524D01*
X58366866Y-139231524D02*
X58557342Y-139231524D01*
X58557342Y-139231524D02*
X58652580Y-139279143D01*
X58652580Y-139279143D02*
X58700200Y-139326762D01*
X58700200Y-139326762D02*
X58747819Y-139422000D01*
X58747819Y-139422000D02*
X58747819Y-139612476D01*
X58747819Y-139612476D02*
X58700200Y-139707714D01*
X58700200Y-139707714D02*
X58652580Y-139755333D01*
X58652580Y-139755333D02*
X58557342Y-139802952D01*
X58557342Y-139802952D02*
X58366866Y-139802952D01*
X58366866Y-139802952D02*
X58271628Y-139755333D01*
X58271628Y-139755333D02*
X58224009Y-139707714D01*
X58224009Y-139707714D02*
X58176390Y-139612476D01*
X57747819Y-140088667D02*
X58747819Y-140422000D01*
X58747819Y-140422000D02*
X57747819Y-140755333D01*
X83370009Y-103687857D02*
X83417628Y-103830714D01*
X83417628Y-103830714D02*
X83465247Y-103878333D01*
X83465247Y-103878333D02*
X83560485Y-103925952D01*
X83560485Y-103925952D02*
X83703342Y-103925952D01*
X83703342Y-103925952D02*
X83798580Y-103878333D01*
X83798580Y-103878333D02*
X83846200Y-103830714D01*
X83846200Y-103830714D02*
X83893819Y-103735476D01*
X83893819Y-103735476D02*
X83893819Y-103354524D01*
X83893819Y-103354524D02*
X82893819Y-103354524D01*
X82893819Y-103354524D02*
X82893819Y-103687857D01*
X82893819Y-103687857D02*
X82941438Y-103783095D01*
X82941438Y-103783095D02*
X82989057Y-103830714D01*
X82989057Y-103830714D02*
X83084295Y-103878333D01*
X83084295Y-103878333D02*
X83179533Y-103878333D01*
X83179533Y-103878333D02*
X83274771Y-103830714D01*
X83274771Y-103830714D02*
X83322390Y-103783095D01*
X83322390Y-103783095D02*
X83370009Y-103687857D01*
X83370009Y-103687857D02*
X83370009Y-103354524D01*
X83608104Y-104306905D02*
X83608104Y-104783095D01*
X83893819Y-104211667D02*
X82893819Y-104545000D01*
X82893819Y-104545000D02*
X83893819Y-104878333D01*
X82893819Y-105068810D02*
X82893819Y-105640238D01*
X83893819Y-105354524D02*
X82893819Y-105354524D01*
X82893819Y-105878334D02*
X82893819Y-106545000D01*
X82893819Y-106545000D02*
X83893819Y-106116429D01*
X83798580Y-106925953D02*
X83846200Y-106973572D01*
X83846200Y-106973572D02*
X83893819Y-106925953D01*
X83893819Y-106925953D02*
X83846200Y-106878334D01*
X83846200Y-106878334D02*
X83798580Y-106925953D01*
X83798580Y-106925953D02*
X83893819Y-106925953D01*
X82989057Y-107354524D02*
X82941438Y-107402143D01*
X82941438Y-107402143D02*
X82893819Y-107497381D01*
X82893819Y-107497381D02*
X82893819Y-107735476D01*
X82893819Y-107735476D02*
X82941438Y-107830714D01*
X82941438Y-107830714D02*
X82989057Y-107878333D01*
X82989057Y-107878333D02*
X83084295Y-107925952D01*
X83084295Y-107925952D02*
X83179533Y-107925952D01*
X83179533Y-107925952D02*
X83322390Y-107878333D01*
X83322390Y-107878333D02*
X83893819Y-107306905D01*
X83893819Y-107306905D02*
X83893819Y-107925952D01*
X82893819Y-108211667D02*
X83893819Y-108545000D01*
X83893819Y-108545000D02*
X82893819Y-108878333D01*
X154033035Y-36839604D02*
X154538111Y-37344680D01*
X154538111Y-37344680D02*
X154672798Y-37412024D01*
X154672798Y-37412024D02*
X154807485Y-37412024D01*
X154807485Y-37412024D02*
X154942172Y-37344680D01*
X154942172Y-37344680D02*
X155009516Y-37277337D01*
X153628974Y-37715070D02*
X154100378Y-38186474D01*
X153527958Y-37277337D02*
X154201393Y-37614054D01*
X154201393Y-37614054D02*
X153763661Y-38051787D01*
X163752161Y-53164594D02*
X163617474Y-53097250D01*
X163617474Y-53097250D02*
X163550130Y-53097250D01*
X163550130Y-53097250D02*
X163449115Y-53130922D01*
X163449115Y-53130922D02*
X163348100Y-53231937D01*
X163348100Y-53231937D02*
X163314428Y-53332952D01*
X163314428Y-53332952D02*
X163314428Y-53400296D01*
X163314428Y-53400296D02*
X163348100Y-53501311D01*
X163348100Y-53501311D02*
X163617474Y-53770685D01*
X163617474Y-53770685D02*
X164324581Y-53063578D01*
X164324581Y-53063578D02*
X164088878Y-52827876D01*
X164088878Y-52827876D02*
X163987863Y-52794204D01*
X163987863Y-52794204D02*
X163920520Y-52794204D01*
X163920520Y-52794204D02*
X163819504Y-52827876D01*
X163819504Y-52827876D02*
X163752161Y-52895220D01*
X163752161Y-52895220D02*
X163718489Y-52996235D01*
X163718489Y-52996235D02*
X163718489Y-53063578D01*
X163718489Y-53063578D02*
X163752161Y-53164594D01*
X163752161Y-53164594D02*
X163987863Y-53400296D01*
X163078726Y-52289128D02*
X162607321Y-52760533D01*
X163381772Y-52592174D02*
X163011382Y-52962563D01*
X163011382Y-52962563D02*
X162910367Y-52996235D01*
X162910367Y-52996235D02*
X162809352Y-52962563D01*
X162809352Y-52962563D02*
X162708336Y-52861548D01*
X162708336Y-52861548D02*
X162674665Y-52760533D01*
X162674665Y-52760533D02*
X162674665Y-52693189D01*
X162270604Y-52423815D02*
X162742008Y-51952410D01*
X162674665Y-52019754D02*
X162674665Y-51952410D01*
X162674665Y-51952410D02*
X162640993Y-51851395D01*
X162640993Y-51851395D02*
X162539978Y-51750380D01*
X162539978Y-51750380D02*
X162438962Y-51716708D01*
X162438962Y-51716708D02*
X162337947Y-51750380D01*
X162337947Y-51750380D02*
X161967558Y-52120769D01*
X162337947Y-51750380D02*
X162371619Y-51649365D01*
X162371619Y-51649365D02*
X162337947Y-51548349D01*
X162337947Y-51548349D02*
X162236932Y-51447334D01*
X162236932Y-51447334D02*
X162135917Y-51413662D01*
X162135917Y-51413662D02*
X162034901Y-51447334D01*
X162034901Y-51447334D02*
X161664512Y-51817723D01*
X161799199Y-51009602D02*
X161092093Y-51716708D01*
X161765528Y-51043273D02*
X161731856Y-50942258D01*
X161731856Y-50942258D02*
X161597169Y-50807571D01*
X161597169Y-50807571D02*
X161496154Y-50773899D01*
X161496154Y-50773899D02*
X161428810Y-50773899D01*
X161428810Y-50773899D02*
X161327795Y-50807571D01*
X161327795Y-50807571D02*
X161125764Y-51009602D01*
X161125764Y-51009602D02*
X161092093Y-51110617D01*
X161092093Y-51110617D02*
X161092093Y-51177960D01*
X161092093Y-51177960D02*
X161125764Y-51278976D01*
X161125764Y-51278976D02*
X161260451Y-51413663D01*
X161260451Y-51413663D02*
X161361467Y-51447334D01*
X161462482Y-50201479D02*
X161024749Y-49763747D01*
X161024749Y-49763747D02*
X160991077Y-50268823D01*
X160991077Y-50268823D02*
X160890062Y-50167808D01*
X160890062Y-50167808D02*
X160789047Y-50134136D01*
X160789047Y-50134136D02*
X160721703Y-50134136D01*
X160721703Y-50134136D02*
X160620688Y-50167808D01*
X160620688Y-50167808D02*
X160452329Y-50336166D01*
X160452329Y-50336166D02*
X160418657Y-50437182D01*
X160418657Y-50437182D02*
X160418657Y-50504525D01*
X160418657Y-50504525D02*
X160452329Y-50605541D01*
X160452329Y-50605541D02*
X160654360Y-50807571D01*
X160654360Y-50807571D02*
X160755375Y-50841243D01*
X160755375Y-50841243D02*
X160822719Y-50841243D01*
X121711710Y-25601975D02*
X122415144Y-25726010D01*
X122415144Y-25726010D02*
X122564100Y-25703921D01*
X122564100Y-25703921D02*
X122674429Y-25626668D01*
X122674429Y-25626668D02*
X122746131Y-25494250D01*
X122746131Y-25494250D02*
X122762669Y-25400459D01*
X121645558Y-25977141D02*
X121538062Y-26586783D01*
X121538062Y-26586783D02*
X121971109Y-26324666D01*
X121971109Y-26324666D02*
X121946302Y-26465353D01*
X121946302Y-26465353D02*
X121976660Y-26567413D01*
X121976660Y-26567413D02*
X122015287Y-26622577D01*
X122015287Y-26622577D02*
X122100809Y-26686011D01*
X122100809Y-26686011D02*
X122335287Y-26727356D01*
X122335287Y-26727356D02*
X122437347Y-26696998D01*
X122437347Y-26696998D02*
X122492512Y-26658371D01*
X122492512Y-26658371D02*
X122555945Y-26572849D01*
X122555945Y-26572849D02*
X122605559Y-26291476D01*
X122605559Y-26291476D02*
X122575201Y-26189415D01*
X122575201Y-26189415D02*
X122536575Y-26134251D01*
X138864147Y-33422219D02*
X138715191Y-33444308D01*
X138715191Y-33444308D02*
X138660027Y-33482934D01*
X138660027Y-33482934D02*
X138596593Y-33568457D01*
X138596593Y-33568457D02*
X138571786Y-33709143D01*
X138571786Y-33709143D02*
X138602144Y-33811204D01*
X138602144Y-33811204D02*
X138640771Y-33866368D01*
X138640771Y-33866368D02*
X138726293Y-33929802D01*
X138726293Y-33929802D02*
X139101458Y-33995953D01*
X139101458Y-33995953D02*
X139275106Y-33011146D01*
X139275106Y-33011146D02*
X138946837Y-32953263D01*
X138946837Y-32953263D02*
X138844777Y-32983621D01*
X138844777Y-32983621D02*
X138789612Y-33022247D01*
X138789612Y-33022247D02*
X138726179Y-33107770D01*
X138726179Y-33107770D02*
X138709641Y-33201561D01*
X138709641Y-33201561D02*
X138739998Y-33303621D01*
X138739998Y-33303621D02*
X138778625Y-33358785D01*
X138778625Y-33358785D02*
X138864147Y-33422219D01*
X138864147Y-33422219D02*
X139192416Y-33480102D01*
X137810355Y-33091346D02*
X137694590Y-33747885D01*
X138232416Y-33165767D02*
X138141457Y-33681618D01*
X138141457Y-33681618D02*
X138078024Y-33767141D01*
X138078024Y-33767141D02*
X137975963Y-33797498D01*
X137975963Y-33797498D02*
X137835277Y-33772691D01*
X137835277Y-33772691D02*
X137749754Y-33709258D01*
X137749754Y-33709258D02*
X137711128Y-33654093D01*
X137225634Y-33665195D02*
X137341399Y-33008656D01*
X137324861Y-33102448D02*
X137286234Y-33047283D01*
X137286234Y-33047283D02*
X137200712Y-32983850D01*
X137200712Y-32983850D02*
X137060025Y-32959043D01*
X137060025Y-32959043D02*
X136957965Y-32989400D01*
X136957965Y-32989400D02*
X136894532Y-33074923D01*
X136894532Y-33074923D02*
X136803573Y-33590774D01*
X136894532Y-33074923D02*
X136864174Y-32972862D01*
X136864174Y-32972862D02*
X136778652Y-32909429D01*
X136778652Y-32909429D02*
X136637965Y-32884622D01*
X136637965Y-32884622D02*
X136535905Y-32914980D01*
X136535905Y-32914980D02*
X136472471Y-33000502D01*
X136472471Y-33000502D02*
X136381513Y-33516354D01*
X136028322Y-32777126D02*
X135854674Y-33761933D01*
X136020053Y-32824021D02*
X135934531Y-32760588D01*
X135934531Y-32760588D02*
X135746949Y-32727512D01*
X135746949Y-32727512D02*
X135644888Y-32757870D01*
X135644888Y-32757870D02*
X135589724Y-32796496D01*
X135589724Y-32796496D02*
X135526290Y-32882018D01*
X135526290Y-32882018D02*
X135476677Y-33163392D01*
X135476677Y-33163392D02*
X135507034Y-33265452D01*
X135507034Y-33265452D02*
X135545661Y-33320617D01*
X135545661Y-33320617D02*
X135631183Y-33384050D01*
X135631183Y-33384050D02*
X135818766Y-33417126D01*
X135818766Y-33417126D02*
X135920826Y-33386769D01*
X135225546Y-32393806D02*
X135186919Y-32338642D01*
X135186919Y-32338642D02*
X135101397Y-32275208D01*
X135101397Y-32275208D02*
X134866919Y-32233863D01*
X134866919Y-32233863D02*
X134764859Y-32264221D01*
X134764859Y-32264221D02*
X134709694Y-32302848D01*
X134709694Y-32302848D02*
X134646261Y-32388370D01*
X134646261Y-32388370D02*
X134629723Y-32482161D01*
X134629723Y-32482161D02*
X134651812Y-32631117D01*
X134651812Y-32631117D02*
X135115331Y-33293092D01*
X135115331Y-33293092D02*
X134505689Y-33185595D01*
D12*
X76189361Y-32790477D02*
X75307228Y-27787654D01*
X95318522Y-24259123D02*
X75307228Y-27787654D01*
X96200654Y-29261946D02*
X76189361Y-32790477D01*
X96200654Y-29261946D02*
X95318522Y-24259123D01*
X50668808Y-54523295D02*
X47076705Y-50931192D01*
X61445115Y-36562782D02*
X47076705Y-50931192D01*
X65037218Y-40154885D02*
X50668808Y-54523295D01*
X65037218Y-40154885D02*
X61445115Y-36562782D01*
X152386782Y-40154885D02*
X155978885Y-36562782D01*
X166755192Y-54523295D02*
X152386782Y-40154885D01*
X166755192Y-54523295D02*
X170347295Y-50931192D01*
X170347295Y-50931192D02*
X155978885Y-36562782D01*
X122264746Y-29261946D02*
X123146878Y-24259123D01*
X142276039Y-32790477D02*
X122264746Y-29261946D01*
X142276039Y-32790477D02*
X143158172Y-27787654D01*
X143158172Y-27787654D02*
X123146878Y-24259123D01*
%LPC*%
D13*
X149860000Y-43180000D03*
X139700000Y-43180000D03*
X68580000Y-43180000D03*
X78740000Y-43180000D03*
D14*
X128905000Y-79375000D03*
D15*
X126365000Y-79375000D03*
D14*
X93980000Y-79375000D03*
D15*
X91440000Y-79375000D03*
D13*
X160020000Y-58420000D03*
D16*
X72517000Y-116586000D03*
D14*
X69088000Y-147066000D03*
D15*
X69088000Y-149606000D03*
D17*
X90131412Y-27752934D03*
D18*
X80125765Y-29517199D03*
D19*
X85128588Y-28635066D03*
X93794899Y-27106962D03*
X77939492Y-29902698D03*
D13*
X114300000Y-50800000D03*
D16*
X78740000Y-129794000D03*
D13*
X68580000Y-58420000D03*
X73660000Y-50800000D03*
D20*
X146050000Y-63500000D03*
D21*
X144635786Y-62085786D03*
X143221573Y-60671573D03*
D16*
X68961000Y-142499000D03*
D15*
X68961000Y-139959000D03*
D16*
X106680000Y-100330000D03*
D13*
X88900000Y-43180000D03*
D16*
X143002000Y-78359000D03*
D22*
X50863500Y-149606000D03*
D23*
X55563500Y-149606000D03*
X60263500Y-149606000D03*
D14*
X116205000Y-140081000D03*
D15*
X116205000Y-142621000D03*
X116205000Y-145161000D03*
D16*
X52705000Y-66040000D03*
X140208000Y-78486000D03*
D13*
X144780000Y-50800000D03*
X134620000Y-50800000D03*
X83820000Y-50800000D03*
X104140000Y-50800000D03*
X119380000Y-43180000D03*
D24*
X73768949Y-60914872D03*
D21*
X72354735Y-62329086D03*
X70940522Y-63743299D03*
D16*
X52705000Y-74295000D03*
D25*
X59200051Y-42399949D03*
D26*
X52015846Y-49584154D03*
D27*
X55607949Y-45992051D03*
X61830488Y-39769512D03*
X50446069Y-51153931D03*
D13*
X124460000Y-50800000D03*
X63500000Y-50800000D03*
D16*
X139065000Y-105048000D03*
D28*
X165608000Y-67818000D03*
D29*
X165608000Y-69068000D03*
X165608000Y-70318000D03*
X165608000Y-71568000D03*
X165608000Y-72818000D03*
X165608000Y-74068000D03*
D14*
X148463000Y-115570000D03*
D15*
X145923000Y-115570000D03*
D14*
X115951000Y-130048000D03*
D15*
X115951000Y-132588000D03*
X115951000Y-135128000D03*
D16*
X68580000Y-122555000D03*
D15*
X71120000Y-122555000D03*
D13*
X99060000Y-43180000D03*
X58420000Y-58420000D03*
D14*
X136525000Y-147955000D03*
D15*
X136525000Y-150495000D03*
D30*
X63500000Y-142250000D03*
X123500000Y-142250000D03*
X148500000Y-86050000D03*
X68500000Y-86050000D03*
D31*
X55500000Y-137450000D03*
X55500000Y-122450000D03*
X80500000Y-105850000D03*
X80500000Y-90850000D03*
D14*
X71297800Y-94950000D03*
D15*
X71297800Y-97490000D03*
X71297800Y-100030000D03*
X71297800Y-102570000D03*
X71297800Y-105110000D03*
X71297800Y-107650000D03*
D14*
X143687800Y-107650000D03*
D15*
X143687800Y-105110000D03*
X143687800Y-102570000D03*
X143687800Y-100030000D03*
X143687800Y-97490000D03*
D16*
X143687800Y-94950000D03*
D13*
X149860000Y-58420000D03*
X129540000Y-43180000D03*
D32*
X110490000Y-57785000D03*
D21*
X108490000Y-57785000D03*
X106490000Y-57785000D03*
D13*
X74930000Y-151130000D03*
D33*
X151765000Y-120650000D03*
D34*
X154305000Y-120650000D03*
X156845000Y-120650000D03*
X159385000Y-120650000D03*
D33*
X151765000Y-118110000D03*
D34*
X154305000Y-118110000D03*
X156845000Y-118110000D03*
X159385000Y-118110000D03*
D14*
X153670000Y-152400000D03*
D15*
X156210000Y-152400000D03*
X158750000Y-152400000D03*
X161290000Y-152400000D03*
X161290000Y-149860000D03*
X158750000Y-149860000D03*
X156210000Y-149860000D03*
X153670000Y-149860000D03*
D16*
X76073000Y-116586000D03*
D14*
X164211000Y-81407000D03*
D15*
X166751000Y-81407000D03*
D13*
X143510000Y-151130000D03*
X93980000Y-50800000D03*
D16*
X76073000Y-97536000D03*
X53340000Y-129940000D03*
D13*
X109220000Y-43180000D03*
D16*
X50673000Y-139827000D03*
D15*
X50673000Y-137287000D03*
D13*
X154940000Y-50800000D03*
D16*
X75184000Y-122555000D03*
X52070000Y-80010000D03*
D15*
X54610000Y-80010000D03*
D35*
X158223949Y-42399949D03*
D36*
X165408154Y-49584154D03*
D37*
X161816051Y-45992051D03*
X155593512Y-39769512D03*
X166977931Y-51153931D03*
D38*
X128333988Y-27752934D03*
D39*
X138339635Y-29517199D03*
D40*
X133336812Y-28635066D03*
X124670501Y-27106962D03*
X140525908Y-29902698D03*
%LPD*%
M02*
