M48
; DRILL file {KiCad 8.0.4} date 2024-08-16T09:30:47-0500
; FORMAT={-:-/ absolute / metric / decimal}
; #@! TF.CreationDate,2024-08-16T09:30:47-05:00
; #@! TF.GenerationSoftware,Kicad,Pcbnew,8.0.4
; #@! TF.FileFunction,Plated,1,2,PTH
FMAT,2
METRIC
; #@! TA.AperFunction,Plated,PTH,ViaDrill
T1C0.400
; #@! TA.AperFunction,Plated,PTH,ComponentDrill
T2C0.600
; #@! TA.AperFunction,Plated,PTH,ComponentDrill
T3C0.900
; #@! TA.AperFunction,Plated,PTH,ComponentDrill
T4C1.000
; #@! TA.AperFunction,Plated,PTH,ViaDrill
T5C1.016
; #@! TA.AperFunction,Plated,PTH,ComponentDrill
T6C1.016
; #@! TA.AperFunction,Plated,PTH,ComponentDrill
T7C1.270
; #@! TA.AperFunction,Plated,PTH,ComponentDrill
T8C1.524
; #@! TA.AperFunction,Plated,PTH,ComponentDrill
T9C1.778
; #@! TA.AperFunction,Plated,PTH,ComponentDrill
T10C1.850
; #@! TA.AperFunction,Plated,PTH,ComponentDrill
T11C2.300
%
G90
G05
T1
X50.165Y-118.745
X52.07Y-127.0
X62.23Y-127.0
X66.294Y-136.144
X68.072Y-89.154
X72.898Y-125.73
X76.44Y-75.198
X81.915Y-115.57
X81.915Y-144.78
X84.582Y-69.85
X85.12Y-122.398
X93.345Y-102.87
X93.345Y-130.175
X94.615Y-100.33
X94.615Y-140.335
X95.504Y-114.3
X96.012Y-45.974
X96.52Y-86.995
X96.52Y-123.825
X97.79Y-113.03
X98.552Y-115.57
X99.568Y-99.822
X99.568Y-107.442
X101.854Y-45.974
X102.362Y-96.266
X102.362Y-109.22
X104.14Y-44.196
X108.458Y-91.44
X110.236Y-127.762
X110.31Y-117.602
X111.506Y-66.548
X113.792Y-111.252
X114.808Y-91.44
X116.078Y-103.6
X116.078Y-124.714
X118.364Y-88.392
X118.364Y-103.886
X119.38Y-110.49
X119.38Y-128.905
X119.888Y-84.074
X119.888Y-105.41
X120.904Y-52.324
X121.158Y-101.6
X121.285Y-104.14
X122.428Y-73.66
X122.428Y-106.68
X123.19Y-120.65
X123.825Y-81.915
X125.476Y-118.11
X130.048Y-132.588
X135.255Y-123.825
X135.255Y-128.27
X135.89Y-100.33
X136.652Y-97.79
X137.16Y-132.715
X137.795Y-95.885
X137.922Y-120.65
X137.922Y-128.778
X139.7Y-131.445
X140.716Y-69.85
X140.97Y-81.915
X146.812Y-105.918
X148.59Y-130.175
X148.844Y-97.79
X149.352Y-99.314
X149.352Y-106.426
X149.352Y-108.966
X150.368Y-100.076
X164.465Y-147.955
X165.735Y-146.685
T2
X165.608Y-67.818
X165.608Y-69.068
X165.608Y-70.318
X165.608Y-71.568
X165.608Y-72.818
X165.608Y-74.068
T3
X70.941Y-63.743
X72.355Y-62.329
X73.769Y-60.915
X106.49Y-57.785
X108.49Y-57.785
X110.49Y-57.785
X143.222Y-60.672
X144.636Y-62.086
X146.05Y-63.5
T4
X50.673Y-137.287
X50.673Y-139.827
X52.07Y-80.01
X52.705Y-66.04
X52.705Y-74.295
X53.34Y-129.94
X54.61Y-80.01
X68.58Y-122.555
X68.961Y-139.959
X68.961Y-142.499
X69.088Y-147.066
X69.088Y-149.606
X71.12Y-122.555
X71.298Y-94.95
X71.298Y-97.49
X71.298Y-100.03
X71.298Y-102.57
X71.298Y-105.11
X71.298Y-107.65
X72.517Y-116.586
X75.184Y-122.555
X76.073Y-97.536
X76.073Y-116.586
X78.74Y-129.794
X91.44Y-79.375
X93.98Y-79.375
X106.68Y-100.33
X115.951Y-130.048
X115.951Y-132.588
X115.951Y-135.128
X116.205Y-140.081
X116.205Y-142.621
X116.205Y-145.161
X126.365Y-79.375
X128.905Y-79.375
X136.525Y-147.955
X136.525Y-150.495
X139.065Y-105.048
X140.208Y-78.486
X143.002Y-78.359
X143.688Y-94.95
X143.688Y-97.49
X143.688Y-100.03
X143.688Y-102.57
X143.688Y-105.11
X143.688Y-107.65
X145.923Y-115.57
X148.463Y-115.57
X153.67Y-149.86
X153.67Y-152.4
X156.21Y-149.86
X156.21Y-152.4
X158.75Y-149.86
X158.75Y-152.4
X161.29Y-149.86
X161.29Y-152.4
X164.211Y-81.407
X166.751Y-81.407
T5
X111.76Y-104.495
T6
X151.765Y-118.11
X151.765Y-120.65
X154.305Y-118.11
X154.305Y-120.65
X156.845Y-118.11
X156.845Y-120.65
X159.385Y-118.11
X159.385Y-120.65
T10
X50.863Y-149.606
X55.563Y-149.606
X60.264Y-149.606
T11
X63.5Y-142.25
X68.5Y-86.05
X123.5Y-142.25
X148.5Y-86.05
T6
X49.324Y-50.031G85X51.569Y-52.276
G05
X54.485Y-44.87G85X56.73Y-47.115
G05
X60.708Y-38.647G85X62.953Y-40.892
G05
X77.664Y-28.339G85X78.215Y-31.466
G05
X84.853Y-27.072G85X85.404Y-30.198
G05
X93.519Y-25.544G85X94.071Y-28.67
G05
X124.946Y-25.544G85X124.395Y-28.67
G05
X133.612Y-27.072G85X133.061Y-30.198
G05
X140.802Y-28.339G85X140.25Y-31.466
G05
X156.716Y-38.647G85X154.471Y-40.892
G05
X162.939Y-44.87G85X160.694Y-47.115
G05
X168.1Y-50.031G85X165.855Y-52.276
G05
T7
X51.746Y-49.315G85X52.285Y-49.854
G05
X80.06Y-29.142G85X80.192Y-29.892
G05
X138.406Y-29.142G85X138.273Y-29.892
G05
X165.678Y-49.315G85X165.139Y-49.854
G05
T8
X59.02Y-42.22G85X59.38Y-42.58
G05
X90.087Y-27.503G85X90.176Y-28.003
G05
X128.378Y-27.503G85X128.29Y-28.003
G05
X158.404Y-42.22G85X158.044Y-42.58
G05
T9
X55.5Y-124.609G85X55.5Y-120.291
G05
X55.5Y-139.609G85X55.5Y-135.291
G05
X80.5Y-93.009G85X80.5Y-88.691
G05
X80.5Y-108.009G85X80.5Y-103.691
G05
M30
