M48
; DRILL file {KiCad 8.0.4} date 2024-08-16T09:30:47-0500
; FORMAT={-:-/ absolute / metric / decimal}
; #@! TF.CreationDate,2024-08-16T09:30:47-05:00
; #@! TF.GenerationSoftware,Kicad,Pcbnew,8.0.4
; #@! TF.FileFunction,NonPlated,1,2,NPTH
FMAT,2
METRIC
; #@! TA.AperFunction,NonPlated,NPTH,ComponentDrill
T1C3.175
%
G90
G05
T1
X58.42Y-58.42
X63.5Y-50.8
X68.58Y-43.18
X68.58Y-58.42
X73.66Y-50.8
X74.93Y-151.13
X78.74Y-43.18
X83.82Y-50.8
X88.9Y-43.18
X93.98Y-50.8
X99.06Y-43.18
X104.14Y-50.8
X109.22Y-43.18
X114.3Y-50.8
X119.38Y-43.18
X124.46Y-50.8
X129.54Y-43.18
X134.62Y-50.8
X139.7Y-43.18
X143.51Y-151.13
X144.78Y-50.8
X149.86Y-43.18
X149.86Y-58.42
X154.94Y-50.8
X160.02Y-58.42
M30
