G04 #@! TF.GenerationSoftware,KiCad,Pcbnew,8.0.7*
G04 #@! TF.CreationDate,2025-10-03T11:55:05-04:00*
G04 #@! TF.ProjectId,MotorBoardv3_2,4d6f746f-7242-46f6-9172-6476335f322e,V2.0.2b*
G04 #@! TF.SameCoordinates,Original*
G04 #@! TF.FileFunction,Copper,L1,Top*
G04 #@! TF.FilePolarity,Positive*
%FSLAX46Y46*%
G04 Gerber Fmt 4.6, Leading zero omitted, Abs format (unit mm)*
G04 Created by KiCad (PCBNEW 8.0.7) date 2025-10-03 11:55:05*
%MOMM*%
%LPD*%
G01*
G04 APERTURE LIST*
G04 Aperture macros list*
%AMRoundRect*
0 Rectangle with rounded corners*
0 $1 Rounding radius*
0 $2 $3 $4 $5 $6 $7 $8 $9 X,Y pos of 4 corners*
0 Add a 4 corners polygon primitive as box body*
4,1,4,$2,$3,$4,$5,$6,$7,$8,$9,$2,$3,0*
0 Add four circle primitives for the rounded corners*
1,1,$1+$1,$2,$3*
1,1,$1+$1,$4,$5*
1,1,$1+$1,$6,$7*
1,1,$1+$1,$8,$9*
0 Add four rect primitives between the rounded corners*
20,1,$1+$1,$2,$3,$4,$5,0*
20,1,$1+$1,$4,$5,$6,$7,0*
20,1,$1+$1,$6,$7,$8,$9,0*
20,1,$1+$1,$8,$9,$2,$3,0*%
%AMHorizOval*
0 Thick line with rounded ends*
0 $1 width*
0 $2 $3 position (X,Y) of the first rounded end (center of the circle)*
0 $4 $5 position (X,Y) of the second rounded end (center of the circle)*
0 Add line between two ends*
20,1,$1,$2,$3,$4,$5,0*
0 Add two circle primitives to create the rounded ends*
1,1,$1,$2,$3*
1,1,$1,$4,$5*%
%AMRotRect*
0 Rectangle, with rotation*
0 The origin of the aperture is its center*
0 $1 length*
0 $2 width*
0 $3 Rotation angle, in degrees counterclockwise*
0 Add horizontal line*
21,1,$1,$2,0,0,$3*%
G04 Aperture macros list end*
G04 #@! TA.AperFunction,SMDPad,CuDef*
%ADD10R,0.800000X0.800000*%
G04 #@! TD*
G04 #@! TA.AperFunction,ComponentPad*
%ADD11C,1.700000*%
G04 #@! TD*
G04 #@! TA.AperFunction,ComponentPad*
%ADD12R,1.700000X1.700000*%
G04 #@! TD*
G04 #@! TA.AperFunction,ComponentPad*
%ADD13O,1.700000X1.700000*%
G04 #@! TD*
G04 #@! TA.AperFunction,ComponentPad*
%ADD14HorizOval,2.032000X0.088213X-0.500282X-0.088213X0.500282X0*%
G04 #@! TD*
G04 #@! TA.AperFunction,ComponentPad*
%ADD15HorizOval,1.778000X0.110267X-0.625353X-0.110267X0.625353X0*%
G04 #@! TD*
G04 #@! TA.AperFunction,ComponentPad*
%ADD16HorizOval,1.778000X0.253613X-1.438312X-0.253613X1.438312X0*%
G04 #@! TD*
G04 #@! TA.AperFunction,SMDPad,CuDef*
%ADD17RoundRect,0.200000X-0.200000X-0.275000X0.200000X-0.275000X0.200000X0.275000X-0.200000X0.275000X0*%
G04 #@! TD*
G04 #@! TA.AperFunction,SMDPad,CuDef*
%ADD18RoundRect,0.225000X-0.225000X-0.250000X0.225000X-0.250000X0.225000X0.250000X-0.225000X0.250000X0*%
G04 #@! TD*
G04 #@! TA.AperFunction,SMDPad,CuDef*
%ADD19RoundRect,0.200000X0.200000X0.275000X-0.200000X0.275000X-0.200000X-0.275000X0.200000X-0.275000X0*%
G04 #@! TD*
G04 #@! TA.AperFunction,SMDPad,CuDef*
%ADD20RoundRect,0.200000X0.275000X-0.200000X0.275000X0.200000X-0.275000X0.200000X-0.275000X-0.200000X0*%
G04 #@! TD*
G04 #@! TA.AperFunction,ComponentPad*
%ADD21RoundRect,0.250000X0.600000X-0.600000X0.600000X0.600000X-0.600000X0.600000X-0.600000X-0.600000X0*%
G04 #@! TD*
G04 #@! TA.AperFunction,SMDPad,CuDef*
%ADD22R,2.300000X1.800000*%
G04 #@! TD*
G04 #@! TA.AperFunction,SMDPad,CuDef*
%ADD23RoundRect,0.225000X-0.250000X0.225000X-0.250000X-0.225000X0.250000X-0.225000X0.250000X0.225000X0*%
G04 #@! TD*
G04 #@! TA.AperFunction,ComponentPad*
%ADD24R,2.200000X2.200000*%
G04 #@! TD*
G04 #@! TA.AperFunction,ComponentPad*
%ADD25O,2.200000X2.200000*%
G04 #@! TD*
G04 #@! TA.AperFunction,SMDPad,CuDef*
%ADD26RoundRect,0.225000X0.225000X0.250000X-0.225000X0.250000X-0.225000X-0.250000X0.225000X-0.250000X0*%
G04 #@! TD*
G04 #@! TA.AperFunction,ComponentPad*
%ADD27RotRect,1.350000X1.350000X135.000000*%
G04 #@! TD*
G04 #@! TA.AperFunction,ComponentPad*
%ADD28C,1.350000*%
G04 #@! TD*
G04 #@! TA.AperFunction,SMDPad,CuDef*
%ADD29R,1.800000X2.300000*%
G04 #@! TD*
G04 #@! TA.AperFunction,ComponentPad*
%ADD30R,2.000000X1.905000*%
G04 #@! TD*
G04 #@! TA.AperFunction,ComponentPad*
%ADD31O,2.000000X1.905000*%
G04 #@! TD*
G04 #@! TA.AperFunction,ComponentPad*
%ADD32R,2.775000X2.775000*%
G04 #@! TD*
G04 #@! TA.AperFunction,ComponentPad*
%ADD33C,2.775000*%
G04 #@! TD*
G04 #@! TA.AperFunction,SMDPad,CuDef*
%ADD34RoundRect,0.200000X-0.275000X0.200000X-0.275000X-0.200000X0.275000X-0.200000X0.275000X0.200000X0*%
G04 #@! TD*
G04 #@! TA.AperFunction,ComponentPad*
%ADD35RotRect,1.350000X1.350000X225.000000*%
G04 #@! TD*
G04 #@! TA.AperFunction,ComponentPad*
%ADD36HorizOval,2.032000X0.359210X-0.359210X-0.359210X0.359210X0*%
G04 #@! TD*
G04 #@! TA.AperFunction,ComponentPad*
%ADD37HorizOval,1.778000X0.449013X-0.449013X-0.449013X0.449013X0*%
G04 #@! TD*
G04 #@! TA.AperFunction,ComponentPad*
%ADD38HorizOval,1.778000X1.032729X-1.032729X-1.032729X1.032729X0*%
G04 #@! TD*
G04 #@! TA.AperFunction,SMDPad,CuDef*
%ADD39R,3.150000X1.000000*%
G04 #@! TD*
G04 #@! TA.AperFunction,SMDPad,CuDef*
%ADD40R,0.450000X1.475000*%
G04 #@! TD*
G04 #@! TA.AperFunction,SMDPad,CuDef*
%ADD41R,2.310000X2.460000*%
G04 #@! TD*
G04 #@! TA.AperFunction,SMDPad,CuDef*
%ADD42RoundRect,0.150000X-0.825000X-0.150000X0.825000X-0.150000X0.825000X0.150000X-0.825000X0.150000X0*%
G04 #@! TD*
G04 #@! TA.AperFunction,ComponentPad*
%ADD43C,2.700000*%
G04 #@! TD*
G04 #@! TA.AperFunction,ComponentPad*
%ADD44C,3.048000*%
G04 #@! TD*
G04 #@! TA.AperFunction,ComponentPad*
%ADD45O,3.048000X7.366000*%
G04 #@! TD*
G04 #@! TA.AperFunction,ComponentPad*
%ADD46R,1.350000X1.350000*%
G04 #@! TD*
G04 #@! TA.AperFunction,SMDPad,CuDef*
%ADD47RoundRect,0.250000X0.625000X-0.312500X0.625000X0.312500X-0.625000X0.312500X-0.625000X-0.312500X0*%
G04 #@! TD*
G04 #@! TA.AperFunction,ComponentPad*
%ADD48R,1.778000X1.778000*%
G04 #@! TD*
G04 #@! TA.AperFunction,ComponentPad*
%ADD49C,1.778000*%
G04 #@! TD*
G04 #@! TA.AperFunction,SMDPad,CuDef*
%ADD50R,0.950000X1.750000*%
G04 #@! TD*
G04 #@! TA.AperFunction,SMDPad,CuDef*
%ADD51R,3.200000X1.750000*%
G04 #@! TD*
G04 #@! TA.AperFunction,WasherPad*
%ADD52C,2.200000*%
G04 #@! TD*
G04 #@! TA.AperFunction,ComponentPad*
%ADD53HorizOval,2.032000X-0.359210X-0.359210X0.359210X0.359210X0*%
G04 #@! TD*
G04 #@! TA.AperFunction,ComponentPad*
%ADD54HorizOval,1.778000X-0.449013X-0.449013X0.449013X0.449013X0*%
G04 #@! TD*
G04 #@! TA.AperFunction,ComponentPad*
%ADD55HorizOval,1.778000X-1.032729X-1.032729X1.032729X1.032729X0*%
G04 #@! TD*
G04 #@! TA.AperFunction,ComponentPad*
%ADD56HorizOval,2.032000X-0.088213X-0.500282X0.088213X0.500282X0*%
G04 #@! TD*
G04 #@! TA.AperFunction,ComponentPad*
%ADD57HorizOval,1.778000X-0.110267X-0.625353X0.110267X0.625353X0*%
G04 #@! TD*
G04 #@! TA.AperFunction,ComponentPad*
%ADD58HorizOval,1.778000X-0.253613X-1.438312X0.253613X1.438312X0*%
G04 #@! TD*
G04 #@! TA.AperFunction,ViaPad*
%ADD59C,0.800000*%
G04 #@! TD*
G04 #@! TA.AperFunction,ViaPad*
%ADD60C,1.270000*%
G04 #@! TD*
G04 #@! TA.AperFunction,Conductor*
%ADD61C,0.750000*%
G04 #@! TD*
G04 #@! TA.AperFunction,Conductor*
%ADD62C,0.250000*%
G04 #@! TD*
G04 #@! TA.AperFunction,Conductor*
%ADD63C,0.400000*%
G04 #@! TD*
G04 #@! TA.AperFunction,Conductor*
%ADD64C,0.200000*%
G04 #@! TD*
G04 #@! TA.AperFunction,Conductor*
%ADD65C,0.150000*%
G04 #@! TD*
G04 #@! TA.AperFunction,Conductor*
%ADD66C,0.127000*%
G04 #@! TD*
G04 #@! TA.AperFunction,Conductor*
%ADD67C,0.450000*%
G04 #@! TD*
G04 APERTURE END LIST*
D10*
X50165000Y-120142000D03*
X50165000Y-121792000D03*
D11*
X72517000Y-116586000D03*
D12*
X69088000Y-147066000D03*
D13*
X69088000Y-149606000D03*
D14*
X90131412Y-27752934D03*
D15*
X80125765Y-29517199D03*
D16*
X85128588Y-28635066D03*
X93794899Y-27106962D03*
X77939492Y-29902698D03*
D17*
X80315000Y-160360000D03*
X81965000Y-160360000D03*
D18*
X80230000Y-168090000D03*
X81780000Y-168090000D03*
D19*
X137212000Y-74830000D03*
X135562000Y-74830000D03*
D20*
X67210000Y-169685000D03*
X67210000Y-168035000D03*
D11*
X78740000Y-129794000D03*
D21*
X115035000Y-159260000D03*
D11*
X115035000Y-155260000D03*
D22*
X73025000Y-129180000D03*
X73025000Y-132080000D03*
D12*
X100510000Y-48920000D03*
D13*
X118290000Y-48920000D03*
X105590000Y-48920000D03*
X108130000Y-48920000D03*
X110670000Y-48920000D03*
X113210000Y-48920000D03*
X108130000Y-26060000D03*
X105590000Y-26060000D03*
D12*
X100510000Y-26060000D03*
D13*
X103050000Y-48920000D03*
X103050000Y-26060000D03*
X110670000Y-26060000D03*
X118290000Y-26060000D03*
X115750000Y-48920000D03*
X113210000Y-26060000D03*
X115750000Y-26060000D03*
D23*
X95060000Y-160525000D03*
X95060000Y-162075000D03*
D24*
X83075000Y-151920000D03*
D25*
X93235000Y-151920000D03*
D26*
X81905000Y-158440000D03*
X80355000Y-158440000D03*
D27*
X146050000Y-63500000D03*
D28*
X144635786Y-62085786D03*
X143221573Y-60671573D03*
D29*
X135710000Y-69850000D03*
X138610000Y-69850000D03*
D11*
X68961000Y-142499000D03*
D13*
X68961000Y-139959000D03*
D11*
X106680000Y-100330000D03*
D29*
X79830000Y-69850000D03*
X82730000Y-69850000D03*
D30*
X87845000Y-165510000D03*
D31*
X87845000Y-162970000D03*
X87845000Y-160430000D03*
D11*
X143006000Y-84914000D03*
D32*
X50863500Y-149606000D03*
D33*
X55563500Y-149606000D03*
X60263500Y-149606000D03*
D34*
X139700000Y-100140000D03*
X139700000Y-101790000D03*
D18*
X80265000Y-163120000D03*
X81815000Y-163120000D03*
D11*
X52705000Y-66040000D03*
X140187000Y-84980000D03*
D22*
X70104000Y-81714000D03*
X70104000Y-78814000D03*
D18*
X112682000Y-52050000D03*
X114232000Y-52050000D03*
X110845000Y-111125000D03*
X112395000Y-111125000D03*
D12*
X93980000Y-79375000D03*
D13*
X91440000Y-79375000D03*
D35*
X73768949Y-60914872D03*
D28*
X72354735Y-62329086D03*
X70940522Y-63743299D03*
D11*
X52705000Y-74295000D03*
D36*
X59200051Y-42399949D03*
D37*
X52015846Y-49584154D03*
D38*
X55607949Y-45992051D03*
X61830488Y-39769512D03*
X50446069Y-51153931D03*
D12*
X140827000Y-79060000D03*
D13*
X138287000Y-79060000D03*
X135747000Y-79060000D03*
X133207000Y-79060000D03*
D39*
X90170000Y-120650000D03*
X85120000Y-120650000D03*
X90170000Y-118110000D03*
X85120000Y-118110000D03*
X90170000Y-115570000D03*
X85120000Y-115570000D03*
X90170000Y-113030000D03*
X85120000Y-113030000D03*
X90170000Y-110490000D03*
X85120000Y-110490000D03*
X90170000Y-107950000D03*
X85120000Y-107950000D03*
X90170000Y-105410000D03*
X85120000Y-105410000D03*
X90170000Y-102870000D03*
X85120000Y-102870000D03*
X90170000Y-100330000D03*
X85120000Y-100330000D03*
X90170000Y-97790000D03*
X85120000Y-97790000D03*
D40*
X114035000Y-101557000D03*
X113385000Y-101557000D03*
X112735000Y-101557000D03*
X112085000Y-101557000D03*
X111435000Y-101557000D03*
X110785000Y-101557000D03*
X110135000Y-101557000D03*
X109485000Y-101557000D03*
X109485000Y-107433000D03*
X110135000Y-107433000D03*
X110785000Y-107433000D03*
X111435000Y-107433000D03*
X112085000Y-107433000D03*
X112735000Y-107433000D03*
X113385000Y-107433000D03*
X114035000Y-107433000D03*
D41*
X111760000Y-104495000D03*
D22*
X59690000Y-129360000D03*
X59690000Y-132260000D03*
D42*
X71735000Y-161415000D03*
X71735000Y-162685000D03*
X71735000Y-163955000D03*
X71735000Y-165225000D03*
X71735000Y-166495000D03*
X71735000Y-167765000D03*
X71735000Y-169035000D03*
X71735000Y-170305000D03*
X76685000Y-170305000D03*
X76685000Y-169035000D03*
X76685000Y-167765000D03*
X76685000Y-166495000D03*
X76685000Y-165225000D03*
X76685000Y-163955000D03*
X76685000Y-162685000D03*
X76685000Y-161415000D03*
D43*
X66437000Y-164470000D03*
X66437000Y-155870000D03*
X66437000Y-161070000D03*
X59137000Y-154970000D03*
X59137000Y-164870000D03*
D39*
X133350000Y-120650000D03*
X128300000Y-120650000D03*
X133350000Y-118110000D03*
X128300000Y-118110000D03*
X133350000Y-115570000D03*
X128300000Y-115570000D03*
X133350000Y-113030000D03*
X128300000Y-113030000D03*
X133350000Y-110490000D03*
X128300000Y-110490000D03*
X133350000Y-107950000D03*
X128300000Y-107950000D03*
X133350000Y-105410000D03*
X128300000Y-105410000D03*
X133350000Y-102870000D03*
X128300000Y-102870000D03*
X133350000Y-100330000D03*
X128300000Y-100330000D03*
X133350000Y-97790000D03*
X128300000Y-97790000D03*
D11*
X139065000Y-105048000D03*
D17*
X80110000Y-165650000D03*
X81760000Y-165650000D03*
D12*
X103187000Y-80140000D03*
D13*
X105727000Y-80140000D03*
X108267000Y-80140000D03*
X110807000Y-80140000D03*
D34*
X50165000Y-124016000D03*
X50165000Y-125666000D03*
D29*
X110310000Y-114300000D03*
X113210000Y-114300000D03*
D12*
X148463000Y-115570000D03*
D13*
X145923000Y-115570000D03*
D11*
X70057000Y-157920000D03*
X68580000Y-122555000D03*
D13*
X71120000Y-122555000D03*
D12*
X136525000Y-147955000D03*
D13*
X136525000Y-150495000D03*
D44*
X63500000Y-142250000D03*
X123500000Y-142250000D03*
X148500000Y-86050000D03*
X68500000Y-86050000D03*
D45*
X55500000Y-137450000D03*
X55500000Y-122450000D03*
X80500000Y-105850000D03*
X80500000Y-90850000D03*
D12*
X71297800Y-94950000D03*
D13*
X71297800Y-97490000D03*
X71297800Y-100030000D03*
X71297800Y-102570000D03*
X71297800Y-105110000D03*
X71297800Y-107650000D03*
D12*
X143687800Y-107650000D03*
D13*
X143687800Y-105110000D03*
X143687800Y-102570000D03*
X143687800Y-100030000D03*
X143687800Y-97490000D03*
D11*
X143687800Y-94950000D03*
X78987000Y-173320000D03*
X86087000Y-173460000D03*
D23*
X80190000Y-151245000D03*
X80190000Y-152795000D03*
D20*
X140843000Y-122300000D03*
X140843000Y-120650000D03*
D34*
X92475000Y-160415000D03*
X92475000Y-162065000D03*
D46*
X110490000Y-57785000D03*
D28*
X108490000Y-57785000D03*
X106490000Y-57785000D03*
D11*
X87427000Y-155030000D03*
D47*
X114808000Y-96143000D03*
X114808000Y-93218000D03*
D48*
X151765000Y-120650000D03*
D49*
X154305000Y-120650000D03*
X156845000Y-120650000D03*
X159385000Y-120650000D03*
D48*
X151765000Y-118110000D03*
D49*
X154305000Y-118110000D03*
X156845000Y-118110000D03*
X159385000Y-118110000D03*
D11*
X76073000Y-116586000D03*
D12*
X164211000Y-81407000D03*
D13*
X166751000Y-81407000D03*
D50*
X74140000Y-83135000D03*
X76440000Y-83135000D03*
X78740000Y-83135000D03*
D51*
X76440000Y-76835000D03*
D34*
X74930000Y-100140000D03*
X74930000Y-101790000D03*
D47*
X108458000Y-96143000D03*
X108458000Y-93218000D03*
D29*
X106680000Y-66675000D03*
X109580000Y-66675000D03*
D22*
X82804000Y-81460000D03*
X82804000Y-78560000D03*
D11*
X76073000Y-97536000D03*
X53340000Y-129940000D03*
D34*
X65210000Y-168035000D03*
X65210000Y-169685000D03*
D52*
X137207000Y-155560000D03*
X165207000Y-155560000D03*
D50*
X68580000Y-127660000D03*
X66280000Y-127660000D03*
X63980000Y-127660000D03*
D51*
X66280000Y-133960000D03*
D11*
X50673000Y-139827000D03*
D13*
X50673000Y-137287000D03*
D12*
X129032000Y-84770000D03*
D13*
X126492000Y-84770000D03*
D11*
X62707000Y-167030000D03*
X75184000Y-122555000D03*
X52070000Y-80010000D03*
D13*
X54610000Y-80010000D03*
D53*
X158223949Y-42399949D03*
D54*
X165408154Y-49584154D03*
D55*
X161816051Y-45992051D03*
X155593512Y-39769512D03*
X166977931Y-51153931D03*
D56*
X128333988Y-27752934D03*
D57*
X138339635Y-29517199D03*
D58*
X133336812Y-28635066D03*
X124670501Y-27106962D03*
X140525908Y-29902698D03*
D59*
X50165000Y-118745000D03*
X114808000Y-91440000D03*
X116387000Y-40030000D03*
X84582000Y-69850000D03*
X76440000Y-75198000D03*
X140716000Y-69850000D03*
X114257000Y-53050000D03*
X113792000Y-111252000D03*
X113257000Y-60980000D03*
X113357000Y-42430000D03*
X78760000Y-159300000D03*
X125476000Y-118110000D03*
D60*
X111760000Y-104495000D03*
D59*
X111506000Y-66548000D03*
X66294000Y-136144000D03*
X79180000Y-169850000D03*
X118477000Y-60980000D03*
X85120000Y-122398000D03*
X108458000Y-91440000D03*
X116078000Y-103600000D03*
X62230000Y-127000000D03*
X52070000Y-127000000D03*
X116078000Y-124714000D03*
X95504000Y-114300000D03*
X96012000Y-45974000D03*
X121810000Y-114260000D03*
X148844000Y-97790000D03*
X146812000Y-105918000D03*
X122428000Y-73660000D03*
X122428000Y-106680000D03*
X120904000Y-52324000D03*
X121158000Y-101600000D03*
X133247000Y-83150000D03*
X133267000Y-88410000D03*
X135890000Y-100330000D03*
X137922000Y-128778000D03*
X137922000Y-120650000D03*
X136652000Y-97790000D03*
X134617000Y-83200000D03*
X134597000Y-88390000D03*
X148590000Y-130175000D03*
X96520000Y-123825000D03*
X96520000Y-86995000D03*
X118364000Y-88392000D03*
X118364000Y-103886000D03*
X119888000Y-84074000D03*
X119888000Y-105410000D03*
X104140000Y-44196000D03*
X98552000Y-115570000D03*
X101854000Y-45974000D03*
X97790000Y-113030000D03*
X165710000Y-67818000D03*
X73990000Y-162460000D03*
X74340000Y-158310000D03*
X80175000Y-149555000D03*
X68072000Y-89154000D03*
X110310000Y-117602000D03*
X72898000Y-125730000D03*
X110236000Y-127762000D03*
X102362000Y-96266000D03*
X102362000Y-109220000D03*
X99568000Y-99822000D03*
X99568000Y-107442000D03*
X121910000Y-116860000D03*
X140970000Y-81915000D03*
X123825000Y-81915000D03*
X123190000Y-120650000D03*
X137795000Y-95885000D03*
X72230000Y-155720000D03*
X83000000Y-163210000D03*
X82640000Y-165650000D03*
X78270000Y-154790000D03*
X83100000Y-154530000D03*
X69687000Y-166510000D03*
D61*
X114232000Y-53025000D02*
X114257000Y-53050000D01*
D62*
X71465000Y-168035000D02*
X71735000Y-167765000D01*
D61*
X128300000Y-118110000D02*
X125476000Y-118110000D01*
X59690000Y-132260000D02*
X64580000Y-132260000D01*
D62*
X79180000Y-169850000D02*
X80800000Y-169850000D01*
X128333988Y-27752934D02*
X127447934Y-27752934D01*
D61*
X138610000Y-69850000D02*
X140716000Y-69850000D01*
D62*
X81780000Y-167320000D02*
X80110000Y-165650000D01*
D63*
X111353000Y-104902000D02*
X111760000Y-104495000D01*
X112085000Y-104820000D02*
X111760000Y-104495000D01*
D61*
X66280000Y-127660000D02*
X66280000Y-133960000D01*
X70104000Y-78814000D02*
X74461000Y-78814000D01*
D62*
X73979999Y-166495000D02*
X76685000Y-166495000D01*
D61*
X113665000Y-111125000D02*
X113792000Y-111252000D01*
X76440000Y-76835000D02*
X76440000Y-75198000D01*
D62*
X113257000Y-60980000D02*
X118477000Y-60980000D01*
D61*
X78165000Y-78560000D02*
X76440000Y-76835000D01*
D62*
X79265000Y-166495000D02*
X80110000Y-165650000D01*
D61*
X85120000Y-120650000D02*
X85120000Y-122398000D01*
X64580000Y-132260000D02*
X66280000Y-133960000D01*
D62*
X81780000Y-168090000D02*
X81780000Y-167320000D01*
X80355000Y-158440000D02*
X79620000Y-158440000D01*
X80800000Y-169850000D02*
X81780000Y-168870000D01*
D63*
X112735000Y-105470000D02*
X112735000Y-107433000D01*
D61*
X113210000Y-114300000D02*
X113210000Y-111834000D01*
X66280000Y-133960000D02*
X66280000Y-136130000D01*
D63*
X111760000Y-104495000D02*
X112735000Y-105470000D01*
D62*
X67210000Y-168035000D02*
X71465000Y-168035000D01*
D63*
X111252000Y-104902000D02*
X111353000Y-104902000D01*
D61*
X76454000Y-75184000D02*
X76440000Y-75198000D01*
D63*
X110785000Y-107433000D02*
X110785000Y-105470000D01*
X114808000Y-93218000D02*
X114808000Y-91440000D01*
D62*
X113357000Y-42430000D02*
X113987000Y-42430000D01*
D61*
X82730000Y-69850000D02*
X84582000Y-69850000D01*
X66280000Y-136130000D02*
X66294000Y-136144000D01*
D62*
X72709999Y-167765000D02*
X73979999Y-166495000D01*
D63*
X112085000Y-107433000D02*
X112085000Y-104820000D01*
D62*
X113987000Y-42430000D02*
X116387000Y-40030000D01*
D61*
X109580000Y-66675000D02*
X111379000Y-66675000D01*
D62*
X76685000Y-166495000D02*
X79265000Y-166495000D01*
D64*
X50165000Y-120142000D02*
X50165000Y-118745000D01*
D63*
X111252000Y-105003000D02*
X111252000Y-104902000D01*
D61*
X76440000Y-83135000D02*
X76440000Y-76835000D01*
D63*
X108458000Y-93218000D02*
X108458000Y-91440000D01*
D61*
X74461000Y-78814000D02*
X76440000Y-76835000D01*
X82804000Y-78560000D02*
X78165000Y-78560000D01*
X68160000Y-132080000D02*
X66280000Y-133960000D01*
D62*
X79620000Y-158440000D02*
X78760000Y-159300000D01*
D61*
X113210000Y-111834000D02*
X113792000Y-111252000D01*
X85090000Y-122428000D02*
X85120000Y-122398000D01*
X114232000Y-52050000D02*
X114232000Y-53025000D01*
D62*
X81780000Y-168870000D02*
X81780000Y-168090000D01*
D61*
X111379000Y-66675000D02*
X111506000Y-66548000D01*
D62*
X71735000Y-167765000D02*
X72709999Y-167765000D01*
D61*
X73025000Y-132080000D02*
X68160000Y-132080000D01*
D63*
X110785000Y-105470000D02*
X111252000Y-105003000D01*
D61*
X112395000Y-111125000D02*
X113665000Y-111125000D01*
X146297000Y-100030000D02*
X146297000Y-97860000D01*
X154305000Y-120650000D02*
X154305000Y-123825000D01*
X140827000Y-77530000D02*
X138127000Y-74830000D01*
X151130000Y-102870000D02*
X151130000Y-112903000D01*
X148255000Y-100030000D02*
X148272500Y-100012500D01*
X146297000Y-100030000D02*
X148255000Y-100030000D01*
D64*
X52070000Y-127000000D02*
X51499000Y-127000000D01*
D61*
X151130000Y-112903000D02*
X148463000Y-115570000D01*
D65*
X143687800Y-100030000D02*
X139810000Y-100030000D01*
D61*
X116332000Y-125730000D02*
X132715000Y-125730000D01*
X148267000Y-95890000D02*
X148267000Y-95470000D01*
X148267000Y-95470000D02*
X148307000Y-95430000D01*
X148307000Y-92040000D02*
X145147000Y-88880000D01*
X67183000Y-122555000D02*
X68580000Y-122555000D01*
X145147000Y-88880000D02*
X145147000Y-83380000D01*
D63*
X116078000Y-124714000D02*
X116078000Y-125476000D01*
D61*
X71120000Y-122555000D02*
X68580000Y-122555000D01*
X115750000Y-48982000D02*
X112682000Y-52050000D01*
X75311000Y-122555000D02*
X78486000Y-125730000D01*
X78486000Y-125730000D02*
X116332000Y-125730000D01*
X71120000Y-122555000D02*
X75311000Y-122555000D01*
X145147000Y-83380000D02*
X140827000Y-79060000D01*
X62280000Y-129360000D02*
X63980000Y-127660000D01*
X132080000Y-126365000D02*
X132715000Y-125730000D01*
D65*
X139810000Y-100030000D02*
X139700000Y-100140000D01*
D61*
X132080000Y-143510000D02*
X132080000Y-126365000D01*
D63*
X116078000Y-103600000D02*
X114035000Y-101557000D01*
D61*
X140843000Y-122300000D02*
X140843000Y-125603000D01*
X148463000Y-115570000D02*
X149225000Y-115570000D01*
X140843000Y-125603000D02*
X140970000Y-125730000D01*
X136525000Y-147955000D02*
X132080000Y-143510000D01*
D63*
X116078000Y-125476000D02*
X116332000Y-125730000D01*
D61*
X63980000Y-127660000D02*
X63980000Y-125758000D01*
X146297000Y-97860000D02*
X148267000Y-95890000D01*
D65*
X74150000Y-102570000D02*
X74930000Y-101790000D01*
D61*
X140827000Y-79060000D02*
X140827000Y-77530000D01*
X132715000Y-125730000D02*
X140970000Y-125730000D01*
X152400000Y-125730000D02*
X154305000Y-123825000D01*
D64*
X62865000Y-127000000D02*
X62230000Y-127000000D01*
X51499000Y-127000000D02*
X50165000Y-125666000D01*
D61*
X59690000Y-129360000D02*
X62280000Y-129360000D01*
D64*
X63525000Y-127660000D02*
X62865000Y-127000000D01*
D61*
X115750000Y-48920000D02*
X115750000Y-48982000D01*
X140970000Y-125730000D02*
X152400000Y-125730000D01*
X148272500Y-100012500D02*
X151130000Y-102870000D01*
X148307000Y-95430000D02*
X148307000Y-92040000D01*
X138127000Y-74830000D02*
X137212000Y-74830000D01*
X149225000Y-115570000D02*
X151765000Y-118110000D01*
X143500000Y-100030000D02*
X146297000Y-100030000D01*
X63980000Y-125758000D02*
X67183000Y-122555000D01*
X151765000Y-118110000D02*
X154305000Y-120650000D01*
X59690000Y-129360000D02*
X59690000Y-129032000D01*
D65*
X71297800Y-102570000D02*
X74150000Y-102570000D01*
D61*
X63980000Y-127660000D02*
X63525000Y-127660000D01*
D64*
X96012000Y-39370000D02*
X88900000Y-32258000D01*
X88900000Y-32258000D02*
X88751522Y-32258000D01*
X88751522Y-32258000D02*
X85128588Y-28635066D01*
X85598000Y-114300000D02*
X85120000Y-113822000D01*
X95504000Y-114300000D02*
X85598000Y-114300000D01*
X96012000Y-45974000D02*
X96012000Y-39370000D01*
X85120000Y-113822000D02*
X85120000Y-113030000D01*
D66*
X86360000Y-86995000D02*
X83820000Y-89535000D01*
X93980000Y-79375000D02*
X93980000Y-85090000D01*
X92075000Y-86995000D02*
X86360000Y-86995000D01*
D65*
X85120000Y-107950000D02*
X83312000Y-107950000D01*
D66*
X93980000Y-85090000D02*
X92075000Y-86995000D01*
X82550000Y-102616000D02*
X82804000Y-102870000D01*
D65*
X83312000Y-107950000D02*
X82804000Y-107442000D01*
D62*
X86360000Y-107950000D02*
X85090000Y-107950000D01*
D65*
X82804000Y-107442000D02*
X82804000Y-102870000D01*
D66*
X82550000Y-95885000D02*
X82550000Y-102616000D01*
X83820000Y-94615000D02*
X82550000Y-95885000D01*
X83820000Y-89535000D02*
X83820000Y-94615000D01*
D62*
X86360000Y-102870000D02*
X85090000Y-102870000D01*
D64*
X133350000Y-118110000D02*
X132080000Y-118110000D01*
D62*
X130410000Y-114260000D02*
X131640000Y-113030000D01*
X130410000Y-114260000D02*
X121810000Y-114260000D01*
X131640000Y-113030000D02*
X133350000Y-113030000D01*
D64*
X144526000Y-110490000D02*
X146812000Y-108204000D01*
X148844000Y-97790000D02*
X149860000Y-96774000D01*
X133350000Y-110490000D02*
X144526000Y-110490000D01*
X146087000Y-63537000D02*
X146050000Y-63500000D01*
X149860000Y-96774000D02*
X149860000Y-90932000D01*
X149860000Y-90932000D02*
X146087000Y-87159000D01*
X146087000Y-87159000D02*
X146087000Y-63537000D01*
X146812000Y-108204000D02*
X146812000Y-105918000D01*
X119888000Y-58166000D02*
X110871000Y-58166000D01*
X122428000Y-60706000D02*
X119888000Y-58166000D01*
X133350000Y-107950000D02*
X132080000Y-106680000D01*
X110871000Y-58166000D02*
X110490000Y-57785000D01*
X132080000Y-106680000D02*
X122428000Y-106680000D01*
X122428000Y-73660000D02*
X122428000Y-60706000D01*
X133350000Y-102870000D02*
X132080000Y-101600000D01*
X120904000Y-52324000D02*
X120904000Y-48514000D01*
X120904000Y-48514000D02*
X119634000Y-47244000D01*
X74149949Y-45992051D02*
X55607949Y-45992051D01*
X74168000Y-45974000D02*
X74149949Y-45992051D01*
X119634000Y-47244000D02*
X75438000Y-47244000D01*
X75438000Y-47244000D02*
X74168000Y-45974000D01*
X132080000Y-101600000D02*
X121158000Y-101600000D01*
X137922000Y-128778000D02*
X154432000Y-128778000D01*
X156845000Y-126365000D02*
X156845000Y-120650000D01*
X133350000Y-100330000D02*
X135890000Y-100330000D01*
X133267000Y-88410000D02*
X133267000Y-83170000D01*
X154432000Y-128778000D02*
X156845000Y-126365000D01*
X133267000Y-83170000D02*
X133247000Y-83150000D01*
X156845000Y-120650000D02*
X156845000Y-118110000D01*
X140843000Y-120650000D02*
X137922000Y-120650000D01*
D62*
X148590000Y-130175000D02*
X157480000Y-130175000D01*
X159385000Y-128270000D02*
X159385000Y-120650000D01*
X159385000Y-120650000D02*
X159385000Y-118110000D01*
D64*
X134597000Y-88390000D02*
X134617000Y-88370000D01*
X135747000Y-79060000D02*
X135747000Y-75015000D01*
X134617000Y-88370000D02*
X134617000Y-83200000D01*
D62*
X157480000Y-130175000D02*
X159385000Y-128270000D01*
D64*
X135747000Y-75015000D02*
X135562000Y-74830000D01*
X133350000Y-97790000D02*
X136652000Y-97790000D01*
X85120000Y-118110000D02*
X83058000Y-118110000D01*
D62*
X121920000Y-85725000D02*
X120650000Y-86995000D01*
D64*
X82296000Y-122428000D02*
X83693000Y-123825000D01*
X83693000Y-123825000D02*
X96520000Y-123825000D01*
X82296000Y-118872000D02*
X82296000Y-122428000D01*
D62*
X125537000Y-85725000D02*
X126492000Y-84770000D01*
D64*
X83058000Y-118110000D02*
X82296000Y-118872000D01*
D62*
X121920000Y-85725000D02*
X125537000Y-85725000D01*
D64*
X120650000Y-86995000D02*
X96520000Y-86995000D01*
X100330000Y-104648000D02*
X97282000Y-101600000D01*
X109220000Y-104648000D02*
X100330000Y-104648000D01*
X110135000Y-107433000D02*
X110135000Y-105563000D01*
X110135000Y-105563000D02*
X109220000Y-104648000D01*
X86390000Y-101600000D02*
X85120000Y-100330000D01*
X97282000Y-101600000D02*
X86390000Y-101600000D01*
X116840000Y-105410000D02*
X118364000Y-103886000D01*
X85090000Y-89662000D02*
X85120000Y-89692000D01*
X118364000Y-88392000D02*
X86360000Y-88392000D01*
X86360000Y-88392000D02*
X85090000Y-89662000D01*
X113385000Y-107433000D02*
X113385000Y-106325000D01*
X113385000Y-106325000D02*
X114300000Y-105410000D01*
X114300000Y-105410000D02*
X116840000Y-105410000D01*
X85120000Y-89692000D02*
X85120000Y-97790000D01*
X117348000Y-81534000D02*
X117348000Y-73152000D01*
X117348000Y-73152000D02*
X116078000Y-71882000D01*
X88900000Y-62992000D02*
X86822872Y-60914872D01*
X116078000Y-71882000D02*
X92202000Y-71882000D01*
X119888000Y-84074000D02*
X117348000Y-81534000D01*
X86822872Y-60914872D02*
X73768949Y-60914872D01*
X128300000Y-105410000D02*
X119888000Y-105410000D01*
X92202000Y-71882000D02*
X88900000Y-68580000D01*
X88900000Y-68580000D02*
X88900000Y-62992000D01*
X109485000Y-107433000D02*
X109485000Y-108447000D01*
X109485000Y-108447000D02*
X108712000Y-109220000D01*
X105410000Y-119634000D02*
X104394000Y-120650000D01*
X106172000Y-109220000D02*
X105410000Y-109982000D01*
X105410000Y-109982000D02*
X105410000Y-119634000D01*
X104394000Y-120650000D02*
X90170000Y-120650000D01*
X108712000Y-109220000D02*
X106172000Y-109220000D01*
X114808000Y-121920000D02*
X114300000Y-122428000D01*
X114300000Y-122428000D02*
X88392000Y-122428000D01*
X114035000Y-107433000D02*
X114035000Y-109209000D01*
X88392000Y-122428000D02*
X87630000Y-121666000D01*
X88392000Y-118110000D02*
X90170000Y-118110000D01*
X114035000Y-109209000D02*
X114808000Y-109982000D01*
X114808000Y-109982000D02*
X114808000Y-121920000D01*
X87630000Y-121666000D02*
X87630000Y-118872000D01*
X87630000Y-118872000D02*
X88392000Y-118110000D01*
X107950000Y-35052000D02*
X130302000Y-35052000D01*
X90170000Y-115570000D02*
X98552000Y-115570000D01*
X133336812Y-32017188D02*
X133336812Y-28635066D01*
X104140000Y-44196000D02*
X104140000Y-38862000D01*
X104140000Y-38862000D02*
X107950000Y-35052000D01*
X130302000Y-35052000D02*
X133336812Y-32017188D01*
X101872051Y-45992051D02*
X161816051Y-45992051D01*
X90170000Y-113030000D02*
X97790000Y-113030000D01*
X101854000Y-45974000D02*
X101872051Y-45992051D01*
D61*
X79830000Y-72972000D02*
X79830000Y-69850000D01*
X86360000Y-74168000D02*
X81026000Y-74168000D01*
X106680000Y-66675000D02*
X106680000Y-57975000D01*
X135710000Y-69850000D02*
X135710000Y-68183146D01*
X82804000Y-81460000D02*
X80415000Y-81460000D01*
X106490000Y-56578000D02*
X108966000Y-54102000D01*
X166878000Y-67818000D02*
X165710000Y-67818000D01*
X52705000Y-74295000D02*
X52705000Y-79375000D01*
X105537000Y-57785000D02*
X106490000Y-57785000D01*
X105156000Y-57404000D02*
X105537000Y-57785000D01*
X70940522Y-63743299D02*
X69850000Y-62652777D01*
X73914000Y-57404000D02*
X105156000Y-57404000D01*
X86180000Y-81460000D02*
X87376000Y-80264000D01*
X69850000Y-62652777D02*
X69850000Y-61468000D01*
X167640000Y-75565000D02*
X167640000Y-68580000D01*
X69850000Y-61468000D02*
X73914000Y-57404000D01*
X52705000Y-79375000D02*
X52070000Y-80010000D01*
X87376000Y-80264000D02*
X87376000Y-75184000D01*
X166751000Y-76454000D02*
X167640000Y-75565000D01*
X80415000Y-81460000D02*
X78740000Y-83135000D01*
X87376000Y-75184000D02*
X86360000Y-74168000D01*
X106490000Y-57785000D02*
X106490000Y-56578000D01*
X108966000Y-54102000D02*
X136652000Y-54102000D01*
X167640000Y-68580000D02*
X166878000Y-67818000D01*
X165710000Y-67818000D02*
X165608000Y-67818000D01*
X70940522Y-63743299D02*
X63256701Y-63743299D01*
X166751000Y-81407000D02*
X166751000Y-76454000D01*
X136652000Y-54102000D02*
X143221573Y-60671573D01*
X54610000Y-80010000D02*
X52070000Y-80010000D01*
X82804000Y-81460000D02*
X86180000Y-81460000D01*
X81026000Y-74168000D02*
X79830000Y-72972000D01*
X63256701Y-63743299D02*
X52705000Y-74295000D01*
X135710000Y-68183146D02*
X143221573Y-60671573D01*
X79830000Y-69850000D02*
X77047223Y-69850000D01*
X106680000Y-57975000D02*
X106490000Y-57785000D01*
X77047223Y-69850000D02*
X70940522Y-63743299D01*
X80190000Y-151245000D02*
X79395000Y-151245000D01*
X77710000Y-152930000D02*
X74340000Y-156300000D01*
X79395000Y-151245000D02*
X77710000Y-152930000D01*
X80175000Y-149555000D02*
X80175000Y-151230000D01*
X80190000Y-151245000D02*
X82400000Y-151245000D01*
X80175000Y-151230000D02*
X80190000Y-151245000D01*
X71960000Y-162460000D02*
X71735000Y-162685000D01*
X73990000Y-162460000D02*
X71960000Y-162460000D01*
X82400000Y-151245000D02*
X83075000Y-151920000D01*
X74340000Y-158310000D02*
X74340000Y-158350000D01*
X74340000Y-156300000D02*
X74340000Y-158310000D01*
D63*
X118364000Y-98298000D02*
X122682000Y-93980000D01*
X122682000Y-93980000D02*
X139700000Y-93980000D01*
X143687800Y-94950000D02*
X140670000Y-94950000D01*
X113385000Y-99975000D02*
X115062000Y-98298000D01*
X140670000Y-94950000D02*
X139700000Y-93980000D01*
X115062000Y-98298000D02*
X118364000Y-98298000D01*
X113385000Y-101557000D02*
X113385000Y-99975000D01*
D61*
X69805000Y-90850000D02*
X80500000Y-90850000D01*
X55500000Y-129920000D02*
X67310000Y-118110000D01*
X55480000Y-129940000D02*
X55500000Y-129920000D01*
X55500000Y-137450000D02*
X55500000Y-129920000D01*
X67310000Y-93345000D02*
X69805000Y-90850000D01*
X53340000Y-129940000D02*
X55480000Y-129940000D01*
X67310000Y-118110000D02*
X67310000Y-93345000D01*
X110845000Y-113765000D02*
X110310000Y-114300000D01*
X70100000Y-129180000D02*
X68580000Y-127660000D01*
X76200000Y-136652000D02*
X74676000Y-138176000D01*
X75078000Y-129180000D02*
X76200000Y-130302000D01*
X75438000Y-127762000D02*
X110236000Y-127762000D01*
X73025000Y-129180000D02*
X75078000Y-129180000D01*
X74676000Y-138176000D02*
X70744000Y-138176000D01*
X74020000Y-129180000D02*
X75438000Y-127762000D01*
X68961000Y-139959000D02*
X68961000Y-142499000D01*
X72136000Y-89154000D02*
X74140000Y-87150000D01*
D67*
X111435000Y-107433000D02*
X111435000Y-109291000D01*
D61*
X68961000Y-146939000D02*
X69088000Y-147066000D01*
X73025000Y-129180000D02*
X73025000Y-125857000D01*
X73025000Y-129180000D02*
X74020000Y-129180000D01*
X110310000Y-117602000D02*
X110310000Y-114300000D01*
X73025000Y-129180000D02*
X70100000Y-129180000D01*
X72719000Y-81714000D02*
X74140000Y-83135000D01*
X73025000Y-125857000D02*
X72898000Y-125730000D01*
X111435000Y-109291000D02*
X110845000Y-109881000D01*
X110845000Y-109881000D02*
X110845000Y-111125000D01*
X70104000Y-81714000D02*
X72719000Y-81714000D01*
X68961000Y-142499000D02*
X68961000Y-146939000D01*
X70744000Y-138176000D02*
X68961000Y-139959000D01*
X110845000Y-111125000D02*
X110845000Y-113765000D01*
X76200000Y-130302000D02*
X76200000Y-136652000D01*
X68072000Y-89154000D02*
X72136000Y-89154000D01*
X74140000Y-87150000D02*
X74140000Y-83135000D01*
D63*
X143256000Y-89916000D02*
X146558000Y-93218000D01*
X144826000Y-97490000D02*
X143687800Y-97490000D01*
X146558000Y-95758000D02*
X144826000Y-97490000D01*
X143606800Y-97409000D02*
X143687800Y-97490000D01*
X113792000Y-89916000D02*
X143256000Y-89916000D01*
D62*
X143500000Y-97490000D02*
X144445000Y-97490000D01*
D64*
X143256000Y-89916000D02*
X143567000Y-89605000D01*
X143567000Y-89605000D02*
X143567000Y-85475000D01*
D63*
X112085000Y-91623000D02*
X113792000Y-89916000D01*
X146558000Y-93218000D02*
X146558000Y-95758000D01*
D64*
X143567000Y-85475000D02*
X143006000Y-84914000D01*
D63*
X112085000Y-101557000D02*
X112085000Y-91623000D01*
X73152000Y-109474000D02*
X73533000Y-109855000D01*
X111435000Y-101557000D02*
X111435000Y-91623000D01*
X109728000Y-89916000D02*
X103632000Y-89916000D01*
X99822000Y-111760000D02*
X77470000Y-111760000D01*
D64*
X77470000Y-115316000D02*
X77470000Y-111760000D01*
D63*
X73121800Y-109474000D02*
X73152000Y-109474000D01*
X111435000Y-91623000D02*
X109728000Y-89916000D01*
X77470000Y-111760000D02*
X75565000Y-109855000D01*
X73533000Y-109855000D02*
X75565000Y-109855000D01*
X102362000Y-91186000D02*
X102362000Y-96266000D01*
D64*
X76200000Y-116586000D02*
X77470000Y-115316000D01*
D63*
X103632000Y-89916000D02*
X102362000Y-91186000D01*
X71297800Y-107650000D02*
X73121800Y-109474000D01*
X102362000Y-109220000D02*
X99822000Y-111760000D01*
X71297800Y-105110000D02*
X74630000Y-105110000D01*
X81788000Y-110490000D02*
X78486000Y-110490000D01*
X83058000Y-109220000D02*
X81788000Y-110490000D01*
X78486000Y-110490000D02*
X77724000Y-109728000D01*
X74630000Y-105110000D02*
X75565000Y-106045000D01*
X108966000Y-98044000D02*
X101346000Y-98044000D01*
X110135000Y-101557000D02*
X110135000Y-99213000D01*
X77724000Y-108204000D02*
X75565000Y-106045000D01*
X77724000Y-109728000D02*
X77724000Y-108204000D01*
X101346000Y-98044000D02*
X99568000Y-99822000D01*
D64*
X69215000Y-113411000D02*
X69215000Y-107192800D01*
D63*
X110135000Y-99213000D02*
X108966000Y-98044000D01*
D64*
X72390000Y-116586000D02*
X69215000Y-113411000D01*
X69215000Y-107192800D02*
X71297800Y-105110000D01*
D63*
X99568000Y-107442000D02*
X97790000Y-109220000D01*
X97790000Y-109220000D02*
X83058000Y-109220000D01*
D61*
X135255000Y-120650000D02*
X138430000Y-117475000D01*
X133350000Y-120650000D02*
X135255000Y-120650000D01*
X144018000Y-117475000D02*
X145923000Y-115570000D01*
X138430000Y-117475000D02*
X144018000Y-117475000D01*
D62*
X121910000Y-116860000D02*
X132060000Y-116860000D01*
X132060000Y-116860000D02*
X133350000Y-115570000D01*
X132100000Y-115570000D02*
X133350000Y-115570000D01*
D64*
X50165000Y-121792000D02*
X50165000Y-124016000D01*
D63*
X112735000Y-101557000D02*
X112735000Y-96565000D01*
X112735000Y-96565000D02*
X113157000Y-96143000D01*
X113157000Y-96143000D02*
X114808000Y-96143000D01*
X110785000Y-101557000D02*
X110785000Y-97200000D01*
X109728000Y-96143000D02*
X108458000Y-96143000D01*
X110785000Y-97200000D02*
X109728000Y-96143000D01*
X107907000Y-101557000D02*
X106680000Y-100330000D01*
X109485000Y-101557000D02*
X107907000Y-101557000D01*
D61*
X123825000Y-81915000D02*
X140970000Y-81915000D01*
X128300000Y-120650000D02*
X123190000Y-120650000D01*
D64*
X71297800Y-97490000D02*
X76073000Y-97490000D01*
X139065000Y-105110000D02*
X143687800Y-105110000D01*
D61*
X69088000Y-149606000D02*
X60263500Y-149606000D01*
D65*
X139700000Y-101790000D02*
X138620000Y-101790000D01*
X140480000Y-102570000D02*
X139700000Y-101790000D01*
X138620000Y-101790000D02*
X137795000Y-100965000D01*
X143687800Y-102570000D02*
X140480000Y-102570000D01*
X137795000Y-100965000D02*
X137795000Y-95885000D01*
X80645000Y-99695000D02*
X81915000Y-98425000D01*
X81915000Y-95250000D02*
X83185000Y-93980000D01*
X74820000Y-100030000D02*
X74930000Y-100140000D01*
X76200000Y-99695000D02*
X80645000Y-99695000D01*
X90170000Y-85725000D02*
X91440000Y-84455000D01*
X75755000Y-100140000D02*
X76200000Y-99695000D01*
X86360000Y-85725000D02*
X90170000Y-85725000D01*
X81915000Y-98425000D02*
X81915000Y-95250000D01*
X83185000Y-93980000D02*
X83185000Y-88900000D01*
X91440000Y-84455000D02*
X91440000Y-79375000D01*
X83185000Y-88900000D02*
X86360000Y-85725000D01*
X74930000Y-100140000D02*
X75755000Y-100140000D01*
X71297800Y-100030000D02*
X74820000Y-100030000D01*
D62*
X73809239Y-159800000D02*
X77119239Y-156490000D01*
X80265000Y-160410000D02*
X80315000Y-160360000D01*
X71047000Y-157920000D02*
X71487000Y-158360000D01*
X70760000Y-159800000D02*
X71467000Y-159800000D01*
X80265000Y-163120000D02*
X80265000Y-161730000D01*
X92460000Y-160430000D02*
X92475000Y-160415000D01*
X86545000Y-161730000D02*
X80265000Y-161730000D01*
X68402300Y-162157700D02*
X70760000Y-159800000D01*
X87845000Y-160430000D02*
X86545000Y-161730000D01*
X83905000Y-156490000D02*
X87845000Y-160430000D01*
X70057000Y-157920000D02*
X71047000Y-157920000D01*
X92475000Y-160415000D02*
X94950000Y-160415000D01*
X87845000Y-160430000D02*
X92460000Y-160430000D01*
X66870000Y-164420000D02*
X68402300Y-162887700D01*
X68402300Y-162887700D02*
X68402300Y-162157700D01*
X71487000Y-158360000D02*
X71487000Y-159780000D01*
X77119239Y-156490000D02*
X83905000Y-156490000D01*
X80265000Y-161730000D02*
X80265000Y-160410000D01*
X94950000Y-160415000D02*
X95060000Y-160525000D01*
X71467000Y-159800000D02*
X73809239Y-159800000D01*
X71487000Y-159780000D02*
X71467000Y-159800000D01*
X66437000Y-155870000D02*
X66437000Y-161070000D01*
X80670000Y-154530000D02*
X83100000Y-154530000D01*
X80840000Y-164730000D02*
X81760000Y-165650000D01*
X81760000Y-165650000D02*
X82640000Y-165650000D01*
X85337000Y-154470000D02*
X83160000Y-154470000D01*
X77180000Y-164730000D02*
X80840000Y-164730000D01*
X87427000Y-155030000D02*
X85897000Y-155030000D01*
X78270000Y-154790000D02*
X80410000Y-154790000D01*
X83160000Y-154470000D02*
X83100000Y-154530000D01*
X83000000Y-163210000D02*
X81905000Y-163210000D01*
X76685000Y-165225000D02*
X77180000Y-164730000D01*
X80410000Y-154790000D02*
X80670000Y-154530000D01*
X66870000Y-155819999D02*
X72130001Y-155819999D01*
X80190000Y-154050000D02*
X80670000Y-154530000D01*
X85897000Y-155030000D02*
X85337000Y-154470000D01*
X80190000Y-152795000D02*
X80190000Y-154050000D01*
X72130001Y-155819999D02*
X72230000Y-155720000D01*
X81905000Y-163210000D02*
X81815000Y-163120000D01*
X81905000Y-157615000D02*
X81905000Y-158440000D01*
X81965000Y-160360000D02*
X81965000Y-158500000D01*
X76685000Y-162685000D02*
X77075000Y-162685000D01*
X77075000Y-162685000D02*
X77100000Y-162660000D01*
X71735000Y-166495000D02*
X69702000Y-166495000D01*
X74020000Y-165184999D02*
X74020000Y-163980000D01*
X78420000Y-161924999D02*
X78420000Y-161030000D01*
X76685000Y-162685000D02*
X77659999Y-162685000D01*
X74020000Y-163980000D02*
X75315000Y-162685000D01*
X76910000Y-158340000D02*
X78360000Y-156890000D01*
X81180000Y-156890000D02*
X81905000Y-157615000D01*
X72709999Y-166495000D02*
X74020000Y-165184999D01*
X76910000Y-159520000D02*
X76910000Y-158340000D01*
X78420000Y-161030000D02*
X76910000Y-159520000D01*
X81965000Y-158500000D02*
X81905000Y-158440000D01*
X69702000Y-166495000D02*
X69687000Y-166510000D01*
X71735000Y-166495000D02*
X72709999Y-166495000D01*
X78360000Y-156890000D02*
X81180000Y-156890000D01*
X71660000Y-166570000D02*
X71735000Y-166495000D01*
X75315000Y-162685000D02*
X76685000Y-162685000D01*
X77659999Y-162685000D02*
X78420000Y-161924999D01*
X92485000Y-162075000D02*
X92475000Y-162065000D01*
X76685000Y-163955000D02*
X76790000Y-164060000D01*
X91220000Y-165510000D02*
X92475000Y-164255000D01*
X87845000Y-165510000D02*
X91220000Y-165510000D01*
X95060000Y-162075000D02*
X92485000Y-162075000D01*
X82010000Y-164060000D02*
X83460000Y-165510000D01*
X76790000Y-164060000D02*
X82010000Y-164060000D01*
X92475000Y-164255000D02*
X92475000Y-162065000D01*
X83460000Y-165510000D02*
X87845000Y-165510000D01*
X76795000Y-167765000D02*
X76840000Y-167720000D01*
X76685000Y-167765000D02*
X77025000Y-167765000D01*
X77010000Y-168090000D02*
X76685000Y-167765000D01*
X77025000Y-167765000D02*
X77200000Y-167940000D01*
X80230000Y-168090000D02*
X77010000Y-168090000D01*
X76685000Y-167765000D02*
X76795000Y-167765000D01*
X70760001Y-161415000D02*
X71735000Y-161415000D01*
X68880000Y-163295001D02*
X70760001Y-161415000D01*
X65210000Y-168035000D02*
X63712000Y-168035000D01*
X66090000Y-166470000D02*
X67830000Y-166470000D01*
X67830000Y-166470000D02*
X68880000Y-165420000D01*
X65210000Y-168035000D02*
X65210000Y-167350000D01*
X65210000Y-167350000D02*
X66090000Y-166470000D01*
X63712000Y-168035000D02*
X62707000Y-167030000D01*
X71735000Y-161415000D02*
X76685000Y-161415000D01*
X68880000Y-165420000D02*
X68880000Y-163295001D01*
X72472000Y-169035000D02*
X76767000Y-173330000D01*
X76937000Y-173320000D02*
X78987000Y-173320000D01*
X76927000Y-173330000D02*
X76937000Y-173320000D01*
X67210000Y-169685000D02*
X71085000Y-169685000D01*
X76767000Y-173330000D02*
X76927000Y-173330000D01*
X79047000Y-173640000D02*
X79167000Y-173640000D01*
X79217000Y-173690000D02*
X79167000Y-173640000D01*
X67210000Y-169685000D02*
X65210000Y-169685000D01*
X71085000Y-169685000D02*
X71735000Y-169035000D01*
X71735000Y-169035000D02*
X72472000Y-169035000D01*
M02*
