M48
; DRILL file {KiCad 8.0.7} date 2025-10-03T10:42:34-0400
; FORMAT={-:-/ absolute / inch / decimal}
; #@! TF.CreationDate,2025-10-03T10:42:34-04:00
; #@! TF.GenerationSoftware,Kicad,Pcbnew,8.0.7
; #@! TF.FileFunction,Plated,1,2,PTH
FMAT,2
INCH
; #@! TA.AperFunction,Plated,PTH,ViaDrill
T1C0.0157
; #@! TA.AperFunction,Plated,PTH,ComponentDrill
T2C0.0276
; #@! TA.AperFunction,Plated,PTH,ComponentDrill
T3C0.0354
; #@! TA.AperFunction,Plated,PTH,ComponentDrill
T4C0.0394
; #@! TA.AperFunction,Plated,PTH,ViaDrill
T5C0.0400
; #@! TA.AperFunction,Plated,PTH,ComponentDrill
T6C0.0400
; #@! TA.AperFunction,Plated,PTH,ComponentDrill
T7C0.0433
; #@! TA.AperFunction,Plated,PTH,ComponentDrill
T8C0.0500
; #@! TA.AperFunction,Plated,PTH,ComponentDrill
T9C0.0600
; #@! TA.AperFunction,Plated,PTH,ComponentDrill
T10C0.0700
; #@! TA.AperFunction,Plated,PTH,ComponentDrill
T11C0.0728
; #@! TA.AperFunction,Plated,PTH,ComponentDrill
T12C0.0827
; #@! TA.AperFunction,Plated,PTH,ComponentDrill
T13C0.0906
%
G90
G05
T1
X1.975Y-4.675
X2.05Y-5.0
X2.45Y-5.0
X2.61Y-5.36
X2.68Y-3.51
X2.7436Y-6.5555
X2.8437Y-6.1307
X2.87Y-4.95
X2.913Y-6.3961
X2.9268Y-6.2327
X3.0094Y-2.9606
X3.0815Y-6.0941
X3.1008Y-6.2717
X3.1173Y-6.687
X3.1565Y-5.888
X3.2535Y-6.5217
X3.2677Y-6.4256
X3.2717Y-6.0839
X3.33Y-2.75
X3.3512Y-4.8188
X3.76Y-4.5
X3.78Y-1.81
X3.8Y-3.425
X3.8Y-4.875
X3.85Y-4.45
X3.88Y-4.55
X3.92Y-3.93
X3.92Y-4.23
X4.01Y-1.81
X4.03Y-3.79
X4.03Y-4.3
X4.1Y-1.74
X4.27Y-3.6
X4.34Y-5.03
X4.3429Y-4.63
X4.39Y-2.62
X4.4589Y-2.4008
X4.4629Y-1.6705
X4.48Y-4.38
X4.4983Y-2.0886
X4.52Y-3.6
X4.57Y-4.0787
X4.57Y-4.91
X4.5822Y-1.576
X4.66Y-3.48
X4.66Y-4.09
X4.6644Y-2.4008
X4.72Y-3.31
X4.72Y-4.15
X4.76Y-2.06
X4.77Y-4.0
X4.7957Y-4.4984
X4.7996Y-4.6008
X4.82Y-2.9
X4.82Y-4.2
X4.85Y-4.75
X4.875Y-3.225
X4.94Y-4.65
X5.2459Y-3.2736
X5.2467Y-3.4807
X5.2991Y-3.4799
X5.2999Y-3.2756
X5.35Y-3.95
X5.38Y-3.85
X5.425Y-3.775
X5.43Y-4.75
X5.43Y-5.07
X5.54Y-2.75
X5.55Y-3.225
X5.78Y-4.17
X5.85Y-5.125
X5.86Y-3.85
X6.524Y-2.67
T2
X4.5289Y-6.1126
X4.5289Y-6.2701
T3
X2.7929Y-2.5096
X2.8486Y-2.4539
X2.9043Y-2.3982
X4.1925Y-2.275
X4.2713Y-2.275
X4.35Y-2.275
X5.6386Y-2.3886
X5.6943Y-2.4443
X5.75Y-2.5
T4
X1.995Y-5.405
X1.995Y-5.505
X2.05Y-3.15
X2.075Y-2.6
X2.075Y-2.925
X2.1Y-5.1157
X2.15Y-3.15
X2.4688Y-6.576
X2.7Y-4.825
X2.715Y-5.5102
X2.715Y-5.6102
X2.72Y-5.79
X2.72Y-5.89
X2.7581Y-6.2173
X2.8Y-4.825
X2.807Y-3.7382
X2.807Y-3.8382
X2.807Y-3.9382
X2.807Y-4.0382
X2.807Y-4.1382
X2.807Y-4.2382
X2.855Y-4.59
X2.96Y-4.825
X2.995Y-3.84
X2.995Y-4.59
X3.1Y-5.11
X3.1097Y-6.8236
X3.3893Y-6.8291
X3.442Y-6.1035
X3.6Y-3.125
X3.7Y-3.125
X3.9571Y-1.026
X3.9571Y-1.926
X4.0571Y-1.026
X4.0571Y-1.926
X4.0625Y-3.1551
X4.1571Y-1.026
X4.1571Y-1.926
X4.1625Y-3.1551
X4.2Y-3.95
X4.2571Y-1.026
X4.2571Y-1.926
X4.2625Y-3.1551
X4.3571Y-1.026
X4.3571Y-1.926
X4.3625Y-3.1551
X4.4571Y-1.026
X4.4571Y-1.926
X4.5571Y-1.026
X4.5571Y-1.926
X4.6571Y-1.026
X4.6571Y-1.926
X4.98Y-3.3374
X5.08Y-3.3374
X5.2444Y-3.1126
X5.3444Y-3.1126
X5.375Y-5.825
X5.375Y-5.925
X5.4444Y-3.1126
X5.475Y-4.1357
X5.5192Y-3.3457
X5.5444Y-3.1126
X5.6302Y-3.3431
X5.657Y-3.7382
X5.657Y-3.8382
X5.657Y-3.9382
X5.657Y-4.0382
X5.657Y-4.1382
X5.657Y-4.2382
X5.745Y-4.55
X5.845Y-4.55
X6.465Y-3.205
X6.565Y-3.205
T5
X4.4Y-4.114
T6
X5.975Y-4.65
X5.975Y-4.75
X6.075Y-4.65
X6.075Y-4.75
X6.175Y-4.65
X6.175Y-4.75
X6.275Y-4.65
X6.275Y-4.75
T7
X3.2707Y-5.9811
X3.4585Y-6.3161
X3.4585Y-6.4161
X3.4585Y-6.5161
X3.6707Y-5.9811
T11
X2.0025Y-5.89
X2.1875Y-5.89
X2.3726Y-5.89
T12
X2.3282Y-6.1012
X2.3282Y-6.4909
X2.6156Y-6.1366
X2.6156Y-6.3413
X2.6156Y-6.4752
T13
X2.5Y-5.6004
X2.6969Y-3.3878
X4.8622Y-5.6004
X5.8465Y-3.3878
T6
G00X1.9419Y-1.9697
M15
G01X2.0303Y-2.0581
M16
G05
G00X2.1451Y-1.7665
M15
G01X2.2335Y-1.8549
M16
G05
G00X2.3901Y-1.5215
M15
G01X2.4785Y-1.6099
M16
G05
G00X3.0576Y-1.1157
M15
G01X3.0793Y-1.2388
M16
G05
G00X3.3407Y-1.0658
M15
G01X3.3624Y-1.1889
M16
G05
G00X3.6819Y-1.0057
M15
G01X3.7036Y-1.1288
M16
G05
G00X4.9191Y-1.0057
M15
G01X4.8974Y-1.1288
M16
G05
G00X5.2603Y-1.0658
M15
G01X5.2386Y-1.1889
M16
G05
G00X5.5434Y-1.1157
M15
G01X5.5217Y-1.2388
M16
G05
G00X6.1699Y-1.5215
M15
G01X6.0815Y-1.6099
M16
G05
G00X6.4149Y-1.7665
M15
G01X6.3265Y-1.8549
M16
G05
G00X6.6181Y-1.9697
M15
G01X6.5297Y-2.0581
M16
G05
T8
G00X2.0373Y-1.9415
M15
G01X2.0585Y-1.9627
M16
G05
G00X3.152Y-1.1473
M15
G01X3.1572Y-1.1769
M16
G05
G00X5.449Y-1.1473
M15
G01X5.4438Y-1.1769
M16
G05
G00X6.5227Y-1.9415
M15
G01X6.5015Y-1.9627
M16
G05
T9
G00X2.3236Y-1.6622
M15
G01X2.3378Y-1.6764
M16
G05
G00X3.5467Y-1.0828
M15
G01X3.5502Y-1.1025
M16
G05
G00X5.0543Y-1.0828
M15
G01X5.0508Y-1.1025
M16
G05
G00X6.2364Y-1.6622
M15
G01X6.2222Y-1.6764
M16
G05
T10
G00X2.185Y-4.9059
M15
G01X2.185Y-4.7359
M16
G05
G00X2.185Y-5.4964
M15
G01X2.185Y-5.3264
M16
G05
G00X3.1693Y-3.6618
M15
G01X3.1693Y-3.4918
M16
G05
G00X3.1693Y-4.2523
M15
G01X3.1693Y-4.0823
M16
G05
M30
