G04 #@! TF.GenerationSoftware,KiCad,Pcbnew,8.0.7*
G04 #@! TF.CreationDate,2025-10-03T10:30:52-04:00*
G04 #@! TF.ProjectId,MotorBoardv3_2,4d6f746f-7242-46f6-9172-6476335f322e,V2.0.2b*
G04 #@! TF.SameCoordinates,Original*
G04 #@! TF.FileFunction,Soldermask,Top*
G04 #@! TF.FilePolarity,Negative*
%FSLAX46Y46*%
G04 Gerber Fmt 4.6, Leading zero omitted, Abs format (unit mm)*
G04 Created by KiCad (PCBNEW 8.0.7) date 2025-10-03 10:30:52*
%MOMM*%
%LPD*%
G01*
G04 APERTURE LIST*
G04 Aperture macros list*
%AMRoundRect*
0 Rectangle with rounded corners*
0 $1 Rounding radius*
0 $2 $3 $4 $5 $6 $7 $8 $9 X,Y pos of 4 corners*
0 Add a 4 corners polygon primitive as box body*
4,1,4,$2,$3,$4,$5,$6,$7,$8,$9,$2,$3,0*
0 Add four circle primitives for the rounded corners*
1,1,$1+$1,$2,$3*
1,1,$1+$1,$4,$5*
1,1,$1+$1,$6,$7*
1,1,$1+$1,$8,$9*
0 Add four rect primitives between the rounded corners*
20,1,$1+$1,$2,$3,$4,$5,0*
20,1,$1+$1,$4,$5,$6,$7,0*
20,1,$1+$1,$6,$7,$8,$9,0*
20,1,$1+$1,$8,$9,$2,$3,0*%
%AMHorizOval*
0 Thick line with rounded ends*
0 $1 width*
0 $2 $3 position (X,Y) of the first rounded end (center of the circle)*
0 $4 $5 position (X,Y) of the second rounded end (center of the circle)*
0 Add line between two ends*
20,1,$1,$2,$3,$4,$5,0*
0 Add two circle primitives to create the rounded ends*
1,1,$1,$2,$3*
1,1,$1,$4,$5*%
%AMRotRect*
0 Rectangle, with rotation*
0 The origin of the aperture is its center*
0 $1 length*
0 $2 width*
0 $3 Rotation angle, in degrees counterclockwise*
0 Add horizontal line*
21,1,$1,$2,0,0,$3*%
G04 Aperture macros list end*
%ADD10R,0.800000X0.800000*%
%ADD11C,3.175000*%
%ADD12C,1.700000*%
%ADD13R,1.700000X1.700000*%
%ADD14O,1.700000X1.700000*%
%ADD15HorizOval,2.032000X0.088213X-0.500282X-0.088213X0.500282X0*%
%ADD16HorizOval,1.778000X0.110267X-0.625353X-0.110267X0.625353X0*%
%ADD17HorizOval,1.778000X0.253613X-1.438312X-0.253613X1.438312X0*%
%ADD18RoundRect,0.200000X-0.200000X-0.275000X0.200000X-0.275000X0.200000X0.275000X-0.200000X0.275000X0*%
%ADD19RoundRect,0.225000X-0.225000X-0.250000X0.225000X-0.250000X0.225000X0.250000X-0.225000X0.250000X0*%
%ADD20RoundRect,0.200000X0.200000X0.275000X-0.200000X0.275000X-0.200000X-0.275000X0.200000X-0.275000X0*%
%ADD21RoundRect,0.200000X0.275000X-0.200000X0.275000X0.200000X-0.275000X0.200000X-0.275000X-0.200000X0*%
%ADD22C,2.000000*%
%ADD23RoundRect,0.250000X0.600000X-0.600000X0.600000X0.600000X-0.600000X0.600000X-0.600000X-0.600000X0*%
%ADD24R,2.300000X1.800000*%
%ADD25RoundRect,0.225000X-0.250000X0.225000X-0.250000X-0.225000X0.250000X-0.225000X0.250000X0.225000X0*%
%ADD26R,2.200000X2.200000*%
%ADD27O,2.200000X2.200000*%
%ADD28RoundRect,0.225000X0.225000X0.250000X-0.225000X0.250000X-0.225000X-0.250000X0.225000X-0.250000X0*%
%ADD29RotRect,1.350000X1.350000X135.000000*%
%ADD30C,1.350000*%
%ADD31R,1.800000X2.300000*%
%ADD32R,2.000000X1.905000*%
%ADD33O,2.000000X1.905000*%
%ADD34R,2.775000X2.775000*%
%ADD35C,2.775000*%
%ADD36RoundRect,0.200000X-0.275000X0.200000X-0.275000X-0.200000X0.275000X-0.200000X0.275000X0.200000X0*%
%ADD37RotRect,1.350000X1.350000X225.000000*%
%ADD38HorizOval,2.032000X0.359210X-0.359210X-0.359210X0.359210X0*%
%ADD39HorizOval,1.778000X0.449013X-0.449013X-0.449013X0.449013X0*%
%ADD40HorizOval,1.778000X1.032729X-1.032729X-1.032729X1.032729X0*%
%ADD41R,3.150000X1.000000*%
%ADD42R,0.450000X1.475000*%
%ADD43R,2.310000X2.460000*%
%ADD44RoundRect,0.150000X-0.825000X-0.150000X0.825000X-0.150000X0.825000X0.150000X-0.825000X0.150000X0*%
%ADD45C,2.904000*%
%ADD46C,3.048000*%
%ADD47O,3.048000X7.366000*%
%ADD48R,1.350000X1.350000*%
%ADD49RoundRect,0.250000X0.625000X-0.312500X0.625000X0.312500X-0.625000X0.312500X-0.625000X-0.312500X0*%
%ADD50R,1.778000X1.778000*%
%ADD51C,1.778000*%
%ADD52R,0.950000X1.750000*%
%ADD53R,3.200000X1.750000*%
%ADD54C,2.200000*%
%ADD55HorizOval,2.032000X-0.359210X-0.359210X0.359210X0.359210X0*%
%ADD56HorizOval,1.778000X-0.449013X-0.449013X0.449013X0.449013X0*%
%ADD57HorizOval,1.778000X-1.032729X-1.032729X1.032729X1.032729X0*%
%ADD58HorizOval,2.032000X-0.088213X-0.500282X0.088213X0.500282X0*%
%ADD59HorizOval,1.778000X-0.110267X-0.625353X0.110267X0.625353X0*%
%ADD60HorizOval,1.778000X-0.253613X-1.438312X0.253613X1.438312X0*%
G04 APERTURE END LIST*
D10*
X50165000Y-120142000D03*
X50165000Y-121792000D03*
D11*
X160020000Y-58420000D03*
D12*
X72517000Y-116586000D03*
D13*
X69088000Y-147066000D03*
D14*
X69088000Y-149606000D03*
D15*
X90131412Y-27752934D03*
D16*
X80125765Y-29517199D03*
D17*
X85128588Y-28635066D03*
X93794899Y-27106962D03*
X77939492Y-29902698D03*
D18*
X80315000Y-160360000D03*
X81965000Y-160360000D03*
D19*
X80230000Y-168090000D03*
X81780000Y-168090000D03*
D20*
X137212000Y-74830000D03*
X135562000Y-74830000D03*
D21*
X67210000Y-169685000D03*
X67210000Y-168035000D03*
D12*
X78740000Y-129794000D03*
D11*
X68580000Y-58420000D03*
X68580000Y-43180000D03*
D22*
X124035000Y-159260000D03*
X124035000Y-155260000D03*
D23*
X115035000Y-159260000D03*
D12*
X115035000Y-155260000D03*
D24*
X73025000Y-129180000D03*
X73025000Y-132080000D03*
D13*
X100510000Y-48920000D03*
D14*
X118290000Y-48920000D03*
X105590000Y-48920000D03*
X108130000Y-48920000D03*
X110670000Y-48920000D03*
X113210000Y-48920000D03*
X108130000Y-26060000D03*
X105590000Y-26060000D03*
D13*
X100510000Y-26060000D03*
D14*
X103050000Y-48920000D03*
X103050000Y-26060000D03*
X110670000Y-26060000D03*
X118290000Y-26060000D03*
X115750000Y-48920000D03*
X113210000Y-26060000D03*
X115750000Y-26060000D03*
D11*
X73660000Y-50800000D03*
D25*
X95060000Y-160525000D03*
X95060000Y-162075000D03*
D26*
X83075000Y-151920000D03*
D27*
X93235000Y-151920000D03*
D28*
X81905000Y-158440000D03*
X80355000Y-158440000D03*
D29*
X146050000Y-63500000D03*
D30*
X144635786Y-62085786D03*
X143221573Y-60671573D03*
D31*
X135710000Y-69850000D03*
X138610000Y-69850000D03*
D12*
X68961000Y-142499000D03*
D14*
X68961000Y-139959000D03*
D12*
X106680000Y-100330000D03*
D31*
X79830000Y-69850000D03*
X82730000Y-69850000D03*
D32*
X87845000Y-165510000D03*
D33*
X87845000Y-162970000D03*
X87845000Y-160430000D03*
D11*
X88900000Y-43180000D03*
D12*
X143006000Y-84914000D03*
D34*
X50863500Y-149606000D03*
D35*
X55563500Y-149606000D03*
X60263500Y-149606000D03*
D36*
X139700000Y-100140000D03*
X139700000Y-101790000D03*
D19*
X80265000Y-163120000D03*
X81815000Y-163120000D03*
D12*
X52705000Y-66040000D03*
X140187000Y-84980000D03*
D11*
X144780000Y-50800000D03*
D24*
X70104000Y-81714000D03*
X70104000Y-78814000D03*
D19*
X112682000Y-52050000D03*
X114232000Y-52050000D03*
X110845000Y-111125000D03*
X112395000Y-111125000D03*
D11*
X134620000Y-50800000D03*
X83820000Y-50800000D03*
X149860000Y-43180000D03*
D13*
X93980000Y-79375000D03*
D14*
X91440000Y-79375000D03*
D11*
X119380000Y-43180000D03*
D37*
X73768949Y-60914872D03*
D30*
X72354735Y-62329086D03*
X70940522Y-63743299D03*
D12*
X52705000Y-74295000D03*
D38*
X59200051Y-42399949D03*
D39*
X52015846Y-49584154D03*
D40*
X55607949Y-45992051D03*
X61830488Y-39769512D03*
X50446069Y-51153931D03*
D13*
X140827000Y-79060000D03*
D14*
X138287000Y-79060000D03*
X135747000Y-79060000D03*
X133207000Y-79060000D03*
D11*
X124460000Y-50800000D03*
D41*
X90170000Y-120650000D03*
X85120000Y-120650000D03*
X90170000Y-118110000D03*
X85120000Y-118110000D03*
X90170000Y-115570000D03*
X85120000Y-115570000D03*
X90170000Y-113030000D03*
X85120000Y-113030000D03*
X90170000Y-110490000D03*
X85120000Y-110490000D03*
X90170000Y-107950000D03*
X85120000Y-107950000D03*
X90170000Y-105410000D03*
X85120000Y-105410000D03*
X90170000Y-102870000D03*
X85120000Y-102870000D03*
X90170000Y-100330000D03*
X85120000Y-100330000D03*
X90170000Y-97790000D03*
X85120000Y-97790000D03*
D42*
X114035000Y-101557000D03*
X113385000Y-101557000D03*
X112735000Y-101557000D03*
X112085000Y-101557000D03*
X111435000Y-101557000D03*
X110785000Y-101557000D03*
X110135000Y-101557000D03*
X109485000Y-101557000D03*
X109485000Y-107433000D03*
X110135000Y-107433000D03*
X110785000Y-107433000D03*
X111435000Y-107433000D03*
X112085000Y-107433000D03*
X112735000Y-107433000D03*
X113385000Y-107433000D03*
X114035000Y-107433000D03*
D43*
X111760000Y-104495000D03*
D24*
X59690000Y-129360000D03*
X59690000Y-132260000D03*
D11*
X63500000Y-50800000D03*
D44*
X71735000Y-161415000D03*
X71735000Y-162685000D03*
X71735000Y-163955000D03*
X71735000Y-165225000D03*
X71735000Y-166495000D03*
X71735000Y-167765000D03*
X71735000Y-169035000D03*
X71735000Y-170305000D03*
X76685000Y-170305000D03*
X76685000Y-169035000D03*
X76685000Y-167765000D03*
X76685000Y-166495000D03*
X76685000Y-165225000D03*
X76685000Y-163955000D03*
X76685000Y-162685000D03*
X76685000Y-161415000D03*
D45*
X66437000Y-164470000D03*
X66437000Y-155870000D03*
X66437000Y-161070000D03*
X59137000Y-154970000D03*
X59137000Y-164870000D03*
D41*
X133350000Y-120650000D03*
X128300000Y-120650000D03*
X133350000Y-118110000D03*
X128300000Y-118110000D03*
X133350000Y-115570000D03*
X128300000Y-115570000D03*
X133350000Y-113030000D03*
X128300000Y-113030000D03*
X133350000Y-110490000D03*
X128300000Y-110490000D03*
X133350000Y-107950000D03*
X128300000Y-107950000D03*
X133350000Y-105410000D03*
X128300000Y-105410000D03*
X133350000Y-102870000D03*
X128300000Y-102870000D03*
X133350000Y-100330000D03*
X128300000Y-100330000D03*
X133350000Y-97790000D03*
X128300000Y-97790000D03*
D12*
X139065000Y-105048000D03*
D11*
X58920000Y-58310000D03*
D18*
X80110000Y-165650000D03*
X81760000Y-165650000D03*
D13*
X103187000Y-80140000D03*
D14*
X105727000Y-80140000D03*
X108267000Y-80140000D03*
X110807000Y-80140000D03*
D36*
X50165000Y-124016000D03*
X50165000Y-125666000D03*
D31*
X110310000Y-114300000D03*
X113210000Y-114300000D03*
D13*
X148463000Y-115570000D03*
D14*
X145923000Y-115570000D03*
D12*
X70057000Y-157920000D03*
X68580000Y-122555000D03*
D14*
X71120000Y-122555000D03*
D11*
X99060000Y-43180000D03*
D13*
X136525000Y-147955000D03*
D14*
X136525000Y-150495000D03*
D46*
X63500000Y-142250000D03*
X123500000Y-142250000D03*
X148500000Y-86050000D03*
X68500000Y-86050000D03*
D47*
X55500000Y-137450000D03*
X55500000Y-122450000D03*
X80500000Y-105850000D03*
X80500000Y-90850000D03*
D13*
X71297800Y-94950000D03*
D14*
X71297800Y-97490000D03*
X71297800Y-100030000D03*
X71297800Y-102570000D03*
X71297800Y-105110000D03*
X71297800Y-107650000D03*
D13*
X143687800Y-107650000D03*
D14*
X143687800Y-105110000D03*
X143687800Y-102570000D03*
X143687800Y-100030000D03*
X143687800Y-97490000D03*
D12*
X143687800Y-94950000D03*
X78987000Y-173320000D03*
X86087000Y-173460000D03*
D11*
X149860000Y-58420000D03*
D25*
X80190000Y-151245000D03*
X80190000Y-152795000D03*
D21*
X140843000Y-122300000D03*
X140843000Y-120650000D03*
D36*
X92475000Y-160415000D03*
X92475000Y-162065000D03*
D11*
X129540000Y-43180000D03*
D48*
X110490000Y-57785000D03*
D30*
X108490000Y-57785000D03*
X106490000Y-57785000D03*
D12*
X87427000Y-155030000D03*
D49*
X114808000Y-96143000D03*
X114808000Y-93218000D03*
D50*
X151765000Y-120650000D03*
D51*
X154305000Y-120650000D03*
X156845000Y-120650000D03*
X159385000Y-120650000D03*
D50*
X151765000Y-118110000D03*
D51*
X154305000Y-118110000D03*
X156845000Y-118110000D03*
X159385000Y-118110000D03*
D12*
X76073000Y-116586000D03*
D13*
X164211000Y-81407000D03*
D14*
X166751000Y-81407000D03*
D52*
X74140000Y-83135000D03*
X76440000Y-83135000D03*
X78740000Y-83135000D03*
D53*
X76440000Y-76835000D03*
D36*
X74930000Y-100140000D03*
X74930000Y-101790000D03*
D49*
X108458000Y-96143000D03*
X108458000Y-93218000D03*
D31*
X106680000Y-66675000D03*
X109580000Y-66675000D03*
D24*
X82804000Y-81460000D03*
X82804000Y-78560000D03*
D11*
X93980000Y-50800000D03*
X78740000Y-43180000D03*
D12*
X76073000Y-97536000D03*
X53340000Y-129940000D03*
D36*
X65210000Y-168035000D03*
X65210000Y-169685000D03*
D11*
X109220000Y-43180000D03*
D54*
X165207000Y-155560000D03*
D52*
X68580000Y-127660000D03*
X66280000Y-127660000D03*
X63980000Y-127660000D03*
D53*
X66280000Y-133960000D03*
D11*
X74990000Y-151750000D03*
D12*
X50673000Y-139827000D03*
D14*
X50673000Y-137287000D03*
D11*
X154940000Y-50800000D03*
X139700000Y-43180000D03*
D13*
X129032000Y-84770000D03*
D14*
X126492000Y-84770000D03*
D12*
X62707000Y-167030000D03*
X75184000Y-122555000D03*
X52070000Y-80010000D03*
D14*
X54610000Y-80010000D03*
D55*
X158223949Y-42399949D03*
D56*
X165408154Y-49584154D03*
D57*
X161816051Y-45992051D03*
X155593512Y-39769512D03*
X166977931Y-51153931D03*
D58*
X128333988Y-27752934D03*
D59*
X138339635Y-29517199D03*
D60*
X133336812Y-28635066D03*
X124670501Y-27106962D03*
X140525908Y-29902698D03*
M02*
