M48
; DRILL file {KiCad 8.0.7} date 2025-10-03T10:42:34-0400
; FORMAT={-:-/ absolute / inch / decimal}
; #@! TF.CreationDate,2025-10-03T10:42:34-04:00
; #@! TF.GenerationSoftware,Kicad,Pcbnew,8.0.7
; #@! TF.FileFunction,NonPlated,1,2,NPTH
FMAT,2
INCH
; #@! TA.AperFunction,NonPlated,NPTH,ComponentDrill
T1C0.0787
; #@! TA.AperFunction,NonPlated,NPTH,ComponentDrill
T2C0.1250
%
G90
G05
T1
X4.8833Y-6.1126
X4.8833Y-6.2701
X5.4019Y-6.1244
X6.5042Y-6.1244
T2
X2.3197Y-2.2957
X2.5Y-2.0
X2.7Y-1.7
X2.7Y-2.3
X2.9Y-2.0
X2.9524Y-5.9744
X3.1Y-1.7
X3.3Y-2.0
X3.5Y-1.7
X3.7Y-2.0
X3.9Y-1.7
X4.3Y-1.7
X4.7Y-1.7
X4.9Y-2.0
X5.1Y-1.7
X5.3Y-2.0
X5.5Y-1.7
X5.7Y-2.0
X5.9Y-1.7
X5.9Y-2.3
X6.1Y-2.0
X6.3Y-2.3
M30
