G04 #@! TF.GenerationSoftware,KiCad,Pcbnew,8.0.7*
G04 #@! TF.CreationDate,2025-10-03T10:30:52-04:00*
G04 #@! TF.ProjectId,MotorBoardv3_2,4d6f746f-7242-46f6-9172-6476335f322e,V2.0.2b*
G04 #@! TF.SameCoordinates,Original*
G04 #@! TF.FileFunction,Profile,NP*
%FSLAX46Y46*%
G04 Gerber Fmt 4.6, Leading zero omitted, Abs format (unit mm)*
G04 Created by KiCad (PCBNEW 8.0.7) date 2025-10-03 10:30:52*
%MOMM*%
%LPD*%
G01*
G04 APERTURE LIST*
G04 #@! TA.AperFunction,Profile*
%ADD10C,0.100000*%
G04 #@! TD*
G04 #@! TA.AperFunction,Profile*
%ADD11C,0.050000*%
G04 #@! TD*
G04 APERTURE END LIST*
D10*
X168910000Y-62230000D02*
X172720000Y-62230000D01*
X172720000Y-53340000D02*
X154940000Y-35560000D01*
X44450000Y-62230000D02*
X48260000Y-62230000D01*
X107310000Y-182260000D02*
X159510000Y-167260000D01*
X168910000Y-153670000D02*
X168910000Y-116840000D01*
X48260000Y-153670000D02*
X58410000Y-170160000D01*
X168910000Y-116840000D02*
X152400000Y-116840000D01*
X159510000Y-167260000D02*
X168910000Y-153670000D01*
X73660000Y-27940000D02*
X62230000Y-35560000D01*
X48260000Y-116840000D02*
X48260000Y-153670000D01*
X168910000Y-83820000D02*
X168910000Y-62230000D01*
X152400000Y-83820000D02*
X168910000Y-83820000D01*
X152400000Y-116840000D02*
X152400000Y-83820000D01*
X48260000Y-62230000D02*
X48260000Y-83820000D01*
X96520000Y-24130000D02*
X73660000Y-27940000D01*
X44450000Y-53340000D02*
X44450000Y-62230000D01*
X58410000Y-170160000D02*
X107310000Y-182260000D01*
X154940000Y-35560000D02*
X143510000Y-27940000D01*
X62230000Y-35560000D02*
X44450000Y-53340000D01*
X143510000Y-27940000D02*
X123190000Y-24130000D01*
X64770000Y-116840000D02*
X48260000Y-116840000D01*
X64770000Y-83820000D02*
X64770000Y-116840000D01*
X48260000Y-83820000D02*
X64770000Y-83820000D01*
X123190000Y-24130000D02*
X96520000Y-24130000D01*
X172720000Y-62230000D02*
X172720000Y-53340000D01*
D11*
X61409792Y-161170000D02*
G75*
G02*
X58864208Y-161170000I-1272792J0D01*
G01*
X58864208Y-161170000D02*
G75*
G02*
X61409792Y-161170000I1272792J0D01*
G01*
M02*
