G04 #@! TF.GenerationSoftware,KiCad,Pcbnew,8.0.7*
G04 #@! TF.CreationDate,2025-11-10T23:17:30-05:00*
G04 #@! TF.ProjectId,MotorBoardv3_2,4d6f746f-7242-46f6-9172-6476335f322e,V2.0.2b*
G04 #@! TF.SameCoordinates,Original*
G04 #@! TF.FileFunction,Soldermask,Bot*
G04 #@! TF.FilePolarity,Negative*
%FSLAX46Y46*%
G04 Gerber Fmt 4.6, Leading zero omitted, Abs format (unit mm)*
G04 Created by KiCad (PCBNEW 8.0.7) date 2025-11-10 23:17:30*
%MOMM*%
%LPD*%
G01*
G04 APERTURE LIST*
G04 Aperture macros list*
%AMRoundRect*
0 Rectangle with rounded corners*
0 $1 Rounding radius*
0 $2 $3 $4 $5 $6 $7 $8 $9 X,Y pos of 4 corners*
0 Add a 4 corners polygon primitive as box body*
4,1,4,$2,$3,$4,$5,$6,$7,$8,$9,$2,$3,0*
0 Add four circle primitives for the rounded corners*
1,1,$1+$1,$2,$3*
1,1,$1+$1,$4,$5*
1,1,$1+$1,$6,$7*
1,1,$1+$1,$8,$9*
0 Add four rect primitives between the rounded corners*
20,1,$1+$1,$2,$3,$4,$5,0*
20,1,$1+$1,$4,$5,$6,$7,0*
20,1,$1+$1,$6,$7,$8,$9,0*
20,1,$1+$1,$8,$9,$2,$3,0*%
%AMHorizOval*
0 Thick line with rounded ends*
0 $1 width*
0 $2 $3 position (X,Y) of the first rounded end (center of the circle)*
0 $4 $5 position (X,Y) of the second rounded end (center of the circle)*
0 Add line between two ends*
20,1,$1,$2,$3,$4,$5,0*
0 Add two circle primitives to create the rounded ends*
1,1,$1,$2,$3*
1,1,$1,$4,$5*%
%AMRotRect*
0 Rectangle, with rotation*
0 The origin of the aperture is its center*
0 $1 length*
0 $2 width*
0 $3 Rotation angle, in degrees counterclockwise*
0 Add horizontal line*
21,1,$1,$2,0,0,$3*%
G04 Aperture macros list end*
%ADD10C,3.175000*%
%ADD11C,1.700000*%
%ADD12R,1.700000X1.700000*%
%ADD13O,1.700000X1.700000*%
%ADD14HorizOval,2.032000X0.088213X-0.500282X-0.088213X0.500282X0*%
%ADD15HorizOval,1.778000X0.110267X-0.625353X-0.110267X0.625353X0*%
%ADD16HorizOval,1.778000X0.253613X-1.438312X-0.253613X1.438312X0*%
%ADD17C,2.000000*%
%ADD18RoundRect,0.250000X0.600000X-0.600000X0.600000X0.600000X-0.600000X0.600000X-0.600000X-0.600000X0*%
%ADD19R,2.200000X2.200000*%
%ADD20O,2.200000X2.200000*%
%ADD21RotRect,1.350000X1.350000X135.000000*%
%ADD22C,1.350000*%
%ADD23R,2.000000X1.905000*%
%ADD24O,2.000000X1.905000*%
%ADD25R,2.775000X2.775000*%
%ADD26C,2.775000*%
%ADD27RotRect,1.350000X1.350000X225.000000*%
%ADD28HorizOval,2.032000X0.359210X-0.359210X-0.359210X0.359210X0*%
%ADD29HorizOval,1.778000X0.449013X-0.449013X-0.449013X0.449013X0*%
%ADD30HorizOval,1.778000X1.032729X-1.032729X-1.032729X1.032729X0*%
%ADD31C,2.904000*%
%ADD32C,3.048000*%
%ADD33O,3.048000X7.366000*%
%ADD34R,1.350000X1.350000*%
%ADD35R,1.778000X1.778000*%
%ADD36C,1.778000*%
%ADD37RoundRect,0.102000X0.754000X0.754000X-0.754000X0.754000X-0.754000X-0.754000X0.754000X-0.754000X0*%
%ADD38C,1.712000*%
%ADD39C,2.200000*%
%ADD40HorizOval,2.032000X-0.359210X-0.359210X0.359210X0.359210X0*%
%ADD41HorizOval,1.778000X-0.449013X-0.449013X0.449013X0.449013X0*%
%ADD42HorizOval,1.778000X-1.032729X-1.032729X1.032729X1.032729X0*%
%ADD43HorizOval,2.032000X-0.088213X-0.500282X0.088213X0.500282X0*%
%ADD44HorizOval,1.778000X-0.110267X-0.625353X0.110267X0.625353X0*%
%ADD45HorizOval,1.778000X-0.253613X-1.438312X0.253613X1.438312X0*%
G04 APERTURE END LIST*
D10*
X160020000Y-58420000D03*
D11*
X72517000Y-116586000D03*
D12*
X69088000Y-147066000D03*
D13*
X69088000Y-149606000D03*
D14*
X90131412Y-27752934D03*
D15*
X80125765Y-29517199D03*
D16*
X85128588Y-28635066D03*
X93794899Y-27106962D03*
X77939492Y-29902698D03*
D11*
X78740000Y-129794000D03*
D10*
X68580000Y-58420000D03*
X68580000Y-43180000D03*
D17*
X124035000Y-159260000D03*
X124035000Y-155260000D03*
D18*
X115035000Y-159260000D03*
D11*
X115035000Y-155260000D03*
D10*
X73660000Y-50800000D03*
D19*
X83075000Y-151920000D03*
D20*
X93235000Y-151920000D03*
D21*
X146050000Y-63500000D03*
D22*
X144635786Y-62085786D03*
X143221573Y-60671573D03*
D11*
X68961000Y-142499000D03*
D13*
X68961000Y-139959000D03*
D11*
X106680000Y-100330000D03*
D23*
X76182000Y-146870000D03*
D24*
X76182000Y-144330000D03*
X76182000Y-141790000D03*
D10*
X88900000Y-43180000D03*
D11*
X143006000Y-84914000D03*
D25*
X50863500Y-149606000D03*
D26*
X55563500Y-149606000D03*
X60263500Y-149606000D03*
D11*
X52705000Y-66040000D03*
X140187000Y-84980000D03*
D10*
X144780000Y-50800000D03*
X134620000Y-50800000D03*
X83820000Y-50800000D03*
X149860000Y-43180000D03*
D12*
X93980000Y-79375000D03*
D13*
X91440000Y-79375000D03*
D10*
X119380000Y-43180000D03*
D27*
X73768949Y-60914872D03*
D22*
X72354735Y-62329086D03*
X70940522Y-63743299D03*
D11*
X52705000Y-74295000D03*
D28*
X59200051Y-42399949D03*
D29*
X52015846Y-49584154D03*
D30*
X55607949Y-45992051D03*
X61830488Y-39769512D03*
X50446069Y-51153931D03*
D12*
X140827000Y-79060000D03*
D13*
X138287000Y-79060000D03*
X135747000Y-79060000D03*
X133207000Y-79060000D03*
D10*
X124460000Y-50800000D03*
X63500000Y-50800000D03*
D31*
X66437000Y-164470000D03*
X66437000Y-155870000D03*
X66437000Y-161070000D03*
X59137000Y-154970000D03*
X59137000Y-164870000D03*
D10*
X58920000Y-58310000D03*
D12*
X148463000Y-115570000D03*
D13*
X145923000Y-115570000D03*
D11*
X70057000Y-157920000D03*
X68580000Y-122555000D03*
D13*
X71120000Y-122555000D03*
D10*
X99060000Y-43180000D03*
D12*
X136525000Y-147955000D03*
D13*
X136525000Y-150495000D03*
D32*
X63500000Y-142250000D03*
X123500000Y-142250000D03*
X148500000Y-86050000D03*
X68500000Y-86050000D03*
D33*
X55500000Y-137450000D03*
X55500000Y-122450000D03*
X80500000Y-105850000D03*
X80500000Y-90850000D03*
D12*
X71297800Y-94950000D03*
D13*
X71297800Y-97490000D03*
X71297800Y-100030000D03*
X71297800Y-102570000D03*
X71297800Y-105110000D03*
X71297800Y-107650000D03*
D12*
X145702200Y-107650000D03*
D13*
X145702200Y-105110000D03*
X145702200Y-102570000D03*
X145702200Y-100030000D03*
X145702200Y-97490000D03*
D11*
X145702200Y-94950000D03*
X78987000Y-173320000D03*
X86087000Y-173460000D03*
D10*
X149860000Y-58420000D03*
X129540000Y-43180000D03*
D34*
X110490000Y-57785000D03*
D22*
X108490000Y-57785000D03*
X106490000Y-57785000D03*
D11*
X87427000Y-155030000D03*
D12*
X103227000Y-80160000D03*
D13*
X105767000Y-80160000D03*
X108307000Y-80160000D03*
X110847000Y-80160000D03*
D35*
X151765000Y-120650000D03*
D36*
X154305000Y-120650000D03*
X156845000Y-120650000D03*
X159385000Y-120650000D03*
D35*
X151765000Y-118110000D03*
D36*
X154305000Y-118110000D03*
X156845000Y-118110000D03*
X159385000Y-118110000D03*
D37*
X146727000Y-169550000D03*
D38*
X140227000Y-169550000D03*
X146727000Y-165050000D03*
X140227000Y-165050000D03*
D11*
X76073000Y-116586000D03*
D12*
X164211000Y-81407000D03*
D13*
X166751000Y-81407000D03*
D10*
X93980000Y-50800000D03*
X78740000Y-43180000D03*
D11*
X53340000Y-129940000D03*
D10*
X109220000Y-43180000D03*
D39*
X165207000Y-155560000D03*
D10*
X74990000Y-151750000D03*
D11*
X50673000Y-139827000D03*
D13*
X50673000Y-137287000D03*
D10*
X154940000Y-50800000D03*
X139700000Y-43180000D03*
D12*
X129032000Y-84770000D03*
D13*
X126492000Y-84770000D03*
D11*
X62707000Y-167030000D03*
X75184000Y-122555000D03*
X52070000Y-80010000D03*
D13*
X54610000Y-80010000D03*
D40*
X158223949Y-42399949D03*
D41*
X165408154Y-49584154D03*
D42*
X161816051Y-45992051D03*
X155593512Y-39769512D03*
X166977931Y-51153931D03*
D43*
X128333988Y-27752934D03*
D44*
X138339635Y-29517199D03*
D45*
X133336812Y-28635066D03*
X124670501Y-27106962D03*
X140525908Y-29902698D03*
M02*
